  0
SECTION
  2
HEADER
  9
$ACADVER
  1
AC1014
  9
$ACADMAINTVER
 70
     9
  9
$DWGCODEPAGE
  3
MAC-ROMAN
  9
$INSBASE
 10
0.0
 20
0.0
 30
0.0
  9
$EXTMIN
 10
1.000000000000000E+20
 20
1.000000000000000E+20
 30
1.000000000000000E+20
  9
$EXTMAX
 10
-1.000000000000000E+20
 20
-1.000000000000000E+20
 30
-1.000000000000000E+20
  9
$LIMMIN
 10
0.0
 20
0.0
  9
$LIMMAX
 10
12.0
 20
9.0
  9
$ORTHOMODE
 70
     0
  9
$REGENMODE
 70
     1
  9
$FILLMODE
 70
     1
  9
$QTEXTMODE
 70
     0
  9
$MIRRTEXT
 70
     1
  9
$DRAGMODE
 70
     2
  9
$LTSCALE
 40
1.0
  9
$OSMODE
 70
    37
  9
$ATTMODE
 70
     1
  9
$TEXTSIZE
 40
0.2
  9
$TRACEWID
 40
0.05
  9
$TEXTSTYLE
  7
STANDARD
  9
$CLAYER
  8
0
  9
$CELTYPE
  6
BYLAYER
  9
$CECOLOR
 62
   256
  9
$CELTSCALE
 40
1.0
  9
$DELOBJ
 70
     1
  9
$DISPSILH
 70
     0
  9
$DIMSCALE
 40
1.0
  9
$DIMASZ
 40
0.18
  9
$DIMEXO
 40
0.0625
  9
$DIMDLI
 40
0.38
  9
$DIMRND
 40
0.0
  9
$DIMDLE
 40
0.0
  9
$DIMEXE
 40
0.18
  9
$DIMTP
 40
0.0
  9
$DIMTM
 40
0.0
  9
$DIMTXT
 40
0.18
  9
$DIMCEN
 40
0.09
  9
$DIMTSZ
 40
0.0
  9
$DIMTOL
 70
     0
  9
$DIMLIM
 70
     0
  9
$DIMTIH
 70
     1
  9
$DIMTOH
 70
     1
  9
$DIMSE1
 70
     0
  9
$DIMSE2
 70
     0
  9
$DIMTAD
 70
     0
  9
$DIMZIN
 70
     0
  9
$DIMBLK
  1

  9
$DIMASO
 70
     1
  9
$DIMSHO
 70
     1
  9
$DIMPOST
  1

  9
$DIMAPOST
  1

  9
$DIMALT
 70
     0
  9
$DIMALTD
 70
     2
  9
$DIMALTF
 40
25.4
  9
$DIMLFAC
 40
1.0
  9
$DIMTOFL
 70
     0
  9
$DIMTVP
 40
0.0
  9
$DIMTIX
 70
     0
  9
$DIMSOXD
 70
     0
  9
$DIMSAH
 70
     0
  9
$DIMBLK1
  1

  9
$DIMBLK2
  1

  9
$DIMSTYLE
  2
STANDARD
  9
$DIMCLRD
 70
     0
  9
$DIMCLRE
 70
     0
  9
$DIMCLRT
 70
     0
  9
$DIMTFAC
 40
1.0
  9
$DIMGAP
 40
0.09
  9
$DIMJUST
 70
     0
  9
$DIMSD1
 70
     0
  9
$DIMSD2
 70
     0
  9
$DIMTOLJ
 70
     1
  9
$DIMTZIN
 70
     0
  9
$DIMALTZ
 70
     0
  9
$DIMALTTZ
 70
     0
  9
$DIMFIT
 70
     3
  9
$DIMUPT
 70
     0
  9
$DIMUNIT
 70
     2
  9
$DIMDEC
 70
     4
  9
$DIMTDEC
 70
     4
  9
$DIMALTU
 70
     2
  9
$DIMALTTD
 70
     2
  9
$DIMTXSTY
  7
STANDARD
  9
$DIMAUNIT
 70
     0
  9
$LUNITS
 70
     2
  9
$LUPREC
 70
     4
  9
$SKETCHINC
 40
0.1
  9
$FILLETRAD
 40
0.5
  9
$AUNITS
 70
     0
  9
$AUPREC
 70
     0
  9
$MENU
  1
.
  9
$ELEVATION
 40
0.0
  9
$PELEVATION
 40
0.0
  9
$THICKNESS
 40
0.0
  9
$LIMCHECK
 70
     0
  9
$CHAMFERA
 40
0.0
  9
$CHAMFERB
 40
0.0
  9
$CHAMFERC
 40
0.0
  9
$CHAMFERD
 40
0.0
  9
$SKPOLY
 70
     0
  9
$TDCREATE
 40
2457918.44993184
  9
$TDUPDATE
 40
2457918.449932118
  9
$TDINDWG
 40
0.0000000116
  9
$TDUSRTIMER
 40
0.0000000116
  9
$USRTIMER
 70
     1
  9
$ANGBASE
 50
0.0
  9
$ANGDIR
 70
     0
  9
$PDMODE
 70
     0
  9
$PDSIZE
 40
0.0
  9
$PLINEWID
 40
0.0
  9
$COORDS
 70
     1
  9
$SPLFRAME
 70
     0
  9
$SPLINETYPE
 70
     6
  9
$SPLINESEGS
 70
     8
  9
$ATTDIA
 70
     0
  9
$ATTREQ
 70
     1
  9
$HANDLING
 70
     1
  9
$HANDSEED
  5
343
  9
$SURFTAB1
 70
     6
  9
$SURFTAB2
 70
     6
  9
$SURFTYPE
 70
     6
  9
$SURFU
 70
     6
  9
$SURFV
 70
     6
  9
$UCSNAME
  2

  9
$UCSORG
 10
0.0
 20
0.0
 30
0.0
  9
$UCSXDIR
 10
1.0
 20
0.0
 30
0.0
  9
$UCSYDIR
 10
0.0
 20
1.0
 30
0.0
  9
$PUCSNAME
  2

  9
$PUCSORG
 10
0.0
 20
0.0
 30
0.0
  9
$PUCSXDIR
 10
1.0
 20
0.0
 30
0.0
  9
$PUCSYDIR
 10
0.0
 20
1.0
 30
0.0
  9
$USERI1
 70
     0
  9
$USERI2
 70
     0
  9
$USERI3
 70
     0
  9
$USERI4
 70
     0
  9
$USERI5
 70
     0
  9
$USERR1
 40
0.0
  9
$USERR2
 40
0.0
  9
$USERR3
 40
0.0
  9
$USERR4
 40
0.0
  9
$USERR5
 40
0.0
  9
$WORLDVIEW
 70
     1
  9
$SHADEDGE
 70
     3
  9
$SHADEDIF
 70
    70
  9
$TILEMODE
 70
     1
  9
$MAXACTVP
 70
    64
  9
$PINSBASE
 10
0.0
 20
0.0
 30
0.0
  9
$PLIMCHECK
 70
     0
  9
$PEXTMIN
 10
1.000000000000000E+20
 20
1.000000000000000E+20
 30
1.000000000000000E+20
  9
$PEXTMAX
 10
-1.000000000000000E+20
 20
-1.000000000000000E+20
 30
-1.000000000000000E+20
  9
$PLIMMIN
 10
0.0
 20
0.0
  9
$PLIMMAX
 10
12.0
 20
9.0
  9
$UNITMODE
 70
     0
  9
$VISRETAIN
 70
     1
  9
$PLINEGEN
 70
     0
  9
$PSLTSCALE
 70
     1
  9
$TREEDEPTH
 70
  3020
  9
$PICKSTYLE
 70
     1
  9
$CMLSTYLE
  2
STANDARD
  9
$CMLJUST
 70
     0
  9
$CMLSCALE
 40
1.0
  9
$PROXYGRAPHICS
 70
     1
  9
$MEASUREMENT
 70
     1
  0
ENDSEC
  0
SECTION
  2
CLASSES
  0
CLASS
  1
ACDBDICTIONARYWDFLT
  2
AcDbDictionaryWithDefault
  3
ObjectDBX Classes
 90
        0
280
     0
281
     0
  0
CLASS
  1
VISUALSTYLE
  2
AcDbVisualStyle
  3
ObjectDBX Classes
 90
     4095
280
     0
281
     0
  0
CLASS
  1
MATERIAL
  2
AcDbMaterial
  3
ObjectDBX Classes
 90
     1153
280
     0
281
     0
  0
CLASS
  1
SCALE
  2
AcDbScale
  3
ObjectDBX Classes
 90
     1153
280
     0
281
     0
  0
CLASS
  1
TABLESTYLE
  2
AcDbTableStyle
  3
ObjectDBX Classes
 90
     4095
280
     0
281
     0
  0
CLASS
  1
MLEADERSTYLE
  2
AcDbMLeaderStyle
  3
ACDB_MLEADERSTYLE_CLASS
 90
     4095
280
     0
281
     0
  0
CLASS
  1
SUN
  2
AcDbSun
  3
SCENEOE
 90
     1153
280
     0
281
     0
  0
CLASS
  1
DICTIONARYVAR
  2
AcDbDictionaryVar
  3
ObjectDBX Classes
 90
        0
280
     0
281
     0
  0
CLASS
  1
XRECORD
  2
AcDbXrecord
  3
ObjectDBX Classes
 90
        0
280
     0
281
     0
  0
CLASS
  1
LWPOLYLINE
  2
AcDbPolyline
  3
ObjectDBX Classes
 90
        0
280
     0
281
     1
  0
CLASS
  1
HATCH
  2
AcDbHatch
  3
ObjectDBX Classes
 90
        0
280
     0
281
     1
  0
CLASS
  1
ACDBPLACEHOLDER
  2
AcDbPlaceHolder
  3
ObjectDBX Classes
 90
        0
280
     0
281
     0
  0
CLASS
  1
LAYOUT
  2
AcDbLayout
  3
ObjectDBX Classes
 90
        0
280
     0
281
     0
  0
ENDSEC
  0
SECTION
  2
TABLES
  0
TABLE
  2
VPORT
  5
8
102
{ACAD_XDICTIONARY
360
338
102
}
330
0
100
AcDbSymbolTable
 70
     1
  0
VPORT
  5
29
330
8
100
AcDbSymbolTableRecord
100
AcDbViewportTableRecord
  2
*ACTIVE
 70
     0
 10
0.0
 20
0.0
 11
1.0
 21
1.0
 12
0.0
 22
0.0
 13
0.0
 23
0.0
 14
0.5
 24
0.5
 15
0.5
 25
0.5
 16
0.0
 26
0.0
 36
1.0
 17
0.0
 27
0.0
 37
-1000.0
 40
1243.247848412553
 41
2.17440543601359
 42
50.0
 43
30482.46954992571
 44
39259.78493522639
 50
0.0
 51
0.0
 71
     0
 72
   100
 73
     1
 74
     3
 75
     0
 76
     0
 77
     0
 78
     0
  0
ENDTAB
  0
TABLE
  2
LTYPE
  5
5
330
0
100
AcDbSymbolTable
 70
     1
  0
LTYPE
  5
14
330
5
100
AcDbSymbolTableRecord
100
AcDbLinetypeTableRecord
  2
BYBLOCK
 70
     0
  3

 72
    65
 73
     0
 40
0.0
  0
LTYPE
  5
15
330
5
100
AcDbSymbolTableRecord
100
AcDbLinetypeTableRecord
  2
BYLAYER
 70
     0
  3

 72
    65
 73
     0
 40
0.0
  0
LTYPE
  5
16
330
5
100
AcDbSymbolTableRecord
100
AcDbLinetypeTableRecord
  2
CONTINUOUS
 70
     0
  3
Solid line
 72
    65
 73
     0
 40
0.0
  0
ENDTAB
  0
TABLE
  2
LAYER
  5
2
330
0
100
AcDbSymbolTable
 70
     3
  0
LAYER
  5
10
330
2
100
AcDbSymbolTableRecord
100
AcDbLayerTableRecord
  2
0
 70
     0
 62
     7
  6
CONTINUOUS
  0
LAYER
  5
6E
330
2
100
AcDbSymbolTableRecord
100
AcDbLayerTableRecord
  2
PROFILEEDGES
 70
     0
 62
     7
  6
CONTINUOUS
  0
LAYER
  5
6F
330
2
100
AcDbSymbolTableRecord
100
AcDbLayerTableRecord
  2
SECTIONCUTEDGES
 70
     0
 62
     7
  6
CONTINUOUS
  0
ENDTAB
  0
TABLE
  2
STYLE
  5
3
330
0
100
AcDbSymbolTable
 70
     1
  0
STYLE
  5
11
330
3
100
AcDbSymbolTableRecord
100
AcDbTextStyleTableRecord
  2
STANDARD
 70
     0
 40
0.0
 41
1.0
 50
0.0
 71
     0
 42
0.2
  3
txt
  4

  0
ENDTAB
  0
TABLE
  2
VIEW
  5
6
330
0
100
AcDbSymbolTable
 70
     0
  0
ENDTAB
  0
TABLE
  2
UCS
  5
7
330
0
100
AcDbSymbolTable
 70
     0
  0
ENDTAB
  0
TABLE
  2
APPID
  5
9
330
0
100
AcDbSymbolTable
 70
     2
  0
APPID
  5
12
330
9
100
AcDbSymbolTableRecord
100
AcDbRegAppTableRecord
  2
ACAD
 70
     0
  0
APPID
  5
342
330
9
100
AcDbSymbolTableRecord
100
AcDbRegAppTableRecord
  2
ACAD_MLEADERVER
 70
     0
  0
ENDTAB
  0
TABLE
  2
DIMSTYLE
  5
A
330
0
100
AcDbSymbolTable
 70
     1
  0
DIMSTYLE
105
27
330
A
100
AcDbSymbolTableRecord
100
AcDbDimStyleTableRecord
  2
STANDARD
 70
     0
  3

  4

  5

  6

  7

 40
1.0
 41
0.18
 42
0.0625
 43
0.38
 44
0.18
 45
0.0
 46
0.0
 47
0.0
 48
0.0
140
0.18
141
0.09
142
0.0
143
25.4
144
1.0
145
0.0
146
1.0
147
0.09
 71
     0
 72
     0
 73
     1
 74
     1
 75
     0
 76
     0
 77
     0
 78
     0
170
     0
171
     2
172
     0
173
     0
174
     0
175
     0
176
     0
177
     0
178
     0
270
     2
271
     4
272
     4
273
     2
274
     2
340
11
275
     0
280
     0
281
     0
282
     0
283
     1
284
     0
285
     0
286
     0
287
     3
288
     0
  0
ENDTAB
  0
TABLE
  2
BLOCK_RECORD
  5
1
330
0
100
AcDbSymbolTable
 70
     1
  0
BLOCK_RECORD
  5
1F
330
1
100
AcDbSymbolTableRecord
100
AcDbBlockTableRecord
  2
*MODEL_SPACE
  0
BLOCK_RECORD
  5
1B
330
1
100
AcDbSymbolTableRecord
100
AcDbBlockTableRecord
  2
*PAPER_SPACE
  0
ENDTAB
  0
ENDSEC
  0
SECTION
  2
BLOCKS
  0
BLOCK
  5
20
330
1F
100
AcDbEntity
  8
0
100
AcDbBlockBegin
  2
*MODEL_SPACE
 70
     0
 10
0.0
 20
0.0
 30
0.0
  3
*MODEL_SPACE
  1

  0
ENDBLK
  5
21
330
1F
100
AcDbEntity
  8
0
100
AcDbBlockEnd
  0
BLOCK
  5
1C
330
1B
100
AcDbEntity
 67
     1
  8
0
100
AcDbBlockBegin
  2
*PAPER_SPACE
 70
     0
 10
0.0
 20
0.0
 30
0.0
  3
*PAPER_SPACE
  1

  0
ENDBLK
  5
1D
330
1B
100
AcDbEntity
 67
     1
  8
0
100
AcDbBlockEnd
  0
ENDSEC
  0
SECTION
  2
ENTITIES
  0
LINE
  5
70
330
1F
100
AcDbEntity
  8
0
 62
   178
100
AcDbLine
 10
-42.85808012333324
 20
233.5053682774566
 30
0.0
 11
-242.8580801233332
 21
233.5053682774275
 31
0.0
  0
LINE
  5
71
330
1F
100
AcDbEntity
  8
0
 62
   178
100
AcDbLine
 10
-42.85808012332259
 20
160.2881357573401
 30
0.0
 11
-42.85808012333324
 21
233.5053682774566
 31
0.0
  0
LINE
  5
72
330
1F
100
AcDbEntity
  8
0
 62
   178
100
AcDbLine
 10
-242.8580801233226
 20
160.288135757311
 30
0.0
 11
-42.85808012332259
 21
160.2881357573401
 31
0.0
  0
LINE
  5
73
330
1F
100
AcDbEntity
  8
0
 62
   178
100
AcDbLine
 10
-242.8580801233332
 20
233.5053682774275
 30
0.0
 11
-242.8580801233226
 21
160.288135757311
 31
0.0
  0
LINE
  5
74
330
1F
100
AcDbEntity
  8
0
 62
   178
100
AcDbLine
 10
-72.85808012332669
 20
188.5053682774663
 30
0.0
 11
-78.85808012332319
 21
188.5053682774658
 31
0.0
  0
LINE
  5
75
330
1F
100
AcDbEntity
  8
0
 62
   178
100
AcDbLine
 10
-212.8580801233267
 20
188.5053682774578
 30
0.0
 11
-212.8580801233296
 21
208.5053682774455
 31
0.0
  0
LINE
  5
76
330
1F
100
AcDbEntity
  8
0
 62
   178
100
AcDbLine
 10
-206.8580801233267
 20
188.5053682774485
 30
0.0
 11
-212.8580801233267
 21
188.5053682774578
 31
0.0
  0
LINE
  5
77
330
1F
100
AcDbEntity
  8
0
 62
   178
100
AcDbLine
 10
-78.85808012332319
 20
188.5053682774658
 30
0.0
 11
-78.85808012332959
 21
208.505368277464
 31
0.0
  0
LINE
  5
78
330
1F
100
AcDbEntity
  8
0
 62
   178
100
AcDbLine
 10
-78.85808012332959
 20
208.505368277464
 30
0.0
 11
-72.8580801233296
 21
208.5053682774648
 31
0.0
  0
LINE
  5
79
330
1F
100
AcDbEntity
  8
0
 62
   178
100
AcDbLine
 10
-212.8580801233296
 20
208.5053682774455
 30
0.0
 11
-206.8580801233296
 21
208.5053682774464
 31
0.0
  0
LINE
  5
7A
330
1F
100
AcDbEntity
  8
0
 62
   178
100
AcDbLine
 10
-206.8580801233296
 20
208.5053682774464
 30
0.0
 11
-206.8580801233267
 21
188.5053682774485
 31
0.0
  0
LINE
  5
7B
330
1F
100
AcDbEntity
  8
0
 62
   178
100
AcDbLine
 10
-242.8580801233331
 20
238.5053682774526
 30
0.0
 11
-42.85808012333317
 21
238.5053682774536
 31
0.0
  0
LINE
  5
7C
330
1F
100
AcDbEntity
  8
0
 62
   178
100
AcDbLine
 10
-42.85808012333317
 20
238.5053682774536
 30
0.0
 11
-42.85808012333355
 21
311.72260079757
 31
0.0
  0
LINE
  5
7D
330
1F
100
AcDbEntity
  8
0
 62
   178
100
AcDbLine
 10
-242.8580801233335
 20
311.7226007975689
 30
0.0
 11
-242.8580801233331
 21
238.5053682774526
 31
0.0
  0
LINE
  5
7E
330
1F
100
AcDbEntity
  8
0
 62
   178
100
AcDbLine
 10
-42.85808012333355
 20
311.72260079757
 30
0.0
 11
-242.8580801233335
 21
311.7226007975689
 31
0.0
  0
LINE
  5
7F
330
1F
100
AcDbEntity
  8
0
 62
   178
100
AcDbLine
 10
-72.8580801233333
 20
263.5053682774687
 30
0.0
 11
-78.85808012333328
 21
263.5053682774687
 31
0.0
  0
LINE
  5
80
330
1F
100
AcDbEntity
  8
0
 62
   178
100
AcDbLine
 10
-206.8580801233334
 20
283.505368277468
 30
0.0
 11
-206.8580801233333
 21
263.5053682774792
 31
0.0
  0
LINE
  5
81
330
1F
100
AcDbEntity
  8
0
 62
   178
100
AcDbLine
 10
-212.8580801233333
 20
263.5053682774792
 30
0.0
 11
-212.8580801233334
 21
283.5053682774679
 31
0.0
  0
LINE
  5
82
330
1F
100
AcDbEntity
  8
0
 62
   178
100
AcDbLine
 10
-78.85808012333328
 20
263.5053682774687
 30
0.0
 11
-78.85808012333337
 21
283.5053682774681
 31
0.0
  0
LINE
  5
83
330
1F
100
AcDbEntity
  8
0
 62
   178
100
AcDbLine
 10
-72.85808012333338
 20
283.5053682774682
 30
0.0
 11
-72.8580801233333
 21
263.5053682774687
 31
0.0
  0
LINE
  5
84
330
1F
100
AcDbEntity
  8
0
 62
   178
100
AcDbLine
 10
-78.85808012333337
 20
283.5053682774681
 30
0.0
 11
-72.85808012333338
 21
283.5053682774682
 31
0.0
  0
LINE
  5
85
330
1F
100
AcDbEntity
  8
0
 62
   178
100
AcDbLine
 10
-212.8580801233334
 20
283.5053682774679
 30
0.0
 11
-206.8580801233334
 21
283.505368277468
 31
0.0
  0
LINE
  5
86
330
1F
100
AcDbEntity
  8
0
 62
   178
100
AcDbLine
 10
-206.8580801233333
 20
263.5053682774792
 30
0.0
 11
-212.8580801233333
 21
263.5053682774792
 31
0.0
  0
LINE
  5
87
330
1F
100
AcDbEntity
  8
0
 62
   178
100
AcDbLine
 10
-447.8580801233331
 20
238.5053682774515
 30
0.0
 11
-247.8580801233331
 21
238.5053682774525
 31
0.0
  0
LINE
  5
88
330
1F
100
AcDbEntity
  8
0
 62
   178
100
AcDbLine
 10
-247.8580801233331
 20
238.5053682774525
 30
0.0
 11
-247.8580801233335
 21
311.7226007975689
 31
0.0
  0
LINE
  5
89
330
1F
100
AcDbEntity
  8
0
 62
   178
100
AcDbLine
 10
-447.8580801233335
 20
311.7226007975678
 30
0.0
 11
-447.8580801233331
 21
238.5053682774515
 31
0.0
  0
LINE
  5
8A
330
1F
100
AcDbEntity
  8
0
 62
   178
100
AcDbLine
 10
-247.8580801233335
 20
311.7226007975689
 30
0.0
 11
-447.8580801233335
 21
311.7226007975678
 31
0.0
  0
LINE
  5
8B
330
1F
100
AcDbEntity
  8
0
 62
   178
100
AcDbLine
 10
-277.8580801233333
 20
263.5053682774677
 30
0.0
 11
-283.8580801233333
 21
263.5053682774677
 31
0.0
  0
LINE
  5
8C
330
1F
100
AcDbEntity
  8
0
 62
   178
100
AcDbLine
 10
-411.8580801233334
 20
283.5053682774669
 30
0.0
 11
-411.8580801233332
 21
263.5053682774781
 31
0.0
  0
LINE
  5
8D
330
1F
100
AcDbEntity
  8
0
 62
   178
100
AcDbLine
 10
-417.8580801233333
 20
263.5053682774781
 30
0.0
 11
-417.8580801233334
 21
283.5053682774669
 31
0.0
  0
LINE
  5
8E
330
1F
100
AcDbEntity
  8
0
 62
   178
100
AcDbLine
 10
-283.8580801233333
 20
263.5053682774677
 30
0.0
 11
-283.8580801233333
 21
283.505368277467
 31
0.0
  0
LINE
  5
8F
330
1F
100
AcDbEntity
  8
0
 62
   178
100
AcDbLine
 10
-277.8580801233334
 20
283.5053682774671
 30
0.0
 11
-277.8580801233333
 21
263.5053682774677
 31
0.0
  0
LINE
  5
90
330
1F
100
AcDbEntity
  8
0
 62
   178
100
AcDbLine
 10
-283.8580801233333
 20
283.505368277467
 30
0.0
 11
-277.8580801233334
 21
283.5053682774671
 31
0.0
  0
LINE
  5
91
330
1F
100
AcDbEntity
  8
0
 62
   178
100
AcDbLine
 10
-417.8580801233334
 20
283.5053682774669
 30
0.0
 11
-411.8580801233334
 21
283.5053682774669
 31
0.0
  0
LINE
  5
92
330
1F
100
AcDbEntity
  8
0
 62
   178
100
AcDbLine
 10
-411.8580801233332
 20
263.5053682774781
 30
0.0
 11
-417.8580801233333
 21
263.5053682774781
 31
0.0
  0
LINE
  5
93
330
1F
100
AcDbEntity
  8
0
 62
   178
100
AcDbLine
 10
-247.8580801233332
 20
233.5053682774555
 30
0.0
 11
-447.8580801233331
 21
233.5053682774264
 31
0.0
  0
LINE
  5
94
330
1F
100
AcDbEntity
  8
0
 62
   178
100
AcDbLine
 10
-247.8580801233225
 20
160.288135757339
 30
0.0
 11
-247.8580801233332
 21
233.5053682774555
 31
0.0
  0
LINE
  5
95
330
1F
100
AcDbEntity
  8
0
 62
   178
100
AcDbLine
 10
-447.8580801233226
 20
160.2881357573099
 30
0.0
 11
-247.8580801233225
 21
160.288135757339
 31
0.0
  0
LINE
  5
96
330
1F
100
AcDbEntity
  8
0
 62
   178
100
AcDbLine
 10
-447.8580801233331
 20
233.5053682774264
 30
0.0
 11
-447.8580801233226
 21
160.2881357573099
 31
0.0
  0
LINE
  5
97
330
1F
100
AcDbEntity
  8
0
 62
   178
100
AcDbLine
 10
-277.8580801233266
 20
188.5053682774652
 30
0.0
 11
-283.8580801233231
 21
188.5053682774648
 31
0.0
  0
LINE
  5
98
330
1F
100
AcDbEntity
  8
0
 62
   178
100
AcDbLine
 10
-417.8580801233266
 20
188.5053682774568
 30
0.0
 11
-417.8580801233296
 21
208.5053682774444
 31
0.0
  0
LINE
  5
99
330
1F
100
AcDbEntity
  8
0
 62
   178
100
AcDbLine
 10
-411.8580801233266
 20
188.5053682774474
 30
0.0
 11
-417.8580801233266
 21
188.5053682774568
 31
0.0
  0
LINE
  5
9A
330
1F
100
AcDbEntity
  8
0
 62
   178
100
AcDbLine
 10
-283.8580801233231
 20
188.5053682774648
 30
0.0
 11
-283.8580801233296
 21
208.5053682774629
 31
0.0
  0
LINE
  5
9B
330
1F
100
AcDbEntity
  8
0
 62
   178
100
AcDbLine
 10
-283.8580801233296
 20
208.5053682774629
 30
0.0
 11
-277.8580801233296
 21
208.5053682774638
 31
0.0
  0
LINE
  5
9C
330
1F
100
AcDbEntity
  8
0
 62
   178
100
AcDbLine
 10
-417.8580801233296
 20
208.5053682774444
 30
0.0
 11
-411.8580801233296
 21
208.5053682774453
 31
0.0
  0
LINE
  5
9D
330
1F
100
AcDbEntity
  8
0
 62
   178
100
AcDbLine
 10
-411.8580801233296
 20
208.5053682774453
 30
0.0
 11
-411.8580801233266
 21
188.5053682774474
 31
0.0
  0
LINE
  5
9E
330
1F
100
AcDbEntity
  8
0
 62
   178
100
AcDbLine
 10
-652.858080123333
 20
238.5053682774526
 30
0.0
 11
-452.8580801233331
 21
238.5053682774536
 31
0.0
  0
LINE
  5
9F
330
1F
100
AcDbEntity
  8
0
 62
   178
100
AcDbLine
 10
-452.8580801233331
 20
238.5053682774536
 30
0.0
 11
-452.8580801233334
 21
311.72260079757
 31
0.0
  0
LINE
  5
A0
330
1F
100
AcDbEntity
  8
0
 62
   178
100
AcDbLine
 10
-652.8580801233335
 20
311.7226007975689
 30
0.0
 11
-652.858080123333
 21
238.5053682774526
 31
0.0
  0
LINE
  5
A1
330
1F
100
AcDbEntity
  8
0
 62
   178
100
AcDbLine
 10
-452.8580801233334
 20
311.72260079757
 30
0.0
 11
-652.8580801233335
 21
311.7226007975689
 31
0.0
  0
LINE
  5
A2
330
1F
100
AcDbEntity
  8
0
 62
   178
100
AcDbLine
 10
-482.8580801233332
 20
263.5053682774687
 30
0.0
 11
-488.8580801233332
 21
263.5053682774687
 31
0.0
  0
LINE
  5
A3
330
1F
100
AcDbEntity
  8
0
 62
   178
100
AcDbLine
 10
-616.8580801233334
 20
283.505368277468
 30
0.0
 11
-616.8580801233331
 21
263.5053682774792
 31
0.0
  0
LINE
  5
A4
330
1F
100
AcDbEntity
  8
0
 62
   178
100
AcDbLine
 10
-622.8580801233333
 20
263.5053682774792
 30
0.0
 11
-622.8580801233333
 21
283.5053682774679
 31
0.0
  0
LINE
  5
A5
330
1F
100
AcDbEntity
  8
0
 62
   178
100
AcDbLine
 10
-488.8580801233332
 20
263.5053682774687
 30
0.0
 11
-488.8580801233333
 21
283.5053682774681
 31
0.0
  0
LINE
  5
A6
330
1F
100
AcDbEntity
  8
0
 62
   178
100
AcDbLine
 10
-482.8580801233333
 20
283.5053682774682
 30
0.0
 11
-482.8580801233332
 21
263.5053682774687
 31
0.0
  0
LINE
  5
A7
330
1F
100
AcDbEntity
  8
0
 62
   178
100
AcDbLine
 10
-488.8580801233333
 20
283.5053682774681
 30
0.0
 11
-482.8580801233333
 21
283.5053682774682
 31
0.0
  0
LINE
  5
A8
330
1F
100
AcDbEntity
  8
0
 62
   178
100
AcDbLine
 10
-622.8580801233333
 20
283.5053682774679
 30
0.0
 11
-616.8580801233334
 21
283.505368277468
 31
0.0
  0
LINE
  5
A9
330
1F
100
AcDbEntity
  8
0
 62
   178
100
AcDbLine
 10
-616.8580801233331
 20
263.5053682774792
 30
0.0
 11
-622.8580801233333
 21
263.5053682774792
 31
0.0
  0
LINE
  5
AA
330
1F
100
AcDbEntity
  8
0
 62
   178
100
AcDbLine
 10
-452.8580801233331
 20
233.5053682774566
 30
0.0
 11
-652.858080123333
 21
233.5053682774275
 31
0.0
  0
LINE
  5
AB
330
1F
100
AcDbEntity
  8
0
 62
   178
100
AcDbLine
 10
-452.8580801233224
 20
160.2881357573401
 30
0.0
 11
-452.8580801233331
 21
233.5053682774566
 31
0.0
  0
LINE
  5
AC
330
1F
100
AcDbEntity
  8
0
 62
   178
100
AcDbLine
 10
-652.8580801233225
 20
160.288135757311
 30
0.0
 11
-452.8580801233224
 21
160.2881357573401
 31
0.0
  0
LINE
  5
AD
330
1F
100
AcDbEntity
  8
0
 62
   178
100
AcDbLine
 10
-652.858080123333
 20
233.5053682774275
 30
0.0
 11
-652.8580801233225
 21
160.288135757311
 31
0.0
  0
LINE
  5
AE
330
1F
100
AcDbEntity
  8
0
 62
   178
100
AcDbLine
 10
-482.8580801233266
 20
188.5053682774663
 30
0.0
 11
-488.8580801233231
 21
188.5053682774658
 31
0.0
  0
LINE
  5
AF
330
1F
100
AcDbEntity
  8
0
 62
   178
100
AcDbLine
 10
-622.8580801233265
 20
188.5053682774578
 30
0.0
 11
-622.8580801233295
 21
208.5053682774455
 31
0.0
  0
LINE
  5
B0
330
1F
100
AcDbEntity
  8
0
 62
   178
100
AcDbLine
 10
-616.8580801233265
 20
188.5053682774485
 30
0.0
 11
-622.8580801233265
 21
188.5053682774578
 31
0.0
  0
LINE
  5
B1
330
1F
100
AcDbEntity
  8
0
 62
   178
100
AcDbLine
 10
-488.8580801233231
 20
188.5053682774658
 30
0.0
 11
-488.8580801233295
 21
208.505368277464
 31
0.0
  0
LINE
  5
B2
330
1F
100
AcDbEntity
  8
0
 62
   178
100
AcDbLine
 10
-488.8580801233295
 20
208.505368277464
 30
0.0
 11
-482.8580801233295
 21
208.5053682774648
 31
0.0
  0
LINE
  5
B3
330
1F
100
AcDbEntity
  8
0
 62
   178
100
AcDbLine
 10
-622.8580801233295
 20
208.5053682774455
 30
0.0
 11
-616.8580801233295
 21
208.5053682774464
 31
0.0
  0
LINE
  5
B4
330
1F
100
AcDbEntity
  8
0
 62
   178
100
AcDbLine
 10
-616.8580801233295
 20
208.5053682774464
 30
0.0
 11
-616.8580801233265
 21
188.5053682774485
 31
0.0
  0
LINE
  5
B5
330
1F
100
AcDbEntity
  8
0
 62
   178
100
AcDbLine
 10
-741.3452327766317
 20
111.8763731860988
 30
0.0
 11
-741.3452327766329
 21
311.8763731860988
 31
0.0
  0
LINE
  5
B6
330
1F
100
AcDbEntity
  8
0
 62
   178
100
AcDbLine
 10
-741.3452327766329
 20
311.8763731860988
 30
0.0
 11
-814.5624652967493
 21
311.8763731860984
 31
0.0
  0
LINE
  5
B7
330
1F
100
AcDbEntity
  8
0
 62
   178
100
AcDbLine
 10
-814.5624652967481
 20
111.8763731860984
 30
0.0
 11
-741.3452327766317
 21
111.8763731860988
 31
0.0
  0
LINE
  5
B8
330
1F
100
AcDbEntity
  8
0
 62
   178
100
AcDbLine
 10
-814.5624652967493
 20
311.8763731860984
 30
0.0
 11
-814.5624652967481
 21
111.8763731860984
 31
0.0
  0
LINE
  5
B9
330
1F
100
AcDbEntity
  8
0
 62
   178
100
AcDbLine
 10
-766.3452327766481
 20
281.8763731860987
 30
0.0
 11
-766.3452327766481
 21
275.8763731860987
 31
0.0
  0
LINE
  5
BA
330
1F
100
AcDbEntity
  8
0
 62
   178
100
AcDbLine
 10
-786.3452327766472
 20
147.8763731860985
 30
0.0
 11
-766.3452327766585
 21
147.8763731860987
 31
0.0
  0
LINE
  5
BB
330
1F
100
AcDbEntity
  8
0
 62
   178
100
AcDbLine
 10
-766.3452327766583
 20
141.8763731860987
 30
0.0
 11
-786.3452327766471
 21
141.8763731860985
 31
0.0
  0
LINE
  5
BC
330
1F
100
AcDbEntity
  8
0
 62
   178
100
AcDbLine
 10
-766.3452327766481
 20
275.8763731860987
 30
0.0
 11
-786.3452327766474
 21
275.8763731860986
 31
0.0
  0
LINE
  5
BD
330
1F
100
AcDbEntity
  8
0
 62
   178
100
AcDbLine
 10
-786.3452327766475
 20
281.8763731860985
 30
0.0
 11
-766.3452327766481
 21
281.8763731860987
 31
0.0
  0
LINE
  5
BE
330
1F
100
AcDbEntity
  8
0
 62
   178
100
AcDbLine
 10
-786.3452327766474
 20
275.8763731860986
 30
0.0
 11
-786.3452327766475
 21
281.8763731860985
 31
0.0
  0
LINE
  5
BF
330
1F
100
AcDbEntity
  8
0
 62
   178
100
AcDbLine
 10
-786.3452327766471
 20
141.8763731860985
 30
0.0
 11
-786.3452327766472
 21
147.8763731860985
 31
0.0
  0
LINE
  5
C0
330
1F
100
AcDbEntity
  8
0
 62
   178
100
AcDbLine
 10
-766.3452327766585
 20
147.8763731860987
 30
0.0
 11
-766.3452327766583
 21
141.8763731860987
 31
0.0
  0
LINE
  5
C1
330
1F
100
AcDbEntity
  8
0
 62
   178
100
AcDbLine
 10
-731.0753126434522
 20
311.7226007975582
 30
0.0
 11
-731.0753126434229
 21
111.7226007975582
 31
0.0
  0
LINE
  5
C2
330
1F
100
AcDbEntity
  8
0
 62
   178
100
AcDbLine
 10
-657.8580801233356
 20
311.7226007975689
 30
0.0
 11
-731.0753126434522
 21
311.7226007975582
 31
0.0
  0
LINE
  5
C3
330
1F
100
AcDbEntity
  8
0
 62
   178
100
AcDbLine
 10
-657.8580801233064
 20
111.7226007975689
 30
0.0
 11
-657.8580801233356
 21
311.7226007975689
 31
0.0
  0
LINE
  5
C4
330
1F
100
AcDbEntity
  8
0
 62
   178
100
AcDbLine
 10
-731.0753126434229
 20
111.7226007975582
 30
0.0
 11
-657.8580801233064
 21
111.7226007975689
 31
0.0
  0
LINE
  5
C5
330
1F
100
AcDbEntity
  8
0
 62
   178
100
AcDbLine
 10
-686.0753126434618
 20
281.7226007975648
 30
0.0
 11
-686.0753126434613
 21
275.7226007975683
 31
0.0
  0
LINE
  5
C6
330
1F
100
AcDbEntity
  8
0
 62
   178
100
AcDbLine
 10
-686.0753126434532
 20
141.7226007975648
 30
0.0
 11
-706.075312643441
 21
141.7226007975619
 31
0.0
  0
LINE
  5
C7
330
1F
100
AcDbEntity
  8
0
 62
   178
100
AcDbLine
 10
-686.0753126434439
 20
147.7226007975648
 30
0.0
 11
-686.0753126434532
 21
141.7226007975648
 31
0.0
  0
LINE
  5
C8
330
1F
100
AcDbEntity
  8
0
 62
   178
100
AcDbLine
 10
-686.0753126434613
 20
275.7226007975683
 30
0.0
 11
-706.0753126434595
 21
275.7226007975619
 31
0.0
  0
LINE
  5
C9
330
1F
100
AcDbEntity
  8
0
 62
   178
100
AcDbLine
 10
-706.0753126434595
 20
275.7226007975619
 30
0.0
 11
-706.0753126434604
 21
281.7226007975619
 31
0.0
  0
LINE
  5
CA
330
1F
100
AcDbEntity
  8
0
 62
   178
100
AcDbLine
 10
-706.075312643441
 20
141.7226007975619
 30
0.0
 11
-706.0753126434419
 21
147.7226007975619
 31
0.0
  0
LINE
  5
CB
330
1F
100
AcDbEntity
  8
0
 62
   178
100
AcDbLine
 10
-706.0753126434419
 20
147.7226007975619
 30
0.0
 11
-686.0753126434439
 21
147.7226007975648
 31
0.0
  0
LINE
  5
CC
330
1F
100
AcDbEntity
  8
0
 62
   178
100
AcDbLine
 10
-42.85808012332235
 20
82.07090323722295
 30
0.0
 11
-176.6077247871117
 21
82.07090323722292
 31
0.0
  0
LINE
  5
CD
330
1F
100
AcDbEntity
  8
0
 62
   178
100
AcDbLine
 10
-242.8580801233224
 20
82.070903237223
 30
0.0
 11
-242.8580801233224
 21
155.2881357573379
 31
0.0
  0
LINE
  5
CE
330
1F
100
AcDbEntity
  8
0
 62
   178
100
AcDbLine
 10
-42.85808012332236
 20
155.2881357573379
 30
0.0
 11
-42.85808012332235
 21
82.07090323722295
 31
0.0
  0
LINE
  5
CF
330
1F
100
AcDbEntity
  8
0
 62
   178
100
AcDbLine
 10
-242.8580801233224
 20
155.2881357573379
 30
0.0
 11
-42.85808012332236
 21
155.2881357573379
 31
0.0
  0
LINE
  5
D0
330
1F
100
AcDbEntity
  8
0
 62
   178
100
AcDbLine
 10
-206.8580801233224
 20
127.070903237224
 30
0.0
 11
-212.8580801233224
 21
127.070903237224
 31
0.0
  0
LINE
  5
D1
330
1F
100
AcDbEntity
  8
0
 62
   178
100
AcDbLine
 10
-206.8580801233224
 20
107.0709032372251
 30
0.0
 11
-206.8580801233224
 21
127.070903237224
 31
0.0
  0
LINE
  5
D2
330
1F
100
AcDbEntity
  8
0
 62
   178
100
AcDbLine
 10
-212.8580801233224
 20
127.070903237224
 30
0.0
 11
-212.8580801233223
 21
107.070903237225
 31
0.0
  0
LINE
  5
D3
330
1F
100
AcDbEntity
  8
0
 62
   178
100
AcDbLine
 10
-212.8580801233223
 20
107.070903237225
 30
0.0
 11
-206.8580801233224
 21
107.0709032372251
 31
0.0
  0
LINE
  5
D4
330
1F
100
AcDbEntity
  8
0
 62
   178
100
AcDbLine
 10
-78.85808012332238
 20
107.070903237226
 30
0.0
 11
-72.85808012332238
 21
107.070903237226
 31
0.0
  0
LINE
  5
D5
330
1F
100
AcDbEntity
  8
0
 62
   178
100
AcDbLine
 10
-72.8580801233224
 20
127.070903237224
 30
0.0
 11
-78.85808012332238
 21
127.0709032372239
 31
0.0
  0
LINE
  5
D6
330
1F
100
AcDbEntity
  8
0
 62
   178
100
AcDbLine
 10
-72.85808012332238
 20
107.070903237226
 30
0.0
 11
-72.8580801233224
 21
127.070903237224
 31
0.0
  0
LINE
  5
D7
330
1F
100
AcDbEntity
  8
0
 62
   178
100
AcDbLine
 10
-78.85808012332238
 20
127.0709032372239
 30
0.0
 11
-78.85808012332238
 21
107.070903237226
 31
0.0
  0
LINE
  5
D8
330
1F
100
AcDbEntity
  8
0
 62
   178
100
AcDbLine
 10
-176.6077247871117
 20
86.04538820987439
 30
0.0
 11
-176.6077247871117
 21
82.07090323722292
 31
0.0
  0
LINE
  5
D9
330
1F
100
AcDbEntity
  8
0
 62
   178
100
AcDbLine
 10
-203.6077247871117
 20
86.04538820987428
 30
0.0
 11
-176.6077247871117
 21
86.04538820987439
 31
0.0
  0
LINE
  5
DA
330
1F
100
AcDbEntity
  8
0
 62
   178
100
AcDbLine
 10
-203.6077247871117
 20
82.07090323722295
 30
0.0
 11
-203.6077247871117
 21
86.04538820987428
 31
0.0
  0
LINE
  5
DB
330
1F
100
AcDbEntity
  8
0
 62
   178
100
AcDbLine
 10
-203.6077247871117
 20
82.07090323722295
 30
0.0
 11
-242.8580801233224
 21
82.070903237223
 31
0.0
  0
LINE
  5
DC
330
1F
100
AcDbEntity
  8
0
 62
   178
100
AcDbLine
 10
-247.8580801233227
 20
82.07090323722295
 30
0.0
 11
-381.607724787112
 21
82.07090323722292
 31
0.0
  0
LINE
  5
DD
330
1F
100
AcDbEntity
  8
0
 62
   178
100
AcDbLine
 10
-447.8580801233227
 20
82.070903237223
 30
0.0
 11
-447.8580801233227
 21
155.2881357573379
 31
0.0
  0
LINE
  5
DE
330
1F
100
AcDbEntity
  8
0
 62
   178
100
AcDbLine
 10
-247.8580801233227
 20
155.2881357573379
 30
0.0
 11
-247.8580801233227
 21
82.07090323722295
 31
0.0
  0
LINE
  5
DF
330
1F
100
AcDbEntity
  8
0
 62
   178
100
AcDbLine
 10
-447.8580801233227
 20
155.2881357573379
 30
0.0
 11
-247.8580801233227
 21
155.2881357573379
 31
0.0
  0
LINE
  5
E0
330
1F
100
AcDbEntity
  8
0
 62
   178
100
AcDbLine
 10
-411.8580801233227
 20
127.070903237224
 30
0.0
 11
-417.8580801233227
 21
127.070903237224
 31
0.0
  0
LINE
  5
E1
330
1F
100
AcDbEntity
  8
0
 62
   178
100
AcDbLine
 10
-411.8580801233227
 20
107.0709032372251
 30
0.0
 11
-411.8580801233227
 21
127.070903237224
 31
0.0
  0
LINE
  5
E2
330
1F
100
AcDbEntity
  8
0
 62
   178
100
AcDbLine
 10
-417.8580801233227
 20
127.070903237224
 30
0.0
 11
-417.8580801233226
 21
107.070903237225
 31
0.0
  0
LINE
  5
E3
330
1F
100
AcDbEntity
  8
0
 62
   178
100
AcDbLine
 10
-417.8580801233226
 20
107.070903237225
 30
0.0
 11
-411.8580801233227
 21
107.0709032372251
 31
0.0
  0
LINE
  5
E4
330
1F
100
AcDbEntity
  8
0
 62
   178
100
AcDbLine
 10
-283.8580801233227
 20
107.070903237226
 30
0.0
 11
-277.8580801233227
 21
107.070903237226
 31
0.0
  0
LINE
  5
E5
330
1F
100
AcDbEntity
  8
0
 62
   178
100
AcDbLine
 10
-277.8580801233227
 20
127.070903237224
 30
0.0
 11
-283.8580801233227
 21
127.0709032372239
 31
0.0
  0
LINE
  5
E6
330
1F
100
AcDbEntity
  8
0
 62
   178
100
AcDbLine
 10
-277.8580801233227
 20
107.070903237226
 30
0.0
 11
-277.8580801233227
 21
127.070903237224
 31
0.0
  0
LINE
  5
E7
330
1F
100
AcDbEntity
  8
0
 62
   178
100
AcDbLine
 10
-283.8580801233227
 20
127.0709032372239
 30
0.0
 11
-283.8580801233227
 21
107.070903237226
 31
0.0
  0
LINE
  5
E8
330
1F
100
AcDbEntity
  8
0
 62
   178
100
AcDbLine
 10
-381.607724787112
 20
86.04538820987439
 30
0.0
 11
-381.607724787112
 21
82.07090323722292
 31
0.0
  0
LINE
  5
E9
330
1F
100
AcDbEntity
  8
0
 62
   178
100
AcDbLine
 10
-408.607724787112
 20
86.04538820987428
 30
0.0
 11
-381.607724787112
 21
86.04538820987439
 31
0.0
  0
LINE
  5
EA
330
1F
100
AcDbEntity
  8
0
 62
   178
100
AcDbLine
 10
-408.607724787112
 20
82.07090323722295
 30
0.0
 11
-408.607724787112
 21
86.04538820987428
 31
0.0
  0
LINE
  5
EB
330
1F
100
AcDbEntity
  8
0
 62
   178
100
AcDbLine
 10
-408.607724787112
 20
82.07090323722295
 30
0.0
 11
-447.8580801233227
 21
82.070903237223
 31
0.0
  0
LINE
  5
EC
330
1F
100
AcDbEntity
  8
0
 62
   178
100
AcDbLine
 10
-452.8580801233222
 20
82.07090323722295
 30
0.0
 11
-586.6077247871117
 21
82.07090323722292
 31
0.0
  0
LINE
  5
ED
330
1F
100
AcDbEntity
  8
0
 62
   178
100
AcDbLine
 10
-652.8580801233222
 20
82.070903237223
 30
0.0
 11
-652.8580801233222
 21
155.2881357573379
 31
0.0
  0
LINE
  5
EE
330
1F
100
AcDbEntity
  8
0
 62
   178
100
AcDbLine
 10
-452.8580801233222
 20
155.2881357573379
 30
0.0
 11
-452.8580801233222
 21
82.07090323722295
 31
0.0
  0
LINE
  5
EF
330
1F
100
AcDbEntity
  8
0
 62
   178
100
AcDbLine
 10
-652.8580801233222
 20
155.2881357573379
 30
0.0
 11
-452.8580801233222
 21
155.2881357573379
 31
0.0
  0
LINE
  5
F0
330
1F
100
AcDbEntity
  8
0
 62
   178
100
AcDbLine
 10
-616.8580801233223
 20
127.070903237224
 30
0.0
 11
-622.8580801233223
 21
127.070903237224
 31
0.0
  0
LINE
  5
F1
330
1F
100
AcDbEntity
  8
0
 62
   178
100
AcDbLine
 10
-616.8580801233223
 20
107.0709032372251
 30
0.0
 11
-616.8580801233223
 21
127.070903237224
 31
0.0
  0
LINE
  5
F2
330
1F
100
AcDbEntity
  8
0
 62
   178
100
AcDbLine
 10
-622.8580801233223
 20
127.070903237224
 30
0.0
 11
-622.8580801233222
 21
107.070903237225
 31
0.0
  0
LINE
  5
F3
330
1F
100
AcDbEntity
  8
0
 62
   178
100
AcDbLine
 10
-622.8580801233222
 20
107.070903237225
 30
0.0
 11
-616.8580801233223
 21
107.0709032372251
 31
0.0
  0
LINE
  5
F4
330
1F
100
AcDbEntity
  8
0
 62
   178
100
AcDbLine
 10
-488.8580801233223
 20
107.070903237226
 30
0.0
 11
-482.8580801233223
 21
107.070903237226
 31
0.0
  0
LINE
  5
F5
330
1F
100
AcDbEntity
  8
0
 62
   178
100
AcDbLine
 10
-482.8580801233223
 20
127.070903237224
 30
0.0
 11
-488.8580801233223
 21
127.0709032372239
 31
0.0
  0
LINE
  5
F6
330
1F
100
AcDbEntity
  8
0
 62
   178
100
AcDbLine
 10
-482.8580801233223
 20
107.070903237226
 30
0.0
 11
-482.8580801233223
 21
127.070903237224
 31
0.0
  0
LINE
  5
F7
330
1F
100
AcDbEntity
  8
0
 62
   178
100
AcDbLine
 10
-488.8580801233223
 20
127.0709032372239
 30
0.0
 11
-488.8580801233223
 21
107.070903237226
 31
0.0
  0
LINE
  5
F8
330
1F
100
AcDbEntity
  8
0
 62
   178
100
AcDbLine
 10
-586.6077247871117
 20
86.04538820987439
 30
0.0
 11
-586.6077247871117
 21
82.07090323722292
 31
0.0
  0
LINE
  5
F9
330
1F
100
AcDbEntity
  8
0
 62
   178
100
AcDbLine
 10
-613.6077247871116
 20
86.04538820987428
 30
0.0
 11
-586.6077247871117
 21
86.04538820987439
 31
0.0
  0
LINE
  5
FA
330
1F
100
AcDbEntity
  8
0
 62
   178
100
AcDbLine
 10
-613.6077247871116
 20
82.07090323722295
 30
0.0
 11
-613.6077247871116
 21
86.04538820987428
 31
0.0
  0
LINE
  5
FB
330
1F
100
AcDbEntity
  8
0
 62
   178
100
AcDbLine
 10
-613.6077247871116
 20
82.07090323722295
 30
0.0
 11
-652.8580801233222
 21
82.070903237223
 31
0.0
  0
LINE
  5
FC
330
1F
100
AcDbEntity
  8
0
 62
   178
100
AcDbLine
 10
-701.6329130530536
 20
56.72259944195152
 30
0.0
 11
-725.6329130530536
 21
56.72259944195151
 31
0.0
  0
LINE
  5
FD
330
1F
100
AcDbEntity
  8
0
 62
   178
100
AcDbLine
 10
-725.6329130530536
 20
56.72259944195151
 30
0.0
 11
-725.6329130530536
 21
76.72259944195157
 31
0.0
  0
LINE
  5
FE
330
1F
100
AcDbEntity
  8
0
 62
   178
100
AcDbLine
 10
-725.6329130530536
 20
76.72259944195157
 30
0.0
 11
-701.6329130530536
 21
76.72259944195157
 31
0.0
  0
LINE
  5
FF
330
1F
100
AcDbEntity
  8
0
 62
   178
100
AcDbLine
 10
-701.6329130530536
 20
76.72259944195157
 30
0.0
 11
-701.6329130530536
 21
56.72259944195152
 31
0.0
  0
LINE
  5
100
330
1F
100
AcDbEntity
  8
0
 62
   178
100
AcDbLine
 10
-701.6329130530536
 20
26.72259944195004
 30
0.0
 11
-725.6329130530536
 21
26.72259944195003
 31
0.0
  0
LINE
  5
101
330
1F
100
AcDbEntity
  8
0
 62
   178
100
AcDbLine
 10
-725.6329130530536
 20
26.72259944195003
 30
0.0
 11
-725.6329130530536
 21
46.72259944195009
 31
0.0
  0
LINE
  5
102
330
1F
100
AcDbEntity
  8
0
 62
   178
100
AcDbLine
 10
-725.6329130530536
 20
46.72259944195009
 30
0.0
 11
-701.6329130530536
 21
46.72259944195009
 31
0.0
  0
LINE
  5
103
330
1F
100
AcDbEntity
  8
0
 62
   178
100
AcDbLine
 10
-701.6329130530536
 20
46.72259944195009
 30
0.0
 11
-701.6329130530536
 21
26.72259944195004
 31
0.0
  0
LINE
  5
104
330
1F
100
AcDbEntity
  8
0
 62
   178
100
AcDbLine
 10
-661.6415713479857
 20
-3.404994232509079
 30
0.0
 11
-685.6415713479857
 21
-3.404994232509085
 31
0.0
  0
LINE
  5
105
330
1F
100
AcDbEntity
  8
0
 62
   178
100
AcDbLine
 10
-685.6415713479857
 20
-3.404994232509085
 30
0.0
 11
-685.6415713479857
 21
16.59500576749097
 31
0.0
  0
LINE
  5
106
330
1F
100
AcDbEntity
  8
0
 62
   178
100
AcDbLine
 10
-685.6415713479857
 20
16.59500576749097
 30
0.0
 11
-661.6415713479857
 21
16.59500576749097
 31
0.0
  0
LINE
  5
107
330
1F
100
AcDbEntity
  8
0
 62
   178
100
AcDbLine
 10
-661.6415713479857
 20
16.59500576749097
 30
0.0
 11
-661.6415713479857
 21
-3.404994232509079
 31
0.0
  0
LINE
  5
108
330
1F
100
AcDbEntity
  8
0
 62
   178
100
AcDbLine
 10
-661.6415713479861
 20
86.59500576749176
 30
0.0
 11
-685.6415713479861
 21
86.59500576749174
 31
0.0
  0
LINE
  5
109
330
1F
100
AcDbEntity
  8
0
 62
   178
100
AcDbLine
 10
-685.6415713479861
 20
86.59500576749174
 30
0.0
 11
-685.6415713479861
 21
106.5950057674918
 31
0.0
  0
LINE
  5
10A
330
1F
100
AcDbEntity
  8
0
 62
   178
100
AcDbLine
 10
-685.6415713479861
 20
106.5950057674918
 30
0.0
 11
-661.6415713479861
 21
106.5950057674918
 31
0.0
  0
LINE
  5
10B
330
1F
100
AcDbEntity
  8
0
 62
   178
100
AcDbLine
 10
-661.6415713479861
 20
106.5950057674918
 30
0.0
 11
-661.6415713479861
 21
86.59500576749176
 31
0.0
  0
LINE
  5
10C
330
1F
100
AcDbEntity
  8
0
 62
   178
100
AcDbLine
 10
-661.6415713479857
 20
26.59500576749114
 30
0.0
 11
-685.6415713479857
 21
26.59500576749113
 31
0.0
  0
LINE
  5
10D
330
1F
100
AcDbEntity
  8
0
 62
   178
100
AcDbLine
 10
-685.6415713479857
 20
26.59500576749113
 30
0.0
 11
-685.6415713479857
 21
46.59500576749119
 31
0.0
  0
LINE
  5
10E
330
1F
100
AcDbEntity
  8
0
 62
   178
100
AcDbLine
 10
-685.6415713479857
 20
46.59500576749119
 30
0.0
 11
-661.6415713479857
 21
46.59500576749119
 31
0.0
  0
LINE
  5
10F
330
1F
100
AcDbEntity
  8
0
 62
   178
100
AcDbLine
 10
-661.6415713479857
 20
46.59500576749119
 30
0.0
 11
-661.6415713479857
 21
26.59500576749114
 31
0.0
  0
LINE
  5
110
330
1F
100
AcDbEntity
  8
0
 62
   178
100
AcDbLine
 10
-661.6415713479861
 20
56.59500576749117
 30
0.0
 11
-685.6415713479861
 21
56.59500576749116
 31
0.0
  0
LINE
  5
111
330
1F
100
AcDbEntity
  8
0
 62
   178
100
AcDbLine
 10
-685.6415713479861
 20
56.59500576749116
 30
0.0
 11
-685.6415713479861
 21
76.59500576749123
 31
0.0
  0
LINE
  5
112
330
1F
100
AcDbEntity
  8
0
 62
   178
100
AcDbLine
 10
-685.6415713479861
 20
76.59500576749123
 30
0.0
 11
-661.6415713479861
 21
76.59500576749123
 31
0.0
  0
LINE
  5
113
330
1F
100
AcDbEntity
  8
0
 62
   178
100
AcDbLine
 10
-661.6415713479861
 20
76.59500576749123
 30
0.0
 11
-661.6415713479861
 21
56.59500576749117
 31
0.0
  0
LINE
  5
114
330
1F
100
AcDbEntity
  8
0
 62
   178
100
AcDbLine
 10
-701.6329130530536
 20
86.72259944195173
 30
0.0
 11
-725.6329130530536
 21
86.72259944195171
 31
0.0
  0
LINE
  5
115
330
1F
100
AcDbEntity
  8
0
 62
   178
100
AcDbLine
 10
-725.6329130530536
 20
86.72259944195171
 30
0.0
 11
-725.6329130530536
 21
106.7225994419518
 31
0.0
  0
LINE
  5
116
330
1F
100
AcDbEntity
  8
0
 62
   178
100
AcDbLine
 10
-725.6329130530536
 20
106.7225994419518
 30
0.0
 11
-701.6329130530536
 21
106.7225994419518
 31
0.0
  0
LINE
  5
117
330
1F
100
AcDbEntity
  8
0
 62
   178
100
AcDbLine
 10
-701.6329130530536
 20
106.7225994419518
 30
0.0
 11
-701.6329130530536
 21
86.72259944195173
 31
0.0
  0
LINE
  5
118
330
1F
100
AcDbEntity
  8
0
 62
   178
100
AcDbLine
 10
-701.6329130530534
 20
-3.277400558049997
 30
0.0
 11
-725.6329130530534
 21
-3.277400558050004
 31
0.0
  0
LINE
  5
119
330
1F
100
AcDbEntity
  8
0
 62
   178
100
AcDbLine
 10
-725.6329130530534
 20
-3.277400558050004
 30
0.0
 11
-725.6329130530534
 21
16.72259944195005
 31
0.0
  0
LINE
  5
11A
330
1F
100
AcDbEntity
  8
0
 62
   178
100
AcDbLine
 10
-725.6329130530534
 20
16.72259944195005
 30
0.0
 11
-701.6329130530534
 21
16.72259944195006
 31
0.0
  0
LINE
  5
11B
330
1F
100
AcDbEntity
  8
0
 62
   178
100
AcDbLine
 10
-701.6329130530534
 20
16.72259944195006
 30
0.0
 11
-701.6329130530534
 21
-3.277400558049997
 31
0.0
  0
LINE
  5
11C
330
1F
100
AcDbEntity
  8
0
 62
   178
100
AcDbLine
 10
-786.6329130530536
 20
56.72259944195152
 30
0.0
 11
-810.6329130530535
 21
56.72259944195151
 31
0.0
  0
LINE
  5
11D
330
1F
100
AcDbEntity
  8
0
 62
   178
100
AcDbLine
 10
-810.6329130530535
 20
56.72259944195151
 30
0.0
 11
-810.6329130530535
 21
76.72259944195157
 31
0.0
  0
LINE
  5
11E
330
1F
100
AcDbEntity
  8
0
 62
   178
100
AcDbLine
 10
-810.6329130530535
 20
76.72259944195157
 30
0.0
 11
-786.6329130530536
 21
76.72259944195157
 31
0.0
  0
LINE
  5
11F
330
1F
100
AcDbEntity
  8
0
 62
   178
100
AcDbLine
 10
-786.6329130530536
 20
76.72259944195157
 30
0.0
 11
-786.6329130530536
 21
56.72259944195152
 31
0.0
  0
LINE
  5
120
330
1F
100
AcDbEntity
  8
0
 62
   178
100
AcDbLine
 10
-746.6415713479861
 20
86.59500576749176
 30
0.0
 11
-770.6415713479861
 21
86.59500576749174
 31
0.0
  0
LINE
  5
121
330
1F
100
AcDbEntity
  8
0
 62
   178
100
AcDbLine
 10
-770.6415713479861
 20
86.59500576749174
 30
0.0
 11
-770.6415713479861
 21
106.5950057674918
 31
0.0
  0
LINE
  5
122
330
1F
100
AcDbEntity
  8
0
 62
   178
100
AcDbLine
 10
-770.6415713479861
 20
106.5950057674918
 30
0.0
 11
-746.6415713479861
 21
106.5950057674918
 31
0.0
  0
LINE
  5
123
330
1F
100
AcDbEntity
  8
0
 62
   178
100
AcDbLine
 10
-746.6415713479861
 20
106.5950057674918
 30
0.0
 11
-746.6415713479861
 21
86.59500576749176
 31
0.0
  0
LINE
  5
124
330
1F
100
AcDbEntity
  8
0
 62
   178
100
AcDbLine
 10
-746.6415713479861
 20
56.59500576749117
 30
0.0
 11
-770.6415713479861
 21
56.59500576749116
 31
0.0
  0
LINE
  5
125
330
1F
100
AcDbEntity
  8
0
 62
   178
100
AcDbLine
 10
-770.6415713479861
 20
56.59500576749116
 30
0.0
 11
-770.6415713479861
 21
76.59500576749123
 31
0.0
  0
LINE
  5
126
330
1F
100
AcDbEntity
  8
0
 62
   178
100
AcDbLine
 10
-770.6415713479861
 20
76.59500576749123
 30
0.0
 11
-746.6415713479861
 21
76.59500576749123
 31
0.0
  0
LINE
  5
127
330
1F
100
AcDbEntity
  8
0
 62
   178
100
AcDbLine
 10
-746.6415713479861
 20
76.59500576749123
 30
0.0
 11
-746.6415713479861
 21
56.59500576749117
 31
0.0
  0
LINE
  5
128
330
1F
100
AcDbEntity
  8
0
 62
   178
100
AcDbLine
 10
-786.6329130530534
 20
-3.277400558049997
 30
0.0
 11
-810.6329130530534
 21
-3.277400558050004
 31
0.0
  0
LINE
  5
129
330
1F
100
AcDbEntity
  8
0
 62
   178
100
AcDbLine
 10
-810.6329130530534
 20
-3.277400558050004
 30
0.0
 11
-810.6329130530534
 21
16.72259944195005
 31
0.0
  0
LINE
  5
12A
330
1F
100
AcDbEntity
  8
0
 62
   178
100
AcDbLine
 10
-810.6329130530534
 20
16.72259944195005
 30
0.0
 11
-786.6329130530534
 21
16.72259944195006
 31
0.0
  0
LINE
  5
12B
330
1F
100
AcDbEntity
  8
0
 62
   178
100
AcDbLine
 10
-786.6329130530534
 20
16.72259944195006
 30
0.0
 11
-786.6329130530534
 21
-3.277400558049997
 31
0.0
  0
LINE
  5
12C
330
1F
100
AcDbEntity
  8
0
 62
   178
100
AcDbLine
 10
-786.6329130530536
 20
26.72259944195004
 30
0.0
 11
-810.6329130530535
 21
26.72259944195003
 31
0.0
  0
LINE
  5
12D
330
1F
100
AcDbEntity
  8
0
 62
   178
100
AcDbLine
 10
-810.6329130530535
 20
26.72259944195003
 30
0.0
 11
-810.6329130530535
 21
46.72259944195009
 31
0.0
  0
LINE
  5
12E
330
1F
100
AcDbEntity
  8
0
 62
   178
100
AcDbLine
 10
-810.6329130530535
 20
46.72259944195009
 30
0.0
 11
-786.6329130530536
 21
46.72259944195009
 31
0.0
  0
LINE
  5
12F
330
1F
100
AcDbEntity
  8
0
 62
   178
100
AcDbLine
 10
-786.6329130530536
 20
46.72259944195009
 30
0.0
 11
-786.6329130530536
 21
26.72259944195004
 31
0.0
  0
LINE
  5
130
330
1F
100
AcDbEntity
  8
0
 62
   178
100
AcDbLine
 10
-786.6329130530536
 20
86.72259944195173
 30
0.0
 11
-810.6329130530535
 21
86.72259944195171
 31
0.0
  0
LINE
  5
131
330
1F
100
AcDbEntity
  8
0
 62
   178
100
AcDbLine
 10
-810.6329130530535
 20
86.72259944195171
 30
0.0
 11
-810.6329130530535
 21
106.7225994419518
 31
0.0
  0
LINE
  5
132
330
1F
100
AcDbEntity
  8
0
 62
   178
100
AcDbLine
 10
-810.6329130530535
 20
106.7225994419518
 30
0.0
 11
-786.6329130530536
 21
106.7225994419518
 31
0.0
  0
LINE
  5
133
330
1F
100
AcDbEntity
  8
0
 62
   178
100
AcDbLine
 10
-786.6329130530536
 20
106.7225994419518
 30
0.0
 11
-786.6329130530536
 21
86.72259944195173
 31
0.0
  0
LINE
  5
134
330
1F
100
AcDbEntity
  8
0
 62
   178
100
AcDbLine
 10
-746.6415713479857
 20
26.59500576749114
 30
0.0
 11
-770.6415713479856
 21
26.59500576749113
 31
0.0
  0
LINE
  5
135
330
1F
100
AcDbEntity
  8
0
 62
   178
100
AcDbLine
 10
-770.6415713479856
 20
26.59500576749113
 30
0.0
 11
-770.6415713479856
 21
46.59500576749119
 31
0.0
  0
LINE
  5
136
330
1F
100
AcDbEntity
  8
0
 62
   178
100
AcDbLine
 10
-770.6415713479856
 20
46.59500576749119
 30
0.0
 11
-746.6415713479857
 21
46.59500576749119
 31
0.0
  0
LINE
  5
137
330
1F
100
AcDbEntity
  8
0
 62
   178
100
AcDbLine
 10
-746.6415713479857
 20
46.59500576749119
 30
0.0
 11
-746.6415713479857
 21
26.59500576749114
 31
0.0
  0
LINE
  5
138
330
1F
100
AcDbEntity
  8
0
 62
   178
100
AcDbLine
 10
-746.6415713479857
 20
-3.404994232509079
 30
0.0
 11
-770.6415713479856
 21
-3.404994232509085
 31
0.0
  0
LINE
  5
139
330
1F
100
AcDbEntity
  8
0
 62
   178
100
AcDbLine
 10
-770.6415713479856
 20
-3.404994232509085
 30
0.0
 11
-770.6415713479856
 21
16.59500576749097
 31
0.0
  0
LINE
  5
13A
330
1F
100
AcDbEntity
  8
0
 62
   178
100
AcDbLine
 10
-770.6415713479856
 20
16.59500576749097
 30
0.0
 11
-746.6415713479857
 21
16.59500576749097
 31
0.0
  0
LINE
  5
13B
330
1F
100
AcDbEntity
  8
0
 62
   178
100
AcDbLine
 10
-746.6415713479857
 20
16.59500576749097
 30
0.0
 11
-746.6415713479857
 21
-3.404994232509079
 31
0.0
  0
LINE
  5
13C
330
1F
100
AcDbEntity
  8
0
 62
   178
100
AcDbLine
 10
-746.6415713479857
 20
-32.40499423250898
 30
0.0
 11
-770.6415713479856
 21
-32.40499423250898
 31
0.0
  0
LINE
  5
13D
330
1F
100
AcDbEntity
  8
0
 62
   178
100
AcDbLine
 10
-770.6415713479856
 20
-32.40499423250898
 30
0.0
 11
-770.6415713479856
 21
-12.40499423250893
 31
0.0
  0
LINE
  5
13E
330
1F
100
AcDbEntity
  8
0
 62
   178
100
AcDbLine
 10
-770.6415713479856
 20
-12.40499423250893
 30
0.0
 11
-746.6415713479857
 21
-12.40499423250893
 31
0.0
  0
LINE
  5
13F
330
1F
100
AcDbEntity
  8
0
 62
   178
100
AcDbLine
 10
-746.6415713479857
 20
-12.40499423250893
 30
0.0
 11
-746.6415713479857
 21
-32.40499423250898
 31
0.0
  0
LINE
  5
140
330
1F
100
AcDbEntity
  8
0
 62
   178
100
AcDbLine
 10
-786.6329130530536
 20
-32.27740055805008
 30
0.0
 11
-810.6329130530535
 21
-32.27740055805008
 31
0.0
  0
LINE
  5
141
330
1F
100
AcDbEntity
  8
0
 62
   178
100
AcDbLine
 10
-810.6329130530535
 20
-32.27740055805008
 30
0.0
 11
-810.6329130530535
 21
-12.27740055805003
 31
0.0
  0
LINE
  5
142
330
1F
100
AcDbEntity
  8
0
 62
   178
100
AcDbLine
 10
-810.6329130530535
 20
-12.27740055805003
 30
0.0
 11
-786.6329130530536
 21
-12.27740055805003
 31
0.0
  0
LINE
  5
143
330
1F
100
AcDbEntity
  8
0
 62
   178
100
AcDbLine
 10
-786.6329130530536
 20
-12.27740055805003
 30
0.0
 11
-786.6329130530536
 21
-32.27740055805008
 31
0.0
  0
LINE
  5
144
330
1F
100
AcDbEntity
  8
0
 62
   178
100
AcDbLine
 10
-786.6329130530534
 20
-62.27740055805003
 30
0.0
 11
-810.6329130530534
 21
-62.27740055805003
 31
0.0
  0
LINE
  5
145
330
1F
100
AcDbEntity
  8
0
 62
   178
100
AcDbLine
 10
-810.6329130530534
 20
-62.27740055805003
 30
0.0
 11
-810.6329130530534
 21
-42.27740055804998
 31
0.0
  0
LINE
  5
146
330
1F
100
AcDbEntity
  8
0
 62
   178
100
AcDbLine
 10
-810.6329130530534
 20
-42.27740055804998
 30
0.0
 11
-786.6329130530534
 21
-42.27740055804997
 31
0.0
  0
LINE
  5
147
330
1F
100
AcDbEntity
  8
0
 62
   178
100
AcDbLine
 10
-786.6329130530534
 20
-42.27740055804997
 30
0.0
 11
-786.6329130530534
 21
-62.27740055805003
 31
0.0
  0
LINE
  5
148
330
1F
100
AcDbEntity
  8
0
 62
   178
100
AcDbLine
 10
-746.6415713479857
 20
-62.4049942325092
 30
0.0
 11
-770.6415713479856
 21
-62.40499423250921
 31
0.0
  0
LINE
  5
149
330
1F
100
AcDbEntity
  8
0
 62
   178
100
AcDbLine
 10
-770.6415713479856
 20
-62.40499423250921
 30
0.0
 11
-770.6415713479856
 21
-42.40499423250915
 31
0.0
  0
LINE
  5
14A
330
1F
100
AcDbEntity
  8
0
 62
   178
100
AcDbLine
 10
-770.6415713479856
 20
-42.40499423250915
 30
0.0
 11
-746.6415713479857
 21
-42.40499423250914
 31
0.0
  0
LINE
  5
14B
330
1F
100
AcDbEntity
  8
0
 62
   178
100
AcDbLine
 10
-746.6415713479857
 20
-42.40499423250914
 30
0.0
 11
-746.6415713479857
 21
-62.4049942325092
 31
0.0
  0
LINE
  5
14C
330
1F
100
AcDbEntity
  8
0
 62
   178
100
AcDbLine
 10
-701.6329130530536
 20
-32.27740055805008
 30
0.0
 11
-725.6329130530536
 21
-32.27740055805008
 31
0.0
  0
LINE
  5
14D
330
1F
100
AcDbEntity
  8
0
 62
   178
100
AcDbLine
 10
-725.6329130530536
 20
-32.27740055805008
 30
0.0
 11
-725.6329130530536
 21
-12.27740055805003
 31
0.0
  0
LINE
  5
14E
330
1F
100
AcDbEntity
  8
0
 62
   178
100
AcDbLine
 10
-725.6329130530536
 20
-12.27740055805003
 30
0.0
 11
-701.6329130530536
 21
-12.27740055805003
 31
0.0
  0
LINE
  5
14F
330
1F
100
AcDbEntity
  8
0
 62
   178
100
AcDbLine
 10
-701.6329130530536
 20
-12.27740055805003
 30
0.0
 11
-701.6329130530536
 21
-32.27740055805008
 31
0.0
  0
LINE
  5
150
330
1F
100
AcDbEntity
  8
0
 62
   178
100
AcDbLine
 10
-661.6415713479857
 20
-62.4049942325092
 30
0.0
 11
-685.6415713479857
 21
-62.40499423250921
 31
0.0
  0
LINE
  5
151
330
1F
100
AcDbEntity
  8
0
 62
   178
100
AcDbLine
 10
-685.6415713479857
 20
-62.40499423250921
 30
0.0
 11
-685.6415713479857
 21
-42.40499423250915
 31
0.0
  0
LINE
  5
152
330
1F
100
AcDbEntity
  8
0
 62
   178
100
AcDbLine
 10
-685.6415713479857
 20
-42.40499423250915
 30
0.0
 11
-661.6415713479857
 21
-42.40499423250914
 31
0.0
  0
LINE
  5
153
330
1F
100
AcDbEntity
  8
0
 62
   178
100
AcDbLine
 10
-661.6415713479857
 20
-42.40499423250914
 30
0.0
 11
-661.6415713479857
 21
-62.4049942325092
 31
0.0
  0
LINE
  5
154
330
1F
100
AcDbEntity
  8
0
 62
   178
100
AcDbLine
 10
-661.6415713479857
 20
-32.40499423250898
 30
0.0
 11
-685.6415713479857
 21
-32.40499423250898
 31
0.0
  0
LINE
  5
155
330
1F
100
AcDbEntity
  8
0
 62
   178
100
AcDbLine
 10
-685.6415713479857
 20
-32.40499423250898
 30
0.0
 11
-685.6415713479857
 21
-12.40499423250893
 31
0.0
  0
LINE
  5
156
330
1F
100
AcDbEntity
  8
0
 62
   178
100
AcDbLine
 10
-685.6415713479857
 20
-12.40499423250893
 30
0.0
 11
-661.6415713479857
 21
-12.40499423250893
 31
0.0
  0
LINE
  5
157
330
1F
100
AcDbEntity
  8
0
 62
   178
100
AcDbLine
 10
-661.6415713479857
 20
-12.40499423250893
 30
0.0
 11
-661.6415713479857
 21
-32.40499423250898
 31
0.0
  0
LINE
  5
158
330
1F
100
AcDbEntity
  8
0
 62
   178
100
AcDbLine
 10
-701.6329130530534
 20
-62.27740055805003
 30
0.0
 11
-725.6329130530534
 21
-62.27740055805003
 31
0.0
  0
LINE
  5
159
330
1F
100
AcDbEntity
  8
0
 62
   178
100
AcDbLine
 10
-725.6329130530534
 20
-62.27740055805003
 30
0.0
 11
-725.6329130530534
 21
-42.27740055804998
 31
0.0
  0
LINE
  5
15A
330
1F
100
AcDbEntity
  8
0
 62
   178
100
AcDbLine
 10
-725.6329130530534
 20
-42.27740055804998
 30
0.0
 11
-701.6329130530534
 21
-42.27740055804997
 31
0.0
  0
LINE
  5
15B
330
1F
100
AcDbEntity
  8
0
 62
   178
100
AcDbLine
 10
-701.6329130530534
 20
-42.27740055804997
 30
0.0
 11
-701.6329130530534
 21
-62.27740055805003
 31
0.0
  0
LINE
  5
15C
330
1F
100
AcDbEntity
  8
0
 62
   178
100
AcDbLine
 10
16.36708694694663
 20
29.72259944195008
 30
0.0
 11
-7.632913053053326
 21
29.72259944195007
 31
0.0
  0
LINE
  5
15D
330
1F
100
AcDbEntity
  8
0
 62
   178
100
AcDbLine
 10
-7.632913053053326
 20
29.72259944195007
 30
0.0
 11
-7.632913053053332
 21
49.72259944195012
 31
0.0
  0
LINE
  5
15E
330
1F
100
AcDbEntity
  8
0
 62
   178
100
AcDbLine
 10
-7.632913053053332
 20
49.72259944195012
 30
0.0
 11
16.36708694694662
 21
49.72259944195013
 31
0.0
  0
LINE
  5
15F
330
1F
100
AcDbEntity
  8
0
 62
   178
100
AcDbLine
 10
16.36708694694662
 20
49.72259944195013
 30
0.0
 11
16.36708694694663
 21
29.72259944195008
 31
0.0
  0
LINE
  5
160
330
1F
100
AcDbEntity
  8
0
 62
   178
100
AcDbLine
 10
760.141919876667
 20
238.5053682774567
 30
0.0
 11
560.141919876667
 21
238.5053682774276
 31
0.0
  0
LINE
  5
161
330
1F
100
AcDbEntity
  8
0
 62
   178
100
AcDbLine
 10
760.1419198766777
 20
165.2881357573401
 30
0.0
 11
760.141919876667
 21
238.5053682774567
 31
0.0
  0
LINE
  5
162
330
1F
100
AcDbEntity
  8
0
 62
   178
100
AcDbLine
 10
560.1419198766775
 20
165.288135757311
 30
0.0
 11
760.1419198766777
 21
165.2881357573401
 31
0.0
  0
LINE
  5
163
330
1F
100
AcDbEntity
  8
0
 62
   178
100
AcDbLine
 10
560.141919876667
 20
238.5053682774276
 30
0.0
 11
560.1419198766775
 21
165.288135757311
 31
0.0
  0
LINE
  5
164
330
1F
100
AcDbEntity
  8
0
 62
   178
100
AcDbLine
 10
730.1419198766735
 20
193.5053682774663
 30
0.0
 11
724.141919876677
 21
193.5053682774659
 31
0.0
  0
LINE
  5
165
330
1F
100
AcDbEntity
  8
0
 62
   178
100
AcDbLine
 10
590.1419198766736
 20
193.5053682774579
 30
0.0
 11
590.1419198766706
 21
213.5053682774456
 31
0.0
  0
LINE
  5
166
330
1F
100
AcDbEntity
  8
0
 62
   178
100
AcDbLine
 10
596.1419198766736
 20
193.5053682774485
 30
0.0
 11
590.1419198766736
 21
193.5053682774579
 31
0.0
  0
LINE
  5
167
330
1F
100
AcDbEntity
  8
0
 62
   178
100
AcDbLine
 10
724.141919876677
 20
193.5053682774659
 30
0.0
 11
724.1419198766706
 21
213.505368277464
 31
0.0
  0
LINE
  5
168
330
1F
100
AcDbEntity
  8
0
 62
   178
100
AcDbLine
 10
724.1419198766706
 20
213.505368277464
 30
0.0
 11
730.1419198766706
 21
213.5053682774649
 31
0.0
  0
LINE
  5
169
330
1F
100
AcDbEntity
  8
0
 62
   178
100
AcDbLine
 10
590.1419198766706
 20
213.5053682774456
 30
0.0
 11
596.1419198766706
 21
213.5053682774465
 31
0.0
  0
LINE
  5
16A
330
1F
100
AcDbEntity
  8
0
 62
   178
100
AcDbLine
 10
596.1419198766706
 20
213.5053682774465
 30
0.0
 11
596.1419198766736
 21
193.5053682774485
 31
0.0
  0
LINE
  5
16B
330
1F
100
AcDbEntity
  8
0
 62
   178
100
AcDbLine
 10
355.1419198766673
 20
241.5053682774515
 30
0.0
 11
555.1419198766672
 21
241.5053682774526
 31
0.0
  0
LINE
  5
16C
330
1F
100
AcDbEntity
  8
0
 62
   178
100
AcDbLine
 10
555.1419198766672
 20
241.5053682774526
 30
0.0
 11
555.1419198766669
 21
314.7226007975689
 31
0.0
  0
LINE
  5
16D
330
1F
100
AcDbEntity
  8
0
 62
   178
100
AcDbLine
 10
355.1419198766669
 20
314.7226007975678
 30
0.0
 11
355.1419198766673
 21
241.5053682774515
 31
0.0
  0
LINE
  5
16E
330
1F
100
AcDbEntity
  8
0
 62
   178
100
AcDbLine
 10
555.1419198766669
 20
314.7226007975689
 30
0.0
 11
355.1419198766669
 21
314.7226007975678
 31
0.0
  0
LINE
  5
16F
330
1F
100
AcDbEntity
  8
0
 62
   178
100
AcDbLine
 10
525.1419198766671
 20
266.5053682774677
 30
0.0
 11
519.1419198766671
 21
266.5053682774677
 31
0.0
  0
LINE
  5
170
330
1F
100
AcDbEntity
  8
0
 62
   178
100
AcDbLine
 10
391.141919876667
 20
286.505368277467
 30
0.0
 11
391.1419198766671
 21
266.5053682774782
 31
0.0
  0
LINE
  5
171
330
1F
100
AcDbEntity
  8
0
 62
   178
100
AcDbLine
 10
385.1419198766671
 20
266.5053682774781
 30
0.0
 11
385.1419198766671
 21
286.5053682774669
 31
0.0
  0
LINE
  5
172
330
1F
100
AcDbEntity
  8
0
 62
   178
100
AcDbLine
 10
519.1419198766671
 20
266.5053682774677
 30
0.0
 11
519.1419198766671
 21
286.5053682774671
 31
0.0
  0
LINE
  5
173
330
1F
100
AcDbEntity
  8
0
 62
   178
100
AcDbLine
 10
525.1419198766671
 20
286.5053682774671
 30
0.0
 11
525.1419198766671
 21
266.5053682774677
 31
0.0
  0
LINE
  5
174
330
1F
100
AcDbEntity
  8
0
 62
   178
100
AcDbLine
 10
519.1419198766671
 20
286.5053682774671
 30
0.0
 11
525.1419198766671
 21
286.5053682774671
 31
0.0
  0
LINE
  5
175
330
1F
100
AcDbEntity
  8
0
 62
   178
100
AcDbLine
 10
385.1419198766671
 20
286.5053682774669
 30
0.0
 11
391.141919876667
 21
286.505368277467
 31
0.0
  0
LINE
  5
176
330
1F
100
AcDbEntity
  8
0
 62
   178
100
AcDbLine
 10
391.1419198766671
 20
266.5053682774782
 30
0.0
 11
385.1419198766671
 21
266.5053682774781
 31
0.0
  0
LINE
  5
177
330
1F
100
AcDbEntity
  8
0
 62
   178
100
AcDbLine
 10
150.141919876667
 20
241.5053682774526
 30
0.0
 11
350.141919876667
 21
241.5053682774536
 31
0.0
  0
LINE
  5
178
330
1F
100
AcDbEntity
  8
0
 62
   178
100
AcDbLine
 10
350.141919876667
 20
241.5053682774536
 30
0.0
 11
350.1419198766666
 21
314.72260079757
 31
0.0
  0
LINE
  5
179
330
1F
100
AcDbEntity
  8
0
 62
   178
100
AcDbLine
 10
150.1419198766666
 20
314.7226007975689
 30
0.0
 11
150.141919876667
 21
241.5053682774526
 31
0.0
  0
LINE
  5
17A
330
1F
100
AcDbEntity
  8
0
 62
   178
100
AcDbLine
 10
350.1419198766666
 20
314.72260079757
 30
0.0
 11
150.1419198766666
 21
314.7226007975689
 31
0.0
  0
LINE
  5
17B
330
1F
100
AcDbEntity
  8
0
 62
   178
100
AcDbLine
 10
320.1419198766668
 20
266.5053682774688
 30
0.0
 11
314.1419198766668
 21
266.5053682774687
 31
0.0
  0
LINE
  5
17C
330
1F
100
AcDbEntity
  8
0
 62
   178
100
AcDbLine
 10
186.1419198766667
 20
286.5053682774681
 30
0.0
 11
186.1419198766668
 21
266.5053682774792
 31
0.0
  0
LINE
  5
17D
330
1F
100
AcDbEntity
  8
0
 62
   178
100
AcDbLine
 10
180.1419198766669
 20
266.5053682774792
 30
0.0
 11
180.1419198766667
 21
286.505368277468
 31
0.0
  0
LINE
  5
17E
330
1F
100
AcDbEntity
  8
0
 62
   178
100
AcDbLine
 10
314.1419198766668
 20
266.5053682774687
 30
0.0
 11
314.1419198766667
 21
286.5053682774682
 31
0.0
  0
LINE
  5
17F
330
1F
100
AcDbEntity
  8
0
 62
   178
100
AcDbLine
 10
320.1419198766667
 20
286.5053682774682
 30
0.0
 11
320.1419198766668
 21
266.5053682774688
 31
0.0
  0
LINE
  5
180
330
1F
100
AcDbEntity
  8
0
 62
   178
100
AcDbLine
 10
314.1419198766667
 20
286.5053682774682
 30
0.0
 11
320.1419198766667
 21
286.5053682774682
 31
0.0
  0
LINE
  5
181
330
1F
100
AcDbEntity
  8
0
 62
   178
100
AcDbLine
 10
180.1419198766667
 20
286.505368277468
 30
0.0
 11
186.1419198766667
 21
286.5053682774681
 31
0.0
  0
LINE
  5
182
330
1F
100
AcDbEntity
  8
0
 62
   178
100
AcDbLine
 10
186.1419198766668
 20
266.5053682774792
 30
0.0
 11
180.1419198766669
 21
266.5053682774792
 31
0.0
  0
LINE
  5
183
330
1F
100
AcDbEntity
  8
0
 62
   178
100
AcDbLine
 10
61.65476722336849
 20
114.8763731860989
 30
0.0
 11
61.65476722336727
 21
314.8763731860989
 31
0.0
  0
LINE
  5
184
330
1F
100
AcDbEntity
  8
0
 62
   178
100
AcDbLine
 10
61.65476722336727
 20
314.8763731860989
 30
0.0
 11
-11.56246529674912
 21
314.8763731860984
 31
0.0
  0
LINE
  5
185
330
1F
100
AcDbEntity
  8
0
 62
   178
100
AcDbLine
 10
-11.5624652967479
 20
114.8763731860984
 30
0.0
 11
61.65476722336849
 21
114.8763731860989
 31
0.0
  0
LINE
  5
186
330
1F
100
AcDbEntity
  8
0
 62
   178
100
AcDbLine
 10
-11.56246529674912
 20
314.8763731860984
 30
0.0
 11
-11.5624652967479
 21
114.8763731860984
 31
0.0
  0
LINE
  5
187
330
1F
100
AcDbEntity
  8
0
 62
   178
100
AcDbLine
 10
36.65476722335211
 20
284.8763731860988
 30
0.0
 11
36.65476722335215
 21
278.8763731860988
 31
0.0
  0
LINE
  5
188
330
1F
100
AcDbEntity
  8
0
 62
   178
100
AcDbLine
 10
16.65476722335298
 20
150.8763731860986
 30
0.0
 11
36.65476722334176
 21
150.8763731860987
 31
0.0
  0
LINE
  5
189
330
1F
100
AcDbEntity
  8
0
 62
   178
100
AcDbLine
 10
36.65476722334181
 20
144.8763731860987
 30
0.0
 11
16.65476722335302
 21
144.8763731860986
 31
0.0
  0
LINE
  5
18A
330
1F
100
AcDbEntity
  8
0
 62
   178
100
AcDbLine
 10
36.65476722335215
 20
278.8763731860988
 30
0.0
 11
16.65476722335274
 21
278.8763731860986
 31
0.0
  0
LINE
  5
18B
330
1F
100
AcDbEntity
  8
0
 62
   178
100
AcDbLine
 10
16.6547672233527
 20
284.8763731860986
 30
0.0
 11
36.65476722335211
 21
284.8763731860988
 31
0.0
  0
LINE
  5
18C
330
1F
100
AcDbEntity
  8
0
 62
   178
100
AcDbLine
 10
16.65476722335274
 20
278.8763731860986
 30
0.0
 11
16.6547672233527
 21
284.8763731860986
 31
0.0
  0
LINE
  5
18D
330
1F
100
AcDbEntity
  8
0
 62
   178
100
AcDbLine
 10
16.65476722335302
 20
144.8763731860986
 30
0.0
 11
16.65476722335298
 21
150.8763731860986
 31
0.0
  0
LINE
  5
18E
330
1F
100
AcDbEntity
  8
0
 62
   178
100
AcDbLine
 10
36.65476722334176
 20
150.8763731860987
 30
0.0
 11
36.65476722334181
 21
144.8763731860987
 31
0.0
  0
LINE
  5
18F
330
1F
100
AcDbEntity
  8
0
 62
   178
100
AcDbLine
 10
56.35842865201412
 20
89.59500576749178
 30
0.0
 11
32.35842865201416
 21
89.59500576749178
 31
0.0
  0
LINE
  5
190
330
1F
100
AcDbEntity
  8
0
 62
   178
100
AcDbLine
 10
32.35842865201416
 20
89.59500576749178
 30
0.0
 11
32.35842865201415
 21
109.5950057674918
 31
0.0
  0
LINE
  5
191
330
1F
100
AcDbEntity
  8
0
 62
   178
100
AcDbLine
 10
32.35842865201415
 20
109.5950057674918
 30
0.0
 11
56.35842865201412
 21
109.5950057674918
 31
0.0
  0
LINE
  5
192
330
1F
100
AcDbEntity
  8
0
 62
   178
100
AcDbLine
 10
56.35842865201412
 20
109.5950057674918
 30
0.0
 11
56.35842865201412
 21
89.59500576749178
 31
0.0
  0
LINE
  5
193
330
1F
100
AcDbEntity
  8
0
 62
   178
100
AcDbLine
 10
16.36708694694663
 20
59.72259944195156
 30
0.0
 11
-7.632913053053326
 21
59.72259944195154
 31
0.0
  0
LINE
  5
194
330
1F
100
AcDbEntity
  8
0
 62
   178
100
AcDbLine
 10
-7.632913053053326
 20
59.72259944195154
 30
0.0
 11
-7.632913053053332
 21
79.72259944195162
 31
0.0
  0
LINE
  5
195
330
1F
100
AcDbEntity
  8
0
 62
   178
100
AcDbLine
 10
-7.632913053053332
 20
79.72259944195162
 30
0.0
 11
16.36708694694662
 21
79.72259944195162
 31
0.0
  0
LINE
  5
196
330
1F
100
AcDbEntity
  8
0
 62
   178
100
AcDbLine
 10
16.36708694694662
 20
79.72259944195162
 30
0.0
 11
16.36708694694663
 21
59.72259944195156
 31
0.0
  0
LINE
  5
197
330
1F
100
AcDbEntity
  8
0
 62
   178
100
AcDbLine
 10
56.35842865201412
 20
59.59500576749121
 30
0.0
 11
32.35842865201416
 21
59.5950057674912
 31
0.0
  0
LINE
  5
198
330
1F
100
AcDbEntity
  8
0
 62
   178
100
AcDbLine
 10
32.35842865201416
 20
59.5950057674912
 30
0.0
 11
32.35842865201415
 21
79.59500576749126
 31
0.0
  0
LINE
  5
199
330
1F
100
AcDbEntity
  8
0
 62
   178
100
AcDbLine
 10
32.35842865201415
 20
79.59500576749126
 30
0.0
 11
56.35842865201412
 21
79.59500576749126
 31
0.0
  0
LINE
  5
19A
330
1F
100
AcDbEntity
  8
0
 62
   178
100
AcDbLine
 10
56.35842865201412
 20
79.59500576749126
 30
0.0
 11
56.35842865201412
 21
59.59500576749121
 31
0.0
  0
LINE
  5
19B
330
1F
100
AcDbEntity
  8
0
 62
   178
100
AcDbLine
 10
71.92468735654803
 20
314.7226007975582
 30
0.0
 11
71.92468735657727
 21
114.7226007975583
 31
0.0
  0
LINE
  5
19C
330
1F
100
AcDbEntity
  8
0
 62
   178
100
AcDbLine
 10
145.1419198766646
 20
314.7226007975689
 30
0.0
 11
71.92468735654803
 21
314.7226007975582
 31
0.0
  0
LINE
  5
19D
330
1F
100
AcDbEntity
  8
0
 62
   178
100
AcDbLine
 10
145.1419198766938
 20
114.7226007975689
 30
0.0
 11
145.1419198766646
 21
314.7226007975689
 31
0.0
  0
LINE
  5
19E
330
1F
100
AcDbEntity
  8
0
 62
   178
100
AcDbLine
 10
71.92468735657727
 20
114.7226007975583
 30
0.0
 11
145.1419198766938
 21
114.7226007975689
 31
0.0
  0
LINE
  5
19F
330
1F
100
AcDbEntity
  8
0
 62
   178
100
AcDbLine
 10
116.9246873565384
 20
284.7226007975648
 30
0.0
 11
116.9246873565389
 21
278.7226007975683
 31
0.0
  0
LINE
  5
1A0
330
1F
100
AcDbEntity
  8
0
 62
   178
100
AcDbLine
 10
116.924687356547
 20
144.7226007975648
 30
0.0
 11
96.92468735655923
 21
144.7226007975619
 31
0.0
  0
LINE
  5
1A1
330
1F
100
AcDbEntity
  8
0
 62
   178
100
AcDbLine
 10
116.9246873565563
 20
150.7226007975648
 30
0.0
 11
116.924687356547
 21
144.7226007975648
 31
0.0
  0
LINE
  5
1A2
330
1F
100
AcDbEntity
  8
0
 62
   178
100
AcDbLine
 10
116.9246873565389
 20
278.7226007975683
 30
0.0
 11
96.92468735654072
 21
278.7226007975619
 31
0.0
  0
LINE
  5
1A3
330
1F
100
AcDbEntity
  8
0
 62
   178
100
AcDbLine
 10
96.92468735654072
 20
278.7226007975619
 30
0.0
 11
96.92468735653983
 21
284.7226007975619
 31
0.0
  0
LINE
  5
1A4
330
1F
100
AcDbEntity
  8
0
 62
   178
100
AcDbLine
 10
96.92468735655923
 20
144.7226007975619
 30
0.0
 11
96.92468735655837
 21
150.7226007975619
 31
0.0
  0
LINE
  5
1A5
330
1F
100
AcDbEntity
  8
0
 62
   178
100
AcDbLine
 10
96.92468735655837
 20
150.7226007975619
 30
0.0
 11
116.9246873565563
 21
150.7226007975648
 31
0.0
  0
LINE
  5
1A6
330
1F
100
AcDbEntity
  8
0
 62
   178
100
AcDbLine
 10
555.1419198766671
 20
238.5053682774556
 30
0.0
 11
355.141919876667
 21
238.5053682774265
 31
0.0
  0
LINE
  5
1A7
330
1F
100
AcDbEntity
  8
0
 62
   178
100
AcDbLine
 10
555.1419198766777
 20
165.288135757339
 30
0.0
 11
555.1419198766671
 21
238.5053682774556
 31
0.0
  0
LINE
  5
1A8
330
1F
100
AcDbEntity
  8
0
 62
   178
100
AcDbLine
 10
355.1419198766777
 20
165.28813575731
 30
0.0
 11
555.1419198766777
 21
165.288135757339
 31
0.0
  0
LINE
  5
1A9
330
1F
100
AcDbEntity
  8
0
 62
   178
100
AcDbLine
 10
355.141919876667
 20
238.5053682774265
 30
0.0
 11
355.1419198766777
 21
165.28813575731
 31
0.0
  0
LINE
  5
1AA
330
1F
100
AcDbEntity
  8
0
 62
   178
100
AcDbLine
 10
525.1419198766736
 20
193.5053682774652
 30
0.0
 11
519.1419198766771
 21
193.5053682774648
 31
0.0
  0
LINE
  5
1AB
330
1F
100
AcDbEntity
  8
0
 62
   178
100
AcDbLine
 10
385.1419198766736
 20
193.5053682774568
 30
0.0
 11
385.1419198766707
 21
213.5053682774445
 31
0.0
  0
LINE
  5
1AC
330
1F
100
AcDbEntity
  8
0
 62
   178
100
AcDbLine
 10
391.1419198766736
 20
193.5053682774474
 30
0.0
 11
385.1419198766736
 21
193.5053682774568
 31
0.0
  0
LINE
  5
1AD
330
1F
100
AcDbEntity
  8
0
 62
   178
100
AcDbLine
 10
519.1419198766771
 20
193.5053682774648
 30
0.0
 11
519.1419198766706
 21
213.5053682774629
 31
0.0
  0
LINE
  5
1AE
330
1F
100
AcDbEntity
  8
0
 62
   178
100
AcDbLine
 10
519.1419198766706
 20
213.5053682774629
 30
0.0
 11
525.1419198766706
 21
213.5053682774638
 31
0.0
  0
LINE
  5
1AF
330
1F
100
AcDbEntity
  8
0
 62
   178
100
AcDbLine
 10
385.1419198766707
 20
213.5053682774445
 30
0.0
 11
391.1419198766707
 21
213.5053682774454
 31
0.0
  0
LINE
  5
1B0
330
1F
100
AcDbEntity
  8
0
 62
   178
100
AcDbLine
 10
391.1419198766707
 20
213.5053682774454
 30
0.0
 11
391.1419198766736
 21
193.5053682774474
 31
0.0
  0
LINE
  5
1B1
330
1F
100
AcDbEntity
  8
0
 62
   178
100
AcDbLine
 10
16.36708694694663
 20
-0.2774005580499576
 30
0.0
 11
-7.632913053053326
 21
-0.2774005580499636
 31
0.0
  0
LINE
  5
1B2
330
1F
100
AcDbEntity
  8
0
 62
   178
100
AcDbLine
 10
-7.632913053053326
 20
-0.2774005580499636
 30
0.0
 11
-7.632913053053332
 21
19.72259944195009
 31
0.0
  0
LINE
  5
1B3
330
1F
100
AcDbEntity
  8
0
 62
   178
100
AcDbLine
 10
-7.632913053053332
 20
19.72259944195009
 30
0.0
 11
16.36708694694662
 21
19.72259944195009
 31
0.0
  0
LINE
  5
1B4
330
1F
100
AcDbEntity
  8
0
 62
   178
100
AcDbLine
 10
16.36708694694662
 20
19.72259944195009
 30
0.0
 11
16.36708694694663
 21
-0.2774005580499576
 31
0.0
  0
LINE
  5
1B5
330
1F
100
AcDbEntity
  8
0
 62
   178
100
AcDbLine
 10
56.35842865201448
 20
-29.40499423250894
 30
0.0
 11
32.35842865201452
 21
-29.40499423250895
 31
0.0
  0
LINE
  5
1B6
330
1F
100
AcDbEntity
  8
0
 62
   178
100
AcDbLine
 10
32.35842865201452
 20
-29.40499423250895
 30
0.0
 11
32.35842865201452
 21
-9.404994232508892
 31
0.0
  0
LINE
  5
1B7
330
1F
100
AcDbEntity
  8
0
 62
   178
100
AcDbLine
 10
32.35842865201452
 20
-9.404994232508892
 30
0.0
 11
56.35842865201448
 21
-9.404994232508887
 31
0.0
  0
LINE
  5
1B8
330
1F
100
AcDbEntity
  8
0
 62
   178
100
AcDbLine
 10
56.35842865201448
 20
-9.404994232508887
 30
0.0
 11
56.35842865201448
 21
-29.40499423250894
 31
0.0
  0
LINE
  5
1B9
330
1F
100
AcDbEntity
  8
0
 62
   178
100
AcDbLine
 10
555.1419198766777
 20
-67.36356180300812
 30
0.0
 11
355.1419198766777
 21
-67.36356180300821
 31
0.0
  0
LINE
  5
1BA
330
1F
100
AcDbEntity
  8
0
 62
   178
100
AcDbLine
 10
555.1419198766777
 20
5.853670717107366
 30
0.0
 11
555.1419198766777
 21
-67.36356180300812
 31
0.0
  0
LINE
  5
1BB
330
1F
100
AcDbEntity
  8
0
 62
   178
100
AcDbLine
 10
355.1419198766777
 20
5.853670717107016
 30
0.0
 11
394.3922752128883
 21
5.853670717107569
 31
0.0
  0
LINE
  5
1BC
330
1F
100
AcDbEntity
  8
0
 62
   178
100
AcDbLine
 10
355.1419198766777
 20
-67.36356180300821
 30
0.0
 11
355.1419198766777
 21
5.853670717107016
 31
0.0
  0
LINE
  5
1BD
330
1F
100
AcDbEntity
  8
0
 62
   178
100
AcDbLine
 10
385.1419198766778
 20
-19.1463292828843
 30
0.0
 11
385.1419198766778
 21
-39.14632928288363
 31
0.0
  0
LINE
  5
1BE
330
1F
100
AcDbEntity
  8
0
 62
   178
100
AcDbLine
 10
391.1419198766777
 20
-39.14632928288363
 30
0.0
 11
391.1419198766777
 21
-19.1463292828843
 31
0.0
  0
LINE
  5
1BF
330
1F
100
AcDbEntity
  8
0
 62
   178
100
AcDbLine
 10
385.1419198766778
 20
-39.14632928288363
 30
0.0
 11
391.1419198766777
 21
-39.14632928288363
 31
0.0
  0
LINE
  5
1C0
330
1F
100
AcDbEntity
  8
0
 62
   178
100
AcDbLine
 10
391.1419198766777
 20
-19.1463292828843
 30
0.0
 11
385.1419198766778
 21
-19.1463292828843
 31
0.0
  0
LINE
  5
1C1
330
1F
100
AcDbEntity
  8
0
 62
   178
100
AcDbLine
 10
525.1419198766777
 20
-19.1463292828841
 30
0.0
 11
519.1419198766777
 21
-19.14632928288414
 31
0.0
  0
LINE
  5
1C2
330
1F
100
AcDbEntity
  8
0
 62
   178
100
AcDbLine
 10
525.1419198766778
 20
-39.14632928288331
 30
0.0
 11
525.1419198766777
 21
-19.1463292828841
 31
0.0
  0
LINE
  5
1C3
330
1F
100
AcDbEntity
  8
0
 62
   178
100
AcDbLine
 10
519.1419198766778
 20
-39.14632928288331
 30
0.0
 11
525.1419198766778
 21
-39.14632928288331
 31
0.0
  0
LINE
  5
1C4
330
1F
100
AcDbEntity
  8
0
 62
   178
100
AcDbLine
 10
519.1419198766777
 20
-19.14632928288414
 30
0.0
 11
519.1419198766778
 21
-39.14632928288331
 31
0.0
  0
LINE
  5
1C5
330
1F
100
AcDbEntity
  8
0
 62
   178
100
AcDbLine
 10
421.3922752128883
 20
0.8281556897705642
 30
0.0
 11
394.3922752128883
 21
0.8281556897704683
 31
0.0
  0
LINE
  5
1C6
330
1F
100
AcDbEntity
  8
0
 62
   178
100
AcDbLine
 10
394.3922752128883
 20
0.8281556897704683
 30
0.0
 11
394.3922752128883
 21
5.853670717107569
 31
0.0
  0
LINE
  5
1C7
330
1F
100
AcDbEntity
  8
0
 62
   178
100
AcDbLine
 10
421.3922752128883
 20
5.85367071710753
 30
0.0
 11
555.1419198766777
 21
5.853670717107366
 31
0.0
  0
LINE
  5
1C8
330
1F
100
AcDbEntity
  8
0
 62
   178
100
AcDbLine
 10
421.3922752128883
 20
5.85367071710753
 30
0.0
 11
421.3922752128883
 21
0.8281556897705642
 31
0.0
  0
LINE
  5
1C9
330
1F
100
AcDbEntity
  8
0
 62
   178
100
AcDbLine
 10
16.36708694694663
 20
89.72259944195177
 30
0.0
 11
-7.632913053053326
 21
89.72259944195176
 31
0.0
  0
LINE
  5
1CA
330
1F
100
AcDbEntity
  8
0
 62
   178
100
AcDbLine
 10
-7.632913053053326
 20
89.72259944195176
 30
0.0
 11
-7.632913053053332
 21
109.7225994419518
 31
0.0
  0
LINE
  5
1CB
330
1F
100
AcDbEntity
  8
0
 62
   178
100
AcDbLine
 10
-7.632913053053332
 20
109.7225994419518
 30
0.0
 11
16.36708694694662
 21
109.7225994419518
 31
0.0
  0
LINE
  5
1CC
330
1F
100
AcDbEntity
  8
0
 62
   178
100
AcDbLine
 10
16.36708694694662
 20
109.7225994419518
 30
0.0
 11
16.36708694694663
 21
89.72259944195177
 31
0.0
  0
LINE
  5
1CD
330
1F
100
AcDbEntity
  8
0
 62
   178
100
AcDbLine
 10
350.1419198766778
 20
89.07090323722299
 30
0.0
 11
216.3922752128884
 21
89.07090323722295
 31
0.0
  0
LINE
  5
1CE
330
1F
100
AcDbEntity
  8
0
 62
   178
100
AcDbLine
 10
150.1419198766778
 20
89.07090323722305
 30
0.0
 11
150.1419198766778
 21
162.2881357573379
 31
0.0
  0
LINE
  5
1CF
330
1F
100
AcDbEntity
  8
0
 62
   178
100
AcDbLine
 10
350.1419198766778
 20
162.2881357573379
 30
0.0
 11
350.1419198766778
 21
89.07090323722299
 31
0.0
  0
LINE
  5
1D0
330
1F
100
AcDbEntity
  8
0
 62
   178
100
AcDbLine
 10
150.1419198766778
 20
162.2881357573379
 30
0.0
 11
350.1419198766778
 21
162.2881357573379
 31
0.0
  0
LINE
  5
1D1
330
1F
100
AcDbEntity
  8
0
 62
   178
100
AcDbLine
 10
186.1419198766777
 20
134.070903237224
 30
0.0
 11
180.1419198766777
 21
134.070903237224
 31
0.0
  0
LINE
  5
1D2
330
1F
100
AcDbEntity
  8
0
 62
   178
100
AcDbLine
 10
186.1419198766777
 20
114.0709032372251
 30
0.0
 11
186.1419198766777
 21
134.070903237224
 31
0.0
  0
LINE
  5
1D3
330
1F
100
AcDbEntity
  8
0
 62
   178
100
AcDbLine
 10
180.1419198766777
 20
134.070903237224
 30
0.0
 11
180.1419198766778
 21
114.0709032372251
 31
0.0
  0
LINE
  5
1D4
330
1F
100
AcDbEntity
  8
0
 62
   178
100
AcDbLine
 10
180.1419198766778
 20
114.0709032372251
 30
0.0
 11
186.1419198766777
 21
114.0709032372251
 31
0.0
  0
LINE
  5
1D5
330
1F
100
AcDbEntity
  8
0
 62
   178
100
AcDbLine
 10
314.1419198766778
 20
114.070903237226
 30
0.0
 11
320.1419198766777
 21
114.070903237226
 31
0.0
  0
LINE
  5
1D6
330
1F
100
AcDbEntity
  8
0
 62
   178
100
AcDbLine
 10
320.1419198766777
 20
134.070903237224
 30
0.0
 11
314.1419198766778
 21
134.0709032372239
 31
0.0
  0
LINE
  5
1D7
330
1F
100
AcDbEntity
  8
0
 62
   178
100
AcDbLine
 10
320.1419198766777
 20
114.070903237226
 30
0.0
 11
320.1419198766777
 21
134.070903237224
 31
0.0
  0
LINE
  5
1D8
330
1F
100
AcDbEntity
  8
0
 62
   178
100
AcDbLine
 10
314.1419198766778
 20
134.0709032372239
 30
0.0
 11
314.1419198766778
 21
114.070903237226
 31
0.0
  0
LINE
  5
1D9
330
1F
100
AcDbEntity
  8
0
 62
   178
100
AcDbLine
 10
216.3922752128884
 20
93.04538820987442
 30
0.0
 11
216.3922752128884
 21
89.07090323722295
 31
0.0
  0
LINE
  5
1DA
330
1F
100
AcDbEntity
  8
0
 62
   178
100
AcDbLine
 10
189.3922752128884
 20
93.04538820987432
 30
0.0
 11
216.3922752128884
 21
93.04538820987442
 31
0.0
  0
LINE
  5
1DB
330
1F
100
AcDbEntity
  8
0
 62
   178
100
AcDbLine
 10
189.3922752128884
 20
89.07090323722299
 30
0.0
 11
189.3922752128884
 21
93.04538820987432
 31
0.0
  0
LINE
  5
1DC
330
1F
100
AcDbEntity
  8
0
 62
   178
100
AcDbLine
 10
189.3922752128884
 20
89.07090323722299
 30
0.0
 11
150.1419198766778
 21
89.07090323722305
 31
0.0
  0
LINE
  5
1DD
330
1F
100
AcDbEntity
  8
0
 62
   178
100
AcDbLine
 10
350.1419198766671
 20
238.5053682774567
 30
0.0
 11
150.1419198766671
 21
238.5053682774276
 31
0.0
  0
LINE
  5
1DE
330
1F
100
AcDbEntity
  8
0
 62
   178
100
AcDbLine
 10
350.1419198766777
 20
165.2881357573401
 30
0.0
 11
350.1419198766671
 21
238.5053682774567
 31
0.0
  0
LINE
  5
1DF
330
1F
100
AcDbEntity
  8
0
 62
   178
100
AcDbLine
 10
150.1419198766777
 20
165.288135757311
 30
0.0
 11
350.1419198766777
 21
165.2881357573401
 31
0.0
  0
LINE
  5
1E0
330
1F
100
AcDbEntity
  8
0
 62
   178
100
AcDbLine
 10
150.1419198766671
 20
238.5053682774276
 30
0.0
 11
150.1419198766777
 21
165.288135757311
 31
0.0
  0
LINE
  5
1E1
330
1F
100
AcDbEntity
  8
0
 62
   178
100
AcDbLine
 10
320.1419198766736
 20
193.5053682774663
 30
0.0
 11
314.1419198766771
 21
193.5053682774659
 31
0.0
  0
LINE
  5
1E2
330
1F
100
AcDbEntity
  8
0
 62
   178
100
AcDbLine
 10
180.1419198766737
 20
193.5053682774579
 30
0.0
 11
180.1419198766707
 21
213.5053682774456
 31
0.0
  0
LINE
  5
1E3
330
1F
100
AcDbEntity
  8
0
 62
   178
100
AcDbLine
 10
186.1419198766736
 20
193.5053682774485
 30
0.0
 11
180.1419198766737
 21
193.5053682774579
 31
0.0
  0
LINE
  5
1E4
330
1F
100
AcDbEntity
  8
0
 62
   178
100
AcDbLine
 10
314.1419198766771
 20
193.5053682774659
 30
0.0
 11
314.1419198766707
 21
213.505368277464
 31
0.0
  0
LINE
  5
1E5
330
1F
100
AcDbEntity
  8
0
 62
   178
100
AcDbLine
 10
314.1419198766707
 20
213.505368277464
 30
0.0
 11
320.1419198766707
 21
213.5053682774649
 31
0.0
  0
LINE
  5
1E6
330
1F
100
AcDbEntity
  8
0
 62
   178
100
AcDbLine
 10
180.1419198766707
 20
213.5053682774456
 30
0.0
 11
186.1419198766707
 21
213.5053682774465
 31
0.0
  0
LINE
  5
1E7
330
1F
100
AcDbEntity
  8
0
 62
   178
100
AcDbLine
 10
186.1419198766707
 20
213.5053682774465
 30
0.0
 11
186.1419198766736
 21
193.5053682774485
 31
0.0
  0
LINE
  5
1E8
330
1F
100
AcDbEntity
  8
0
 62
   178
100
AcDbLine
 10
56.35842865201448
 20
29.59500576749118
 30
0.0
 11
32.35842865201452
 21
29.59500576749117
 31
0.0
  0
LINE
  5
1E9
330
1F
100
AcDbEntity
  8
0
 62
   178
100
AcDbLine
 10
32.35842865201452
 20
29.59500576749117
 30
0.0
 11
32.35842865201452
 21
49.59500576749122
 31
0.0
  0
LINE
  5
1EA
330
1F
100
AcDbEntity
  8
0
 62
   178
100
AcDbLine
 10
32.35842865201452
 20
49.59500576749122
 30
0.0
 11
56.35842865201448
 21
49.59500576749123
 31
0.0
  0
LINE
  5
1EB
330
1F
100
AcDbEntity
  8
0
 62
   178
100
AcDbLine
 10
56.35842865201448
 20
49.59500576749123
 30
0.0
 11
56.35842865201448
 21
29.59500576749118
 31
0.0
  0
LINE
  5
1EC
330
1F
100
AcDbEntity
  8
0
 62
   178
100
AcDbLine
 10
760.1419198766777
 20
-67.36356180300812
 30
0.0
 11
560.1419198766777
 21
-67.36356180300821
 31
0.0
  0
LINE
  5
1ED
330
1F
100
AcDbEntity
  8
0
 62
   178
100
AcDbLine
 10
760.1419198766777
 20
5.853670717107366
 30
0.0
 11
760.1419198766777
 21
-67.36356180300812
 31
0.0
  0
LINE
  5
1EE
330
1F
100
AcDbEntity
  8
0
 62
   178
100
AcDbLine
 10
560.1419198766777
 20
5.853670717107016
 30
0.0
 11
599.3922752128883
 21
5.853670717107569
 31
0.0
  0
LINE
  5
1EF
330
1F
100
AcDbEntity
  8
0
 62
   178
100
AcDbLine
 10
560.1419198766777
 20
-67.36356180300821
 30
0.0
 11
560.1419198766777
 21
5.853670717107016
 31
0.0
  0
LINE
  5
1F0
330
1F
100
AcDbEntity
  8
0
 62
   178
100
AcDbLine
 10
590.1419198766777
 20
-19.1463292828843
 30
0.0
 11
590.1419198766777
 21
-39.14632928288363
 31
0.0
  0
LINE
  5
1F1
330
1F
100
AcDbEntity
  8
0
 62
   178
100
AcDbLine
 10
596.1419198766777
 20
-39.14632928288363
 30
0.0
 11
596.1419198766775
 21
-19.1463292828843
 31
0.0
  0
LINE
  5
1F2
330
1F
100
AcDbEntity
  8
0
 62
   178
100
AcDbLine
 10
590.1419198766777
 20
-39.14632928288363
 30
0.0
 11
596.1419198766777
 21
-39.14632928288363
 31
0.0
  0
LINE
  5
1F3
330
1F
100
AcDbEntity
  8
0
 62
   178
100
AcDbLine
 10
596.1419198766775
 20
-19.1463292828843
 30
0.0
 11
590.1419198766777
 21
-19.1463292828843
 31
0.0
  0
LINE
  5
1F4
330
1F
100
AcDbEntity
  8
0
 62
   178
100
AcDbLine
 10
730.1419198766777
 20
-19.1463292828841
 30
0.0
 11
724.1419198766777
 21
-19.14632928288414
 31
0.0
  0
LINE
  5
1F5
330
1F
100
AcDbEntity
  8
0
 62
   178
100
AcDbLine
 10
730.1419198766777
 20
-39.14632928288331
 30
0.0
 11
730.1419198766777
 21
-19.1463292828841
 31
0.0
  0
LINE
  5
1F6
330
1F
100
AcDbEntity
  8
0
 62
   178
100
AcDbLine
 10
724.1419198766778
 20
-39.14632928288331
 30
0.0
 11
730.1419198766777
 21
-39.14632928288331
 31
0.0
  0
LINE
  5
1F7
330
1F
100
AcDbEntity
  8
0
 62
   178
100
AcDbLine
 10
724.1419198766777
 20
-19.14632928288414
 30
0.0
 11
724.1419198766778
 21
-39.14632928288331
 31
0.0
  0
LINE
  5
1F8
330
1F
100
AcDbEntity
  8
0
 62
   178
100
AcDbLine
 10
626.3922752128883
 20
0.8281556897705642
 30
0.0
 11
599.3922752128883
 21
0.8281556897704683
 31
0.0
  0
LINE
  5
1F9
330
1F
100
AcDbEntity
  8
0
 62
   178
100
AcDbLine
 10
599.3922752128883
 20
0.8281556897704683
 30
0.0
 11
599.3922752128883
 21
5.853670717107569
 31
0.0
  0
LINE
  5
1FA
330
1F
100
AcDbEntity
  8
0
 62
   178
100
AcDbLine
 10
626.3922752128883
 20
5.85367071710753
 30
0.0
 11
760.1419198766777
 21
5.853670717107366
 31
0.0
  0
LINE
  5
1FB
330
1F
100
AcDbEntity
  8
0
 62
   178
100
AcDbLine
 10
626.3922752128883
 20
5.85367071710753
 30
0.0
 11
626.3922752128883
 21
0.8281556897705642
 31
0.0
  0
LINE
  5
1FC
330
1F
100
AcDbEntity
  8
0
 62
   178
100
AcDbLine
 10
560.1419198766669
 20
241.5053682774526
 30
0.0
 11
760.1419198766669
 21
241.5053682774536
 31
0.0
  0
LINE
  5
1FD
330
1F
100
AcDbEntity
  8
0
 62
   178
100
AcDbLine
 10
760.1419198766669
 20
241.5053682774536
 30
0.0
 11
760.1419198766665
 21
314.72260079757
 31
0.0
  0
LINE
  5
1FE
330
1F
100
AcDbEntity
  8
0
 62
   178
100
AcDbLine
 10
560.1419198766665
 20
314.7226007975689
 30
0.0
 11
560.1419198766669
 21
241.5053682774526
 31
0.0
  0
LINE
  5
1FF
330
1F
100
AcDbEntity
  8
0
 62
   178
100
AcDbLine
 10
760.1419198766665
 20
314.72260079757
 30
0.0
 11
560.1419198766665
 21
314.7226007975689
 31
0.0
  0
LINE
  5
200
330
1F
100
AcDbEntity
  8
0
 62
   178
100
AcDbLine
 10
730.1419198766667
 20
266.5053682774688
 30
0.0
 11
724.1419198766667
 21
266.5053682774687
 31
0.0
  0
LINE
  5
201
330
1F
100
AcDbEntity
  8
0
 62
   178
100
AcDbLine
 10
596.1419198766666
 20
286.5053682774681
 30
0.0
 11
596.1419198766667
 21
266.5053682774792
 31
0.0
  0
LINE
  5
202
330
1F
100
AcDbEntity
  8
0
 62
   178
100
AcDbLine
 10
590.1419198766666
 20
266.5053682774792
 30
0.0
 11
590.1419198766666
 21
286.505368277468
 31
0.0
  0
LINE
  5
203
330
1F
100
AcDbEntity
  8
0
 62
   178
100
AcDbLine
 10
724.1419198766667
 20
266.5053682774687
 30
0.0
 11
724.1419198766666
 21
286.5053682774682
 31
0.0
  0
LINE
  5
204
330
1F
100
AcDbEntity
  8
0
 62
   178
100
AcDbLine
 10
730.1419198766666
 20
286.5053682774682
 30
0.0
 11
730.1419198766667
 21
266.5053682774688
 31
0.0
  0
LINE
  5
205
330
1F
100
AcDbEntity
  8
0
 62
   178
100
AcDbLine
 10
724.1419198766666
 20
286.5053682774682
 30
0.0
 11
730.1419198766666
 21
286.5053682774682
 31
0.0
  0
LINE
  5
206
330
1F
100
AcDbEntity
  8
0
 62
   178
100
AcDbLine
 10
590.1419198766666
 20
286.505368277468
 30
0.0
 11
596.1419198766666
 21
286.5053682774681
 31
0.0
  0
LINE
  5
207
330
1F
100
AcDbEntity
  8
0
 62
   178
100
AcDbLine
 10
596.1419198766667
 20
266.5053682774792
 30
0.0
 11
590.1419198766666
 21
266.5053682774792
 31
0.0
  0
LINE
  5
208
330
1F
100
AcDbEntity
  8
0
 62
   178
100
AcDbLine
 10
350.1419198766778
 20
10.85367071710753
 30
0.0
 11
150.1419198766778
 21
10.85367071710746
 31
0.0
  0
LINE
  5
209
330
1F
100
AcDbEntity
  8
0
 62
   178
100
AcDbLine
 10
350.1419198766778
 20
84.07090323722302
 30
0.0
 11
350.1419198766778
 21
10.85367071710753
 31
0.0
  0
LINE
  5
20A
330
1F
100
AcDbEntity
  8
0
 62
   178
100
AcDbLine
 10
150.1419198766778
 20
84.07090323722267
 30
0.0
 11
189.3922752128884
 21
84.07090323722322
 31
0.0
  0
LINE
  5
20B
330
1F
100
AcDbEntity
  8
0
 62
   178
100
AcDbLine
 10
150.1419198766778
 20
10.85367071710746
 30
0.0
 11
150.1419198766778
 21
84.07090323722267
 31
0.0
  0
LINE
  5
20C
330
1F
100
AcDbEntity
  8
0
 62
   178
100
AcDbLine
 10
180.1419198766778
 20
59.07090323723136
 30
0.0
 11
180.1419198766778
 21
39.07090323723202
 31
0.0
  0
LINE
  5
20D
330
1F
100
AcDbEntity
  8
0
 62
   178
100
AcDbLine
 10
186.1419198766778
 20
39.07090323723203
 30
0.0
 11
186.1419198766777
 21
59.07090323723136
 31
0.0
  0
LINE
  5
20E
330
1F
100
AcDbEntity
  8
0
 62
   178
100
AcDbLine
 10
180.1419198766778
 20
39.07090323723202
 30
0.0
 11
186.1419198766778
 21
39.07090323723203
 31
0.0
  0
LINE
  5
20F
330
1F
100
AcDbEntity
  8
0
 62
   178
100
AcDbLine
 10
186.1419198766777
 20
59.07090323723136
 30
0.0
 11
180.1419198766778
 21
59.07090323723136
 31
0.0
  0
LINE
  5
210
330
1F
100
AcDbEntity
  8
0
 62
   178
100
AcDbLine
 10
320.1419198766777
 20
59.07090323723156
 30
0.0
 11
314.1419198766778
 21
59.07090323723151
 31
0.0
  0
LINE
  5
211
330
1F
100
AcDbEntity
  8
0
 62
   178
100
AcDbLine
 10
320.1419198766778
 20
39.07090323723234
 30
0.0
 11
320.1419198766777
 21
59.07090323723156
 31
0.0
  0
LINE
  5
212
330
1F
100
AcDbEntity
  8
0
 62
   178
100
AcDbLine
 10
314.1419198766778
 20
39.07090323723234
 30
0.0
 11
320.1419198766778
 21
39.07090323723234
 31
0.0
  0
LINE
  5
213
330
1F
100
AcDbEntity
  8
0
 62
   178
100
AcDbLine
 10
314.1419198766778
 20
59.07090323723151
 30
0.0
 11
314.1419198766778
 21
39.07090323723234
 31
0.0
  0
LINE
  5
214
330
1F
100
AcDbEntity
  8
0
 62
   178
100
AcDbLine
 10
216.3922752128884
 20
79.04538820988621
 30
0.0
 11
189.3922752128884
 21
79.04538820988613
 31
0.0
  0
LINE
  5
215
330
1F
100
AcDbEntity
  8
0
 62
   178
100
AcDbLine
 10
189.3922752128884
 20
79.04538820988613
 30
0.0
 11
189.3922752128884
 21
84.07090323722322
 31
0.0
  0
LINE
  5
216
330
1F
100
AcDbEntity
  8
0
 62
   178
100
AcDbLine
 10
216.3922752128884
 20
84.07090323722319
 30
0.0
 11
350.1419198766778
 21
84.07090323722302
 31
0.0
  0
LINE
  5
217
330
1F
100
AcDbEntity
  8
0
 62
   178
100
AcDbLine
 10
216.3922752128884
 20
84.07090323722319
 30
0.0
 11
216.3922752128884
 21
79.04538820988621
 31
0.0
  0
LINE
  5
218
330
1F
100
AcDbEntity
  8
0
 62
   178
100
AcDbLine
 10
350.1419198766778
 20
-67.36356180300812
 30
0.0
 11
150.1419198766778
 21
-67.36356180300821
 31
0.0
  0
LINE
  5
219
330
1F
100
AcDbEntity
  8
0
 62
   178
100
AcDbLine
 10
350.1419198766778
 20
5.853670717107366
 30
0.0
 11
350.1419198766778
 21
-67.36356180300812
 31
0.0
  0
LINE
  5
21A
330
1F
100
AcDbEntity
  8
0
 62
   178
100
AcDbLine
 10
150.1419198766778
 20
5.853670717107016
 30
0.0
 11
189.3922752128884
 21
5.853670717107569
 31
0.0
  0
LINE
  5
21B
330
1F
100
AcDbEntity
  8
0
 62
   178
100
AcDbLine
 10
150.1419198766778
 20
-67.36356180300821
 30
0.0
 11
150.1419198766778
 21
5.853670717107016
 31
0.0
  0
LINE
  5
21C
330
1F
100
AcDbEntity
  8
0
 62
   178
100
AcDbLine
 10
180.1419198766778
 20
-19.1463292828843
 30
0.0
 11
180.1419198766778
 21
-39.14632928288363
 31
0.0
  0
LINE
  5
21D
330
1F
100
AcDbEntity
  8
0
 62
   178
100
AcDbLine
 10
186.1419198766778
 20
-39.14632928288363
 30
0.0
 11
186.1419198766777
 21
-19.1463292828843
 31
0.0
  0
LINE
  5
21E
330
1F
100
AcDbEntity
  8
0
 62
   178
100
AcDbLine
 10
180.1419198766778
 20
-39.14632928288363
 30
0.0
 11
186.1419198766778
 21
-39.14632928288363
 31
0.0
  0
LINE
  5
21F
330
1F
100
AcDbEntity
  8
0
 62
   178
100
AcDbLine
 10
186.1419198766777
 20
-19.1463292828843
 30
0.0
 11
180.1419198766778
 21
-19.1463292828843
 31
0.0
  0
LINE
  5
220
330
1F
100
AcDbEntity
  8
0
 62
   178
100
AcDbLine
 10
320.1419198766777
 20
-19.1463292828841
 30
0.0
 11
314.1419198766778
 21
-19.14632928288414
 31
0.0
  0
LINE
  5
221
330
1F
100
AcDbEntity
  8
0
 62
   178
100
AcDbLine
 10
320.1419198766778
 20
-39.14632928288331
 30
0.0
 11
320.1419198766777
 21
-19.1463292828841
 31
0.0
  0
LINE
  5
222
330
1F
100
AcDbEntity
  8
0
 62
   178
100
AcDbLine
 10
314.1419198766778
 20
-39.14632928288331
 30
0.0
 11
320.1419198766778
 21
-39.14632928288331
 31
0.0
  0
LINE
  5
223
330
1F
100
AcDbEntity
  8
0
 62
   178
100
AcDbLine
 10
314.1419198766778
 20
-19.14632928288414
 30
0.0
 11
314.1419198766778
 21
-39.14632928288331
 31
0.0
  0
LINE
  5
224
330
1F
100
AcDbEntity
  8
0
 62
   178
100
AcDbLine
 10
216.3922752128884
 20
0.8281556897705642
 30
0.0
 11
189.3922752128884
 21
0.8281556897704683
 31
0.0
  0
LINE
  5
225
330
1F
100
AcDbEntity
  8
0
 62
   178
100
AcDbLine
 10
189.3922752128884
 20
0.8281556897704683
 30
0.0
 11
189.3922752128884
 21
5.853670717107569
 31
0.0
  0
LINE
  5
226
330
1F
100
AcDbEntity
  8
0
 62
   178
100
AcDbLine
 10
216.3922752128884
 20
5.85367071710753
 30
0.0
 11
350.1419198766778
 21
5.853670717107366
 31
0.0
  0
LINE
  5
227
330
1F
100
AcDbEntity
  8
0
 62
   178
100
AcDbLine
 10
216.3922752128884
 20
5.85367071710753
 30
0.0
 11
216.3922752128884
 21
0.8281556897705642
 31
0.0
  0
LINE
  5
228
330
1F
100
AcDbEntity
  8
0
 62
   178
100
AcDbLine
 10
56.35842865201448
 20
-0.4049942325090392
 30
0.0
 11
32.35842865201452
 21
-0.4049942325090451
 31
0.0
  0
LINE
  5
229
330
1F
100
AcDbEntity
  8
0
 62
   178
100
AcDbLine
 10
32.35842865201452
 20
-0.4049942325090451
 30
0.0
 11
32.35842865201452
 21
19.59500576749101
 31
0.0
  0
LINE
  5
22A
330
1F
100
AcDbEntity
  8
0
 62
   178
100
AcDbLine
 10
32.35842865201452
 20
19.59500576749101
 30
0.0
 11
56.35842865201448
 21
19.59500576749101
 31
0.0
  0
LINE
  5
22B
330
1F
100
AcDbEntity
  8
0
 62
   178
100
AcDbLine
 10
56.35842865201448
 20
19.59500576749101
 30
0.0
 11
56.35842865201448
 21
-0.4049942325090392
 31
0.0
  0
LINE
  5
22C
330
1F
100
AcDbEntity
  8
0
 62
   178
100
AcDbLine
 10
101.3670869469468
 20
-0.2774005580499576
 30
0.0
 11
77.36708694694683
 21
-0.2774005580499636
 31
0.0
  0
LINE
  5
22D
330
1F
100
AcDbEntity
  8
0
 62
   178
100
AcDbLine
 10
77.36708694694683
 20
-0.2774005580499636
 30
0.0
 11
77.36708694694683
 21
19.72259944195009
 31
0.0
  0
LINE
  5
22E
330
1F
100
AcDbEntity
  8
0
 62
   178
100
AcDbLine
 10
77.36708694694683
 20
19.72259944195009
 30
0.0
 11
101.3670869469468
 21
19.72259944195009
 31
0.0
  0
LINE
  5
22F
330
1F
100
AcDbEntity
  8
0
 62
   178
100
AcDbLine
 10
101.3670869469468
 20
19.72259944195009
 30
0.0
 11
101.3670869469468
 21
-0.2774005580499576
 31
0.0
  0
LINE
  5
230
330
1F
100
AcDbEntity
  8
0
 62
   178
100
AcDbLine
 10
101.3670869469468
 20
89.72259944195177
 30
0.0
 11
77.36708694694683
 21
89.72259944195176
 31
0.0
  0
LINE
  5
231
330
1F
100
AcDbEntity
  8
0
 62
   178
100
AcDbLine
 10
77.36708694694683
 20
89.72259944195176
 30
0.0
 11
77.36708694694683
 21
109.7225994419518
 31
0.0
  0
LINE
  5
232
330
1F
100
AcDbEntity
  8
0
 62
   178
100
AcDbLine
 10
77.36708694694683
 20
109.7225994419518
 30
0.0
 11
101.3670869469468
 21
109.7225994419518
 31
0.0
  0
LINE
  5
233
330
1F
100
AcDbEntity
  8
0
 62
   178
100
AcDbLine
 10
101.3670869469468
 20
109.7225994419518
 30
0.0
 11
101.3670869469468
 21
89.72259944195177
 31
0.0
  0
LINE
  5
234
330
1F
100
AcDbEntity
  8
0
 62
   178
100
AcDbLine
 10
141.3584286520139
 20
59.59500576749121
 30
0.0
 11
117.358428652014
 21
59.5950057674912
 31
0.0
  0
LINE
  5
235
330
1F
100
AcDbEntity
  8
0
 62
   178
100
AcDbLine
 10
117.358428652014
 20
59.5950057674912
 30
0.0
 11
117.358428652014
 21
79.59500576749126
 31
0.0
  0
LINE
  5
236
330
1F
100
AcDbEntity
  8
0
 62
   178
100
AcDbLine
 10
117.358428652014
 20
79.59500576749126
 30
0.0
 11
141.3584286520139
 21
79.59500576749126
 31
0.0
  0
LINE
  5
237
330
1F
100
AcDbEntity
  8
0
 62
   178
100
AcDbLine
 10
141.3584286520139
 20
79.59500576749126
 30
0.0
 11
141.3584286520139
 21
59.59500576749121
 31
0.0
  0
LINE
  5
238
330
1F
100
AcDbEntity
  8
0
 62
   178
100
AcDbLine
 10
141.3584286520147
 20
29.59500576749118
 30
0.0
 11
117.3584286520147
 21
29.59500576749117
 31
0.0
  0
LINE
  5
239
330
1F
100
AcDbEntity
  8
0
 62
   178
100
AcDbLine
 10
117.3584286520147
 20
29.59500576749117
 30
0.0
 11
117.3584286520147
 21
49.59500576749122
 31
0.0
  0
LINE
  5
23A
330
1F
100
AcDbEntity
  8
0
 62
   178
100
AcDbLine
 10
117.3584286520147
 20
49.59500576749122
 30
0.0
 11
141.3584286520147
 21
49.59500576749123
 31
0.0
  0
LINE
  5
23B
330
1F
100
AcDbEntity
  8
0
 62
   178
100
AcDbLine
 10
141.3584286520147
 20
49.59500576749123
 30
0.0
 11
141.3584286520147
 21
29.59500576749118
 31
0.0
  0
LINE
  5
23C
330
1F
100
AcDbEntity
  8
0
 62
   178
100
AcDbLine
 10
141.3584286520139
 20
89.59500576749178
 30
0.0
 11
117.358428652014
 21
89.59500576749178
 31
0.0
  0
LINE
  5
23D
330
1F
100
AcDbEntity
  8
0
 62
   178
100
AcDbLine
 10
117.358428652014
 20
89.59500576749178
 30
0.0
 11
117.358428652014
 21
109.5950057674918
 31
0.0
  0
LINE
  5
23E
330
1F
100
AcDbEntity
  8
0
 62
   178
100
AcDbLine
 10
117.358428652014
 20
109.5950057674918
 30
0.0
 11
141.3584286520139
 21
109.5950057674918
 31
0.0
  0
LINE
  5
23F
330
1F
100
AcDbEntity
  8
0
 62
   178
100
AcDbLine
 10
141.3584286520139
 20
109.5950057674918
 30
0.0
 11
141.3584286520139
 21
89.59500576749178
 31
0.0
  0
LINE
  5
240
330
1F
100
AcDbEntity
  8
0
 62
   178
100
AcDbLine
 10
141.3584286520147
 20
-0.4049942325090392
 30
0.0
 11
117.3584286520147
 21
-0.4049942325090451
 31
0.0
  0
LINE
  5
241
330
1F
100
AcDbEntity
  8
0
 62
   178
100
AcDbLine
 10
117.3584286520147
 20
-0.4049942325090451
 30
0.0
 11
117.3584286520147
 21
19.59500576749101
 31
0.0
  0
LINE
  5
242
330
1F
100
AcDbEntity
  8
0
 62
   178
100
AcDbLine
 10
117.3584286520147
 20
19.59500576749101
 30
0.0
 11
141.3584286520147
 21
19.59500576749101
 31
0.0
  0
LINE
  5
243
330
1F
100
AcDbEntity
  8
0
 62
   178
100
AcDbLine
 10
141.3584286520147
 20
19.59500576749101
 30
0.0
 11
141.3584286520147
 21
-0.4049942325090392
 31
0.0
  0
LINE
  5
244
330
1F
100
AcDbEntity
  8
0
 62
   178
100
AcDbLine
 10
555.1419198766777
 20
10.85367071710753
 30
0.0
 11
355.1419198766777
 21
10.85367071710746
 31
0.0
  0
LINE
  5
245
330
1F
100
AcDbEntity
  8
0
 62
   178
100
AcDbLine
 10
555.1419198766777
 20
84.07090323722302
 30
0.0
 11
555.1419198766777
 21
10.85367071710753
 31
0.0
  0
LINE
  5
246
330
1F
100
AcDbEntity
  8
0
 62
   178
100
AcDbLine
 10
355.1419198766777
 20
84.07090323722267
 30
0.0
 11
394.3922752128883
 21
84.07090323722322
 31
0.0
  0
LINE
  5
247
330
1F
100
AcDbEntity
  8
0
 62
   178
100
AcDbLine
 10
355.1419198766777
 20
10.85367071710746
 30
0.0
 11
355.1419198766777
 21
84.07090323722267
 31
0.0
  0
LINE
  5
248
330
1F
100
AcDbEntity
  8
0
 62
   178
100
AcDbLine
 10
385.1419198766778
 20
59.07090323723136
 30
0.0
 11
385.1419198766778
 21
39.07090323723202
 31
0.0
  0
LINE
  5
249
330
1F
100
AcDbEntity
  8
0
 62
   178
100
AcDbLine
 10
391.1419198766777
 20
39.07090323723203
 30
0.0
 11
391.1419198766777
 21
59.07090323723136
 31
0.0
  0
LINE
  5
24A
330
1F
100
AcDbEntity
  8
0
 62
   178
100
AcDbLine
 10
385.1419198766778
 20
39.07090323723202
 30
0.0
 11
391.1419198766777
 21
39.07090323723203
 31
0.0
  0
LINE
  5
24B
330
1F
100
AcDbEntity
  8
0
 62
   178
100
AcDbLine
 10
391.1419198766777
 20
59.07090323723136
 30
0.0
 11
385.1419198766778
 21
59.07090323723136
 31
0.0
  0
LINE
  5
24C
330
1F
100
AcDbEntity
  8
0
 62
   178
100
AcDbLine
 10
525.1419198766777
 20
59.07090323723156
 30
0.0
 11
519.1419198766777
 21
59.07090323723151
 31
0.0
  0
LINE
  5
24D
330
1F
100
AcDbEntity
  8
0
 62
   178
100
AcDbLine
 10
525.1419198766778
 20
39.07090323723234
 30
0.0
 11
525.1419198766777
 21
59.07090323723156
 31
0.0
  0
LINE
  5
24E
330
1F
100
AcDbEntity
  8
0
 62
   178
100
AcDbLine
 10
519.1419198766778
 20
39.07090323723234
 30
0.0
 11
525.1419198766778
 21
39.07090323723234
 31
0.0
  0
LINE
  5
24F
330
1F
100
AcDbEntity
  8
0
 62
   178
100
AcDbLine
 10
519.1419198766777
 20
59.07090323723151
 30
0.0
 11
519.1419198766778
 21
39.07090323723234
 31
0.0
  0
LINE
  5
250
330
1F
100
AcDbEntity
  8
0
 62
   178
100
AcDbLine
 10
421.3922752128883
 20
79.04538820988621
 30
0.0
 11
394.3922752128883
 21
79.04538820988613
 31
0.0
  0
LINE
  5
251
330
1F
100
AcDbEntity
  8
0
 62
   178
100
AcDbLine
 10
394.3922752128883
 20
79.04538820988613
 30
0.0
 11
394.3922752128883
 21
84.07090323722322
 31
0.0
  0
LINE
  5
252
330
1F
100
AcDbEntity
  8
0
 62
   178
100
AcDbLine
 10
421.3922752128883
 20
84.07090323722319
 30
0.0
 11
555.1419198766777
 21
84.07090323722302
 31
0.0
  0
LINE
  5
253
330
1F
100
AcDbEntity
  8
0
 62
   178
100
AcDbLine
 10
421.3922752128883
 20
84.07090323722319
 30
0.0
 11
421.3922752128883
 21
79.04538820988621
 31
0.0
  0
LINE
  5
254
330
1F
100
AcDbEntity
  8
0
 62
   178
100
AcDbLine
 10
101.3670869469468
 20
29.72259944195008
 30
0.0
 11
77.36708694694683
 21
29.72259944195007
 31
0.0
  0
LINE
  5
255
330
1F
100
AcDbEntity
  8
0
 62
   178
100
AcDbLine
 10
77.36708694694683
 20
29.72259944195007
 30
0.0
 11
77.36708694694683
 21
49.72259944195012
 31
0.0
  0
LINE
  5
256
330
1F
100
AcDbEntity
  8
0
 62
   178
100
AcDbLine
 10
77.36708694694683
 20
49.72259944195012
 30
0.0
 11
101.3670869469468
 21
49.72259944195013
 31
0.0
  0
LINE
  5
257
330
1F
100
AcDbEntity
  8
0
 62
   178
100
AcDbLine
 10
101.3670869469468
 20
49.72259944195013
 30
0.0
 11
101.3670869469468
 21
29.72259944195008
 31
0.0
  0
LINE
  5
258
330
1F
100
AcDbEntity
  8
0
 62
   178
100
AcDbLine
 10
555.1419198766777
 20
89.07090323722299
 30
0.0
 11
421.3922752128883
 21
89.07090323722295
 31
0.0
  0
LINE
  5
259
330
1F
100
AcDbEntity
  8
0
 62
   178
100
AcDbLine
 10
355.1419198766777
 20
89.07090323722305
 30
0.0
 11
355.1419198766777
 21
162.2881357573379
 31
0.0
  0
LINE
  5
25A
330
1F
100
AcDbEntity
  8
0
 62
   178
100
AcDbLine
 10
555.1419198766777
 20
162.2881357573379
 30
0.0
 11
555.1419198766777
 21
89.07090323722299
 31
0.0
  0
LINE
  5
25B
330
1F
100
AcDbEntity
  8
0
 62
   178
100
AcDbLine
 10
355.1419198766777
 20
162.2881357573379
 30
0.0
 11
555.1419198766777
 21
162.2881357573379
 31
0.0
  0
LINE
  5
25C
330
1F
100
AcDbEntity
  8
0
 62
   178
100
AcDbLine
 10
391.1419198766777
 20
134.070903237224
 30
0.0
 11
385.1419198766777
 21
134.070903237224
 31
0.0
  0
LINE
  5
25D
330
1F
100
AcDbEntity
  8
0
 62
   178
100
AcDbLine
 10
391.1419198766777
 20
114.0709032372251
 30
0.0
 11
391.1419198766777
 21
134.070903237224
 31
0.0
  0
LINE
  5
25E
330
1F
100
AcDbEntity
  8
0
 62
   178
100
AcDbLine
 10
385.1419198766777
 20
134.070903237224
 30
0.0
 11
385.1419198766778
 21
114.0709032372251
 31
0.0
  0
LINE
  5
25F
330
1F
100
AcDbEntity
  8
0
 62
   178
100
AcDbLine
 10
385.1419198766778
 20
114.0709032372251
 30
0.0
 11
391.1419198766777
 21
114.0709032372251
 31
0.0
  0
LINE
  5
260
330
1F
100
AcDbEntity
  8
0
 62
   178
100
AcDbLine
 10
519.1419198766777
 20
114.070903237226
 30
0.0
 11
525.1419198766777
 21
114.070903237226
 31
0.0
  0
LINE
  5
261
330
1F
100
AcDbEntity
  8
0
 62
   178
100
AcDbLine
 10
525.1419198766777
 20
134.070903237224
 30
0.0
 11
519.1419198766777
 21
134.0709032372239
 31
0.0
  0
LINE
  5
262
330
1F
100
AcDbEntity
  8
0
 62
   178
100
AcDbLine
 10
525.1419198766777
 20
114.070903237226
 30
0.0
 11
525.1419198766777
 21
134.070903237224
 31
0.0
  0
LINE
  5
263
330
1F
100
AcDbEntity
  8
0
 62
   178
100
AcDbLine
 10
519.1419198766777
 20
134.0709032372239
 30
0.0
 11
519.1419198766777
 21
114.070903237226
 31
0.0
  0
LINE
  5
264
330
1F
100
AcDbEntity
  8
0
 62
   178
100
AcDbLine
 10
421.3922752128883
 20
93.04538820987442
 30
0.0
 11
421.3922752128883
 21
89.07090323722295
 31
0.0
  0
LINE
  5
265
330
1F
100
AcDbEntity
  8
0
 62
   178
100
AcDbLine
 10
394.3922752128883
 20
93.04538820987432
 30
0.0
 11
421.3922752128883
 21
93.04538820987442
 31
0.0
  0
LINE
  5
266
330
1F
100
AcDbEntity
  8
0
 62
   178
100
AcDbLine
 10
394.3922752128883
 20
89.07090323722299
 30
0.0
 11
394.3922752128883
 21
93.04538820987432
 31
0.0
  0
LINE
  5
267
330
1F
100
AcDbEntity
  8
0
 62
   178
100
AcDbLine
 10
394.3922752128883
 20
89.07090323722299
 30
0.0
 11
355.1419198766777
 21
89.07090323722305
 31
0.0
  0
LINE
  5
268
330
1F
100
AcDbEntity
  8
0
 62
   178
100
AcDbLine
 10
760.1419198766777
 20
89.07090323722299
 30
0.0
 11
626.3922752128883
 21
89.07090323722295
 31
0.0
  0
LINE
  5
269
330
1F
100
AcDbEntity
  8
0
 62
   178
100
AcDbLine
 10
560.1419198766777
 20
89.07090323722305
 30
0.0
 11
560.1419198766777
 21
162.2881357573379
 31
0.0
  0
LINE
  5
26A
330
1F
100
AcDbEntity
  8
0
 62
   178
100
AcDbLine
 10
760.1419198766777
 20
162.2881357573379
 30
0.0
 11
760.1419198766777
 21
89.07090323722299
 31
0.0
  0
LINE
  5
26B
330
1F
100
AcDbEntity
  8
0
 62
   178
100
AcDbLine
 10
560.1419198766777
 20
162.2881357573379
 30
0.0
 11
760.1419198766777
 21
162.2881357573379
 31
0.0
  0
LINE
  5
26C
330
1F
100
AcDbEntity
  8
0
 62
   178
100
AcDbLine
 10
596.1419198766775
 20
134.070903237224
 30
0.0
 11
590.1419198766777
 21
134.070903237224
 31
0.0
  0
LINE
  5
26D
330
1F
100
AcDbEntity
  8
0
 62
   178
100
AcDbLine
 10
596.1419198766775
 20
114.0709032372251
 30
0.0
 11
596.1419198766775
 21
134.070903237224
 31
0.0
  0
LINE
  5
26E
330
1F
100
AcDbEntity
  8
0
 62
   178
100
AcDbLine
 10
590.1419198766777
 20
134.070903237224
 30
0.0
 11
590.1419198766777
 21
114.0709032372251
 31
0.0
  0
LINE
  5
26F
330
1F
100
AcDbEntity
  8
0
 62
   178
100
AcDbLine
 10
590.1419198766777
 20
114.0709032372251
 30
0.0
 11
596.1419198766775
 21
114.0709032372251
 31
0.0
  0
LINE
  5
270
330
1F
100
AcDbEntity
  8
0
 62
   178
100
AcDbLine
 10
724.1419198766777
 20
114.070903237226
 30
0.0
 11
730.1419198766777
 21
114.070903237226
 31
0.0
  0
LINE
  5
271
330
1F
100
AcDbEntity
  8
0
 62
   178
100
AcDbLine
 10
730.1419198766777
 20
134.070903237224
 30
0.0
 11
724.1419198766777
 21
134.0709032372239
 31
0.0
  0
LINE
  5
272
330
1F
100
AcDbEntity
  8
0
 62
   178
100
AcDbLine
 10
730.1419198766777
 20
114.070903237226
 30
0.0
 11
730.1419198766777
 21
134.070903237224
 31
0.0
  0
LINE
  5
273
330
1F
100
AcDbEntity
  8
0
 62
   178
100
AcDbLine
 10
724.1419198766777
 20
134.0709032372239
 30
0.0
 11
724.1419198766777
 21
114.070903237226
 31
0.0
  0
LINE
  5
274
330
1F
100
AcDbEntity
  8
0
 62
   178
100
AcDbLine
 10
626.3922752128883
 20
93.04538820987442
 30
0.0
 11
626.3922752128883
 21
89.07090323722295
 31
0.0
  0
LINE
  5
275
330
1F
100
AcDbEntity
  8
0
 62
   178
100
AcDbLine
 10
599.3922752128883
 20
93.04538820987432
 30
0.0
 11
626.3922752128883
 21
93.04538820987442
 31
0.0
  0
LINE
  5
276
330
1F
100
AcDbEntity
  8
0
 62
   178
100
AcDbLine
 10
599.3922752128883
 20
89.07090323722299
 30
0.0
 11
599.3922752128883
 21
93.04538820987432
 31
0.0
  0
LINE
  5
277
330
1F
100
AcDbEntity
  8
0
 62
   178
100
AcDbLine
 10
599.3922752128883
 20
89.07090323722299
 30
0.0
 11
560.1419198766777
 21
89.07090323722305
 31
0.0
  0
LINE
  5
278
330
1F
100
AcDbEntity
  8
0
 62
   178
100
AcDbLine
 10
760.1419198766777
 20
10.85367071710753
 30
0.0
 11
560.1419198766777
 21
10.85367071710746
 31
0.0
  0
LINE
  5
279
330
1F
100
AcDbEntity
  8
0
 62
   178
100
AcDbLine
 10
760.1419198766777
 20
84.07090323722302
 30
0.0
 11
760.1419198766777
 21
10.85367071710753
 31
0.0
  0
LINE
  5
27A
330
1F
100
AcDbEntity
  8
0
 62
   178
100
AcDbLine
 10
560.1419198766777
 20
84.07090323722267
 30
0.0
 11
599.3922752128883
 21
84.07090323722322
 31
0.0
  0
LINE
  5
27B
330
1F
100
AcDbEntity
  8
0
 62
   178
100
AcDbLine
 10
560.1419198766777
 20
10.85367071710746
 30
0.0
 11
560.1419198766777
 21
84.07090323722267
 31
0.0
  0
LINE
  5
27C
330
1F
100
AcDbEntity
  8
0
 62
   178
100
AcDbLine
 10
590.1419198766777
 20
59.07090323723136
 30
0.0
 11
590.1419198766777
 21
39.07090323723202
 31
0.0
  0
LINE
  5
27D
330
1F
100
AcDbEntity
  8
0
 62
   178
100
AcDbLine
 10
596.1419198766777
 20
39.07090323723203
 30
0.0
 11
596.1419198766775
 21
59.07090323723136
 31
0.0
  0
LINE
  5
27E
330
1F
100
AcDbEntity
  8
0
 62
   178
100
AcDbLine
 10
590.1419198766777
 20
39.07090323723202
 30
0.0
 11
596.1419198766777
 21
39.07090323723203
 31
0.0
  0
LINE
  5
27F
330
1F
100
AcDbEntity
  8
0
 62
   178
100
AcDbLine
 10
596.1419198766775
 20
59.07090323723136
 30
0.0
 11
590.1419198766777
 21
59.07090323723136
 31
0.0
  0
LINE
  5
280
330
1F
100
AcDbEntity
  8
0
 62
   178
100
AcDbLine
 10
730.1419198766777
 20
59.07090323723156
 30
0.0
 11
724.1419198766777
 21
59.07090323723151
 31
0.0
  0
LINE
  5
281
330
1F
100
AcDbEntity
  8
0
 62
   178
100
AcDbLine
 10
730.1419198766777
 20
39.07090323723234
 30
0.0
 11
730.1419198766777
 21
59.07090323723156
 31
0.0
  0
LINE
  5
282
330
1F
100
AcDbEntity
  8
0
 62
   178
100
AcDbLine
 10
724.1419198766778
 20
39.07090323723234
 30
0.0
 11
730.1419198766777
 21
39.07090323723234
 31
0.0
  0
LINE
  5
283
330
1F
100
AcDbEntity
  8
0
 62
   178
100
AcDbLine
 10
724.1419198766777
 20
59.07090323723151
 30
0.0
 11
724.1419198766778
 21
39.07090323723234
 31
0.0
  0
LINE
  5
284
330
1F
100
AcDbEntity
  8
0
 62
   178
100
AcDbLine
 10
626.3922752128883
 20
79.04538820988621
 30
0.0
 11
599.3922752128883
 21
79.04538820988613
 31
0.0
  0
LINE
  5
285
330
1F
100
AcDbEntity
  8
0
 62
   178
100
AcDbLine
 10
599.3922752128883
 20
79.04538820988613
 30
0.0
 11
599.3922752128883
 21
84.07090323722322
 31
0.0
  0
LINE
  5
286
330
1F
100
AcDbEntity
  8
0
 62
   178
100
AcDbLine
 10
626.3922752128883
 20
84.07090323722319
 30
0.0
 11
760.1419198766777
 21
84.07090323722302
 31
0.0
  0
LINE
  5
287
330
1F
100
AcDbEntity
  8
0
 62
   178
100
AcDbLine
 10
626.3922752128883
 20
84.07090323722319
 30
0.0
 11
626.3922752128883
 21
79.04538820988621
 31
0.0
  0
LINE
  5
288
330
1F
100
AcDbEntity
  8
0
 62
   178
100
AcDbLine
 10
101.3670869469468
 20
59.72259944195156
 30
0.0
 11
77.36708694694683
 21
59.72259944195154
 31
0.0
  0
LINE
  5
289
330
1F
100
AcDbEntity
  8
0
 62
   178
100
AcDbLine
 10
77.36708694694683
 20
59.72259944195154
 30
0.0
 11
77.36708694694683
 21
79.72259944195162
 31
0.0
  0
LINE
  5
28A
330
1F
100
AcDbEntity
  8
0
 62
   178
100
AcDbLine
 10
77.36708694694683
 20
79.72259944195162
 30
0.0
 11
101.3670869469468
 21
79.72259944195162
 31
0.0
  0
LINE
  5
28B
330
1F
100
AcDbEntity
  8
0
 62
   178
100
AcDbLine
 10
101.3670869469468
 20
79.72259944195162
 30
0.0
 11
101.3670869469468
 21
59.72259944195156
 31
0.0
  0
LINE
  5
28C
330
1F
100
AcDbEntity
  8
0
 62
   178
100
AcDbLine
 10
101.3670869469468
 20
-59.2774005580489
 30
0.0
 11
77.36708694694683
 21
-59.27740055804891
 31
0.0
  0
LINE
  5
28D
330
1F
100
AcDbEntity
  8
0
 62
   178
100
AcDbLine
 10
77.36708694694683
 20
-59.27740055804891
 30
0.0
 11
77.36708694694683
 21
-39.27740055804885
 31
0.0
  0
LINE
  5
28E
330
1F
100
AcDbEntity
  8
0
 62
   178
100
AcDbLine
 10
77.36708694694683
 20
-39.27740055804885
 30
0.0
 11
101.3670869469468
 21
-39.27740055804885
 31
0.0
  0
LINE
  5
28F
330
1F
100
AcDbEntity
  8
0
 62
   178
100
AcDbLine
 10
101.3670869469468
 20
-39.27740055804885
 30
0.0
 11
101.3670869469468
 21
-59.2774005580489
 31
0.0
  0
LINE
  5
290
330
1F
100
AcDbEntity
  8
0
 62
   178
100
AcDbLine
 10
141.3584286520147
 20
-29.40499423250894
 30
0.0
 11
117.3584286520147
 21
-29.40499423250895
 31
0.0
  0
LINE
  5
291
330
1F
100
AcDbEntity
  8
0
 62
   178
100
AcDbLine
 10
117.3584286520147
 20
-29.40499423250895
 30
0.0
 11
117.3584286520147
 21
-9.404994232508892
 31
0.0
  0
LINE
  5
292
330
1F
100
AcDbEntity
  8
0
 62
   178
100
AcDbLine
 10
117.3584286520147
 20
-9.404994232508892
 30
0.0
 11
141.3584286520147
 21
-9.404994232508887
 31
0.0
  0
LINE
  5
293
330
1F
100
AcDbEntity
  8
0
 62
   178
100
AcDbLine
 10
141.3584286520147
 20
-9.404994232508887
 30
0.0
 11
141.3584286520147
 21
-29.40499423250894
 31
0.0
  0
LINE
  5
294
330
1F
100
AcDbEntity
  8
0
 62
   178
100
AcDbLine
 10
141.3584286520147
 20
-59.40499423250807
 30
0.0
 11
117.3584286520147
 21
-59.40499423250809
 31
0.0
  0
LINE
  5
295
330
1F
100
AcDbEntity
  8
0
 62
   178
100
AcDbLine
 10
117.3584286520147
 20
-59.40499423250809
 30
0.0
 11
117.3584286520147
 21
-39.40499423250802
 31
0.0
  0
LINE
  5
296
330
1F
100
AcDbEntity
  8
0
 62
   178
100
AcDbLine
 10
117.3584286520147
 20
-39.40499423250802
 30
0.0
 11
141.3584286520147
 21
-39.40499423250802
 31
0.0
  0
LINE
  5
297
330
1F
100
AcDbEntity
  8
0
 62
   178
100
AcDbLine
 10
141.3584286520147
 20
-39.40499423250802
 30
0.0
 11
141.3584286520147
 21
-59.40499423250807
 31
0.0
  0
LINE
  5
298
330
1F
100
AcDbEntity
  8
0
 62
   178
100
AcDbLine
 10
101.3670869469468
 20
-29.27740055805004
 30
0.0
 11
77.36708694694683
 21
-29.27740055805005
 31
0.0
  0
LINE
  5
299
330
1F
100
AcDbEntity
  8
0
 62
   178
100
AcDbLine
 10
77.36708694694683
 20
-29.27740055805005
 30
0.0
 11
77.36708694694683
 21
-9.277400558049992
 31
0.0
  0
LINE
  5
29A
330
1F
100
AcDbEntity
  8
0
 62
   178
100
AcDbLine
 10
77.36708694694683
 20
-9.277400558049992
 30
0.0
 11
101.3670869469468
 21
-9.277400558049987
 31
0.0
  0
LINE
  5
29B
330
1F
100
AcDbEntity
  8
0
 62
   178
100
AcDbLine
 10
101.3670869469468
 20
-9.277400558049987
 30
0.0
 11
101.3670869469468
 21
-29.27740055805004
 31
0.0
  0
LINE
  5
29C
330
1F
100
AcDbEntity
  8
0
 62
   178
100
AcDbLine
 10
56.35842865201448
 20
-59.40499423250807
 30
0.0
 11
32.35842865201452
 21
-59.40499423250809
 31
0.0
  0
LINE
  5
29D
330
1F
100
AcDbEntity
  8
0
 62
   178
100
AcDbLine
 10
32.35842865201452
 20
-59.40499423250809
 30
0.0
 11
32.35842865201452
 21
-39.40499423250802
 31
0.0
  0
LINE
  5
29E
330
1F
100
AcDbEntity
  8
0
 62
   178
100
AcDbLine
 10
32.35842865201452
 20
-39.40499423250802
 30
0.0
 11
56.35842865201448
 21
-39.40499423250802
 31
0.0
  0
LINE
  5
29F
330
1F
100
AcDbEntity
  8
0
 62
   178
100
AcDbLine
 10
56.35842865201448
 20
-39.40499423250802
 30
0.0
 11
56.35842865201448
 21
-59.40499423250807
 31
0.0
  0
LINE
  5
2A0
330
1F
100
AcDbEntity
  8
0
 62
   178
100
AcDbLine
 10
16.36708694694663
 20
-59.2774005580489
 30
0.0
 11
-7.632913053053326
 21
-59.27740055804891
 31
0.0
  0
LINE
  5
2A1
330
1F
100
AcDbEntity
  8
0
 62
   178
100
AcDbLine
 10
-7.632913053053326
 20
-59.27740055804891
 30
0.0
 11
-7.632913053053332
 21
-39.27740055804885
 31
0.0
  0
LINE
  5
2A2
330
1F
100
AcDbEntity
  8
0
 62
   178
100
AcDbLine
 10
-7.632913053053332
 20
-39.27740055804885
 30
0.0
 11
16.36708694694662
 21
-39.27740055804885
 31
0.0
  0
LINE
  5
2A3
330
1F
100
AcDbEntity
  8
0
 62
   178
100
AcDbLine
 10
16.36708694694662
 20
-39.27740055804885
 30
0.0
 11
16.36708694694663
 21
-59.2774005580489
 31
0.0
  0
LINE
  5
2A4
330
1F
100
AcDbEntity
  8
0
 62
   178
100
AcDbLine
 10
16.36708694694663
 20
-29.27740055805004
 30
0.0
 11
-7.632913053053326
 21
-29.27740055805005
 31
0.0
  0
LINE
  5
2A5
330
1F
100
AcDbEntity
  8
0
 62
   178
100
AcDbLine
 10
-7.632913053053326
 20
-29.27740055805005
 30
0.0
 11
-7.632913053053332
 21
-9.277400558049992
 31
0.0
  0
LINE
  5
2A6
330
1F
100
AcDbEntity
  8
0
 62
   178
100
AcDbLine
 10
-7.632913053053332
 20
-9.277400558049992
 30
0.0
 11
16.36708694694662
 21
-9.277400558049987
 31
0.0
  0
LINE
  5
2A7
330
1F
100
AcDbEntity
  8
0
 62
   178
100
AcDbLine
 10
16.36708694694662
 20
-9.277400558049987
 30
0.0
 11
16.36708694694663
 21
-29.27740055805004
 31
0.0
  0
LINE
  5
2A8
330
1F
100
AcDbEntity
  8
0
 62
   178
100
AcDbLine
 10
-452.8580801233222
 20
3.853670717107501
 30
0.0
 11
-652.8580801233222
 21
3.853670717107422
 31
0.0
  0
LINE
  5
2A9
330
1F
100
AcDbEntity
  8
0
 62
   178
100
AcDbLine
 10
-452.8580801233222
 20
77.07090323722299
 30
0.0
 11
-452.8580801233222
 21
3.853670717107501
 31
0.0
  0
LINE
  5
2AA
330
1F
100
AcDbEntity
  8
0
 62
   178
100
AcDbLine
 10
-652.8580801233222
 20
77.07090323722264
 30
0.0
 11
-613.6077247871116
 21
77.07090323722319
 31
0.0
  0
LINE
  5
2AB
330
1F
100
AcDbEntity
  8
0
 62
   178
100
AcDbLine
 10
-652.8580801233222
 20
3.853670717107422
 30
0.0
 11
-652.8580801233222
 21
77.07090323722264
 31
0.0
  0
LINE
  5
2AC
330
1F
100
AcDbEntity
  8
0
 62
   178
100
AcDbLine
 10
-622.8580801233222
 20
52.07090323723133
 30
0.0
 11
-622.8580801233222
 21
32.070903237232
 31
0.0
  0
LINE
  5
2AD
330
1F
100
AcDbEntity
  8
0
 62
   178
100
AcDbLine
 10
-616.8580801233222
 20
32.070903237232
 30
0.0
 11
-616.8580801233223
 21
52.07090323723133
 31
0.0
  0
LINE
  5
2AE
330
1F
100
AcDbEntity
  8
0
 62
   178
100
AcDbLine
 10
-622.8580801233222
 20
32.070903237232
 30
0.0
 11
-616.8580801233222
 21
32.070903237232
 31
0.0
  0
LINE
  5
2AF
330
1F
100
AcDbEntity
  8
0
 62
   178
100
AcDbLine
 10
-616.8580801233223
 20
52.07090323723133
 30
0.0
 11
-622.8580801233222
 21
52.07090323723133
 31
0.0
  0
LINE
  5
2B0
330
1F
100
AcDbEntity
  8
0
 62
   178
100
AcDbLine
 10
-482.8580801233223
 20
52.07090323723153
 30
0.0
 11
-488.8580801233223
 21
52.07090323723148
 31
0.0
  0
LINE
  5
2B1
330
1F
100
AcDbEntity
  8
0
 62
   178
100
AcDbLine
 10
-482.8580801233222
 20
32.07090323723232
 30
0.0
 11
-482.8580801233223
 21
52.07090323723153
 31
0.0
  0
LINE
  5
2B2
330
1F
100
AcDbEntity
  8
0
 62
   178
100
AcDbLine
 10
-488.8580801233222
 20
32.07090323723232
 30
0.0
 11
-482.8580801233222
 21
32.07090323723232
 31
0.0
  0
LINE
  5
2B3
330
1F
100
AcDbEntity
  8
0
 62
   178
100
AcDbLine
 10
-488.8580801233223
 20
52.07090323723148
 30
0.0
 11
-488.8580801233222
 21
32.07090323723232
 31
0.0
  0
LINE
  5
2B4
330
1F
100
AcDbEntity
  8
0
 62
   178
100
AcDbLine
 10
-586.6077247871117
 20
72.04538820988618
 30
0.0
 11
-613.6077247871116
 21
72.0453882098861
 31
0.0
  0
LINE
  5
2B5
330
1F
100
AcDbEntity
  8
0
 62
   178
100
AcDbLine
 10
-613.6077247871116
 20
72.0453882098861
 30
0.0
 11
-613.6077247871116
 21
77.07090323722319
 31
0.0
  0
LINE
  5
2B6
330
1F
100
AcDbEntity
  8
0
 62
   178
100
AcDbLine
 10
-586.6077247871117
 20
77.07090323722316
 30
0.0
 11
-452.8580801233222
 21
77.07090323722299
 31
0.0
  0
LINE
  5
2B7
330
1F
100
AcDbEntity
  8
0
 62
   178
100
AcDbLine
 10
-586.6077247871117
 20
77.07090323722316
 30
0.0
 11
-586.6077247871117
 21
72.04538820988618
 31
0.0
  0
LINE
  5
2B8
330
1F
100
AcDbEntity
  8
0
 62
   178
100
AcDbLine
 10
-42.85808012332235
 20
3.853670717107501
 30
0.0
 11
-242.8580801233224
 21
3.853670717107422
 31
0.0
  0
LINE
  5
2B9
330
1F
100
AcDbEntity
  8
0
 62
   178
100
AcDbLine
 10
-42.85808012332236
 20
77.07090323722299
 30
0.0
 11
-42.85808012332235
 21
3.853670717107501
 31
0.0
  0
LINE
  5
2BA
330
1F
100
AcDbEntity
  8
0
 62
   178
100
AcDbLine
 10
-242.8580801233224
 20
77.07090323722264
 30
0.0
 11
-203.6077247871117
 21
77.07090323722319
 31
0.0
  0
LINE
  5
2BB
330
1F
100
AcDbEntity
  8
0
 62
   178
100
AcDbLine
 10
-242.8580801233224
 20
3.853670717107422
 30
0.0
 11
-242.8580801233224
 21
77.07090323722264
 31
0.0
  0
LINE
  5
2BC
330
1F
100
AcDbEntity
  8
0
 62
   178
100
AcDbLine
 10
-212.8580801233223
 20
52.07090323723133
 30
0.0
 11
-212.8580801233223
 21
32.070903237232
 31
0.0
  0
LINE
  5
2BD
330
1F
100
AcDbEntity
  8
0
 62
   178
100
AcDbLine
 10
-206.8580801233223
 20
32.070903237232
 30
0.0
 11
-206.8580801233224
 21
52.07090323723133
 31
0.0
  0
LINE
  5
2BE
330
1F
100
AcDbEntity
  8
0
 62
   178
100
AcDbLine
 10
-212.8580801233223
 20
32.070903237232
 30
0.0
 11
-206.8580801233223
 21
32.070903237232
 31
0.0
  0
LINE
  5
2BF
330
1F
100
AcDbEntity
  8
0
 62
   178
100
AcDbLine
 10
-206.8580801233224
 20
52.07090323723133
 30
0.0
 11
-212.8580801233223
 21
52.07090323723133
 31
0.0
  0
LINE
  5
2C0
330
1F
100
AcDbEntity
  8
0
 62
   178
100
AcDbLine
 10
-72.8580801233224
 20
52.07090323723153
 30
0.0
 11
-78.85808012332238
 21
52.07090323723148
 31
0.0
  0
LINE
  5
2C1
330
1F
100
AcDbEntity
  8
0
 62
   178
100
AcDbLine
 10
-72.8580801233223
 20
32.07090323723232
 30
0.0
 11
-72.8580801233224
 21
52.07090323723153
 31
0.0
  0
LINE
  5
2C2
330
1F
100
AcDbEntity
  8
0
 62
   178
100
AcDbLine
 10
-78.85808012332228
 20
32.07090323723232
 30
0.0
 11
-72.8580801233223
 21
32.07090323723232
 31
0.0
  0
LINE
  5
2C3
330
1F
100
AcDbEntity
  8
0
 62
   178
100
AcDbLine
 10
-78.85808012332238
 20
52.07090323723148
 30
0.0
 11
-78.85808012332228
 21
32.07090323723232
 31
0.0
  0
LINE
  5
2C4
330
1F
100
AcDbEntity
  8
0
 62
   178
100
AcDbLine
 10
-176.6077247871117
 20
72.04538820988618
 30
0.0
 11
-203.6077247871117
 21
72.0453882098861
 31
0.0
  0
LINE
  5
2C5
330
1F
100
AcDbEntity
  8
0
 62
   178
100
AcDbLine
 10
-203.6077247871117
 20
72.0453882098861
 30
0.0
 11
-203.6077247871117
 21
77.07090323722319
 31
0.0
  0
LINE
  5
2C6
330
1F
100
AcDbEntity
  8
0
 62
   178
100
AcDbLine
 10
-176.6077247871117
 20
77.07090323722316
 30
0.0
 11
-42.85808012332236
 21
77.07090323722299
 31
0.0
  0
LINE
  5
2C7
330
1F
100
AcDbEntity
  8
0
 62
   178
100
AcDbLine
 10
-176.6077247871117
 20
77.07090323722316
 30
0.0
 11
-176.6077247871117
 21
72.04538820988618
 31
0.0
  0
LINE
  5
2C8
330
1F
100
AcDbEntity
  8
0
 62
   178
100
AcDbLine
 10
-42.85808012332235
 20
-74.36356180300815
 30
0.0
 11
-242.8580801233224
 21
-74.36356180300824
 31
0.0
  0
LINE
  5
2C9
330
1F
100
AcDbEntity
  8
0
 62
   178
100
AcDbLine
 10
-42.85808012332236
 20
-1.146329282892667
 30
0.0
 11
-42.85808012332235
 21
-74.36356180300815
 31
0.0
  0
LINE
  5
2CA
330
1F
100
AcDbEntity
  8
0
 62
   178
100
AcDbLine
 10
-242.8580801233224
 20
-1.146329282893016
 30
0.0
 11
-203.6077247871117
 21
-1.146329282892463
 31
0.0
  0
LINE
  5
2CB
330
1F
100
AcDbEntity
  8
0
 62
   178
100
AcDbLine
 10
-242.8580801233224
 20
-74.36356180300824
 30
0.0
 11
-242.8580801233224
 21
-1.146329282893016
 31
0.0
  0
LINE
  5
2CC
330
1F
100
AcDbEntity
  8
0
 62
   178
100
AcDbLine
 10
-212.8580801233223
 20
-26.14632928288433
 30
0.0
 11
-212.8580801233223
 21
-46.14632928288366
 31
0.0
  0
LINE
  5
2CD
330
1F
100
AcDbEntity
  8
0
 62
   178
100
AcDbLine
 10
-206.8580801233223
 20
-46.14632928288366
 30
0.0
 11
-206.8580801233224
 21
-26.14632928288433
 31
0.0
  0
LINE
  5
2CE
330
1F
100
AcDbEntity
  8
0
 62
   178
100
AcDbLine
 10
-212.8580801233223
 20
-46.14632928288366
 30
0.0
 11
-206.8580801233223
 21
-46.14632928288366
 31
0.0
  0
LINE
  5
2CF
330
1F
100
AcDbEntity
  8
0
 62
   178
100
AcDbLine
 10
-206.8580801233224
 20
-26.14632928288433
 30
0.0
 11
-212.8580801233223
 21
-26.14632928288433
 31
0.0
  0
LINE
  5
2D0
330
1F
100
AcDbEntity
  8
0
 62
   178
100
AcDbLine
 10
-72.8580801233224
 20
-26.14632928288413
 30
0.0
 11
-78.85808012332238
 21
-26.14632928288417
 31
0.0
  0
LINE
  5
2D1
330
1F
100
AcDbEntity
  8
0
 62
   178
100
AcDbLine
 10
-72.8580801233223
 20
-46.14632928288334
 30
0.0
 11
-72.8580801233224
 21
-26.14632928288413
 31
0.0
  0
LINE
  5
2D2
330
1F
100
AcDbEntity
  8
0
 62
   178
100
AcDbLine
 10
-78.85808012332228
 20
-46.14632928288334
 30
0.0
 11
-72.8580801233223
 21
-46.14632928288334
 31
0.0
  0
LINE
  5
2D3
330
1F
100
AcDbEntity
  8
0
 62
   178
100
AcDbLine
 10
-78.85808012332238
 20
-26.14632928288417
 30
0.0
 11
-78.85808012332228
 21
-46.14632928288334
 31
0.0
  0
LINE
  5
2D4
330
1F
100
AcDbEntity
  8
0
 62
   178
100
AcDbLine
 10
-176.6077247871117
 20
-6.171844310229468
 30
0.0
 11
-203.6077247871117
 21
-6.171844310229564
 31
0.0
  0
LINE
  5
2D5
330
1F
100
AcDbEntity
  8
0
 62
   178
100
AcDbLine
 10
-203.6077247871117
 20
-6.171844310229564
 30
0.0
 11
-203.6077247871117
 21
-1.146329282892463
 31
0.0
  0
LINE
  5
2D6
330
1F
100
AcDbEntity
  8
0
 62
   178
100
AcDbLine
 10
-176.6077247871117
 20
-1.146329282892502
 30
0.0
 11
-42.85808012332236
 21
-1.146329282892667
 31
0.0
  0
LINE
  5
2D7
330
1F
100
AcDbEntity
  8
0
 62
   178
100
AcDbLine
 10
-176.6077247871117
 20
-1.146329282892502
 30
0.0
 11
-176.6077247871117
 21
-6.171844310229468
 31
0.0
  0
LINE
  5
2D8
330
1F
100
AcDbEntity
  8
0
 62
   178
100
AcDbLine
 10
-247.8580801233227
 20
-74.36356180300815
 30
0.0
 11
-447.8580801233227
 21
-74.36356180300824
 31
0.0
  0
LINE
  5
2D9
330
1F
100
AcDbEntity
  8
0
 62
   178
100
AcDbLine
 10
-247.8580801233227
 20
-1.146329282892667
 30
0.0
 11
-247.8580801233227
 21
-74.36356180300815
 31
0.0
  0
LINE
  5
2DA
330
1F
100
AcDbEntity
  8
0
 62
   178
100
AcDbLine
 10
-447.8580801233227
 20
-1.146329282893016
 30
0.0
 11
-408.607724787112
 21
-1.146329282892463
 31
0.0
  0
LINE
  5
2DB
330
1F
100
AcDbEntity
  8
0
 62
   178
100
AcDbLine
 10
-447.8580801233227
 20
-74.36356180300824
 30
0.0
 11
-447.8580801233227
 21
-1.146329282893016
 31
0.0
  0
LINE
  5
2DC
330
1F
100
AcDbEntity
  8
0
 62
   178
100
AcDbLine
 10
-417.8580801233226
 20
-26.14632928288433
 30
0.0
 11
-417.8580801233226
 21
-46.14632928288366
 31
0.0
  0
LINE
  5
2DD
330
1F
100
AcDbEntity
  8
0
 62
   178
100
AcDbLine
 10
-411.8580801233226
 20
-46.14632928288366
 30
0.0
 11
-411.8580801233227
 21
-26.14632928288433
 31
0.0
  0
LINE
  5
2DE
330
1F
100
AcDbEntity
  8
0
 62
   178
100
AcDbLine
 10
-417.8580801233226
 20
-46.14632928288366
 30
0.0
 11
-411.8580801233226
 21
-46.14632928288366
 31
0.0
  0
LINE
  5
2DF
330
1F
100
AcDbEntity
  8
0
 62
   178
100
AcDbLine
 10
-411.8580801233227
 20
-26.14632928288433
 30
0.0
 11
-417.8580801233226
 21
-26.14632928288433
 31
0.0
  0
LINE
  5
2E0
330
1F
100
AcDbEntity
  8
0
 62
   178
100
AcDbLine
 10
-277.8580801233227
 20
-26.14632928288413
 30
0.0
 11
-283.8580801233227
 21
-26.14632928288417
 31
0.0
  0
LINE
  5
2E1
330
1F
100
AcDbEntity
  8
0
 62
   178
100
AcDbLine
 10
-277.8580801233226
 20
-46.14632928288334
 30
0.0
 11
-277.8580801233227
 21
-26.14632928288413
 31
0.0
  0
LINE
  5
2E2
330
1F
100
AcDbEntity
  8
0
 62
   178
100
AcDbLine
 10
-283.8580801233226
 20
-46.14632928288334
 30
0.0
 11
-277.8580801233226
 21
-46.14632928288334
 31
0.0
  0
LINE
  5
2E3
330
1F
100
AcDbEntity
  8
0
 62
   178
100
AcDbLine
 10
-283.8580801233227
 20
-26.14632928288417
 30
0.0
 11
-283.8580801233226
 21
-46.14632928288334
 31
0.0
  0
LINE
  5
2E4
330
1F
100
AcDbEntity
  8
0
 62
   178
100
AcDbLine
 10
-381.607724787112
 20
-6.171844310229468
 30
0.0
 11
-408.607724787112
 21
-6.171844310229564
 31
0.0
  0
LINE
  5
2E5
330
1F
100
AcDbEntity
  8
0
 62
   178
100
AcDbLine
 10
-408.607724787112
 20
-6.171844310229564
 30
0.0
 11
-408.607724787112
 21
-1.146329282892463
 31
0.0
  0
LINE
  5
2E6
330
1F
100
AcDbEntity
  8
0
 62
   178
100
AcDbLine
 10
-381.607724787112
 20
-1.146329282892502
 30
0.0
 11
-247.8580801233227
 21
-1.146329282892667
 31
0.0
  0
LINE
  5
2E7
330
1F
100
AcDbEntity
  8
0
 62
   178
100
AcDbLine
 10
-381.607724787112
 20
-1.146329282892502
 30
0.0
 11
-381.607724787112
 21
-6.171844310229468
 31
0.0
  0
LINE
  5
2E8
330
1F
100
AcDbEntity
  8
0
 62
   178
100
AcDbLine
 10
-452.8580801233222
 20
-74.36356180300815
 30
0.0
 11
-652.8580801233222
 21
-74.36356180300824
 31
0.0
  0
LINE
  5
2E9
330
1F
100
AcDbEntity
  8
0
 62
   178
100
AcDbLine
 10
-452.8580801233222
 20
-1.146329282892667
 30
0.0
 11
-452.8580801233222
 21
-74.36356180300815
 31
0.0
  0
LINE
  5
2EA
330
1F
100
AcDbEntity
  8
0
 62
   178
100
AcDbLine
 10
-652.8580801233222
 20
-1.146329282893016
 30
0.0
 11
-613.6077247871116
 21
-1.146329282892463
 31
0.0
  0
LINE
  5
2EB
330
1F
100
AcDbEntity
  8
0
 62
   178
100
AcDbLine
 10
-652.8580801233222
 20
-74.36356180300824
 30
0.0
 11
-652.8580801233222
 21
-1.146329282893016
 31
0.0
  0
LINE
  5
2EC
330
1F
100
AcDbEntity
  8
0
 62
   178
100
AcDbLine
 10
-622.8580801233222
 20
-26.14632928288433
 30
0.0
 11
-622.8580801233222
 21
-46.14632928288366
 31
0.0
  0
LINE
  5
2ED
330
1F
100
AcDbEntity
  8
0
 62
   178
100
AcDbLine
 10
-616.8580801233222
 20
-46.14632928288366
 30
0.0
 11
-616.8580801233223
 21
-26.14632928288433
 31
0.0
  0
LINE
  5
2EE
330
1F
100
AcDbEntity
  8
0
 62
   178
100
AcDbLine
 10
-622.8580801233222
 20
-46.14632928288366
 30
0.0
 11
-616.8580801233222
 21
-46.14632928288366
 31
0.0
  0
LINE
  5
2EF
330
1F
100
AcDbEntity
  8
0
 62
   178
100
AcDbLine
 10
-616.8580801233223
 20
-26.14632928288433
 30
0.0
 11
-622.8580801233222
 21
-26.14632928288433
 31
0.0
  0
LINE
  5
2F0
330
1F
100
AcDbEntity
  8
0
 62
   178
100
AcDbLine
 10
-482.8580801233223
 20
-26.14632928288413
 30
0.0
 11
-488.8580801233223
 21
-26.14632928288417
 31
0.0
  0
LINE
  5
2F1
330
1F
100
AcDbEntity
  8
0
 62
   178
100
AcDbLine
 10
-482.8580801233222
 20
-46.14632928288334
 30
0.0
 11
-482.8580801233223
 21
-26.14632928288413
 31
0.0
  0
LINE
  5
2F2
330
1F
100
AcDbEntity
  8
0
 62
   178
100
AcDbLine
 10
-488.8580801233222
 20
-46.14632928288334
 30
0.0
 11
-482.8580801233222
 21
-46.14632928288334
 31
0.0
  0
LINE
  5
2F3
330
1F
100
AcDbEntity
  8
0
 62
   178
100
AcDbLine
 10
-488.8580801233223
 20
-26.14632928288417
 30
0.0
 11
-488.8580801233222
 21
-46.14632928288334
 31
0.0
  0
LINE
  5
2F4
330
1F
100
AcDbEntity
  8
0
 62
   178
100
AcDbLine
 10
-586.6077247871117
 20
-6.171844310229468
 30
0.0
 11
-613.6077247871116
 21
-6.171844310229564
 31
0.0
  0
LINE
  5
2F5
330
1F
100
AcDbEntity
  8
0
 62
   178
100
AcDbLine
 10
-613.6077247871116
 20
-6.171844310229564
 30
0.0
 11
-613.6077247871116
 21
-1.146329282892463
 31
0.0
  0
LINE
  5
2F6
330
1F
100
AcDbEntity
  8
0
 62
   178
100
AcDbLine
 10
-586.6077247871117
 20
-1.146329282892502
 30
0.0
 11
-452.8580801233222
 21
-1.146329282892667
 31
0.0
  0
LINE
  5
2F7
330
1F
100
AcDbEntity
  8
0
 62
   178
100
AcDbLine
 10
-586.6077247871117
 20
-1.146329282892502
 30
0.0
 11
-586.6077247871117
 21
-6.171844310229468
 31
0.0
  0
LINE
  5
2F8
330
1F
100
AcDbEntity
  8
0
 62
   178
100
AcDbLine
 10
-247.8580801233227
 20
3.853670717107501
 30
0.0
 11
-447.8580801233227
 21
3.853670717107422
 31
0.0
  0
LINE
  5
2F9
330
1F
100
AcDbEntity
  8
0
 62
   178
100
AcDbLine
 10
-247.8580801233227
 20
77.07090323722299
 30
0.0
 11
-247.8580801233227
 21
3.853670717107501
 31
0.0
  0
LINE
  5
2FA
330
1F
100
AcDbEntity
  8
0
 62
   178
100
AcDbLine
 10
-447.8580801233227
 20
77.07090323722264
 30
0.0
 11
-408.607724787112
 21
77.07090323722319
 31
0.0
  0
LINE
  5
2FB
330
1F
100
AcDbEntity
  8
0
 62
   178
100
AcDbLine
 10
-447.8580801233227
 20
3.853670717107422
 30
0.0
 11
-447.8580801233227
 21
77.07090323722264
 31
0.0
  0
LINE
  5
2FC
330
1F
100
AcDbEntity
  8
0
 62
   178
100
AcDbLine
 10
-417.8580801233226
 20
52.07090323723133
 30
0.0
 11
-417.8580801233226
 21
32.070903237232
 31
0.0
  0
LINE
  5
2FD
330
1F
100
AcDbEntity
  8
0
 62
   178
100
AcDbLine
 10
-411.8580801233226
 20
32.070903237232
 30
0.0
 11
-411.8580801233227
 21
52.07090323723133
 31
0.0
  0
LINE
  5
2FE
330
1F
100
AcDbEntity
  8
0
 62
   178
100
AcDbLine
 10
-417.8580801233226
 20
32.070903237232
 30
0.0
 11
-411.8580801233226
 21
32.070903237232
 31
0.0
  0
LINE
  5
2FF
330
1F
100
AcDbEntity
  8
0
 62
   178
100
AcDbLine
 10
-411.8580801233227
 20
52.07090323723133
 30
0.0
 11
-417.8580801233226
 21
52.07090323723133
 31
0.0
  0
LINE
  5
300
330
1F
100
AcDbEntity
  8
0
 62
   178
100
AcDbLine
 10
-277.8580801233227
 20
52.07090323723153
 30
0.0
 11
-283.8580801233227
 21
52.07090323723148
 31
0.0
  0
LINE
  5
301
330
1F
100
AcDbEntity
  8
0
 62
   178
100
AcDbLine
 10
-277.8580801233226
 20
32.07090323723232
 30
0.0
 11
-277.8580801233227
 21
52.07090323723153
 31
0.0
  0
LINE
  5
302
330
1F
100
AcDbEntity
  8
0
 62
   178
100
AcDbLine
 10
-283.8580801233226
 20
32.07090323723232
 30
0.0
 11
-277.8580801233226
 21
32.07090323723232
 31
0.0
  0
LINE
  5
303
330
1F
100
AcDbEntity
  8
0
 62
   178
100
AcDbLine
 10
-283.8580801233227
 20
52.07090323723148
 30
0.0
 11
-283.8580801233226
 21
32.07090323723232
 31
0.0
  0
LINE
  5
304
330
1F
100
AcDbEntity
  8
0
 62
   178
100
AcDbLine
 10
-381.607724787112
 20
72.04538820988618
 30
0.0
 11
-408.607724787112
 21
72.0453882098861
 31
0.0
  0
LINE
  5
305
330
1F
100
AcDbEntity
  8
0
 62
   178
100
AcDbLine
 10
-408.607724787112
 20
72.0453882098861
 30
0.0
 11
-408.607724787112
 21
77.07090323722319
 31
0.0
  0
LINE
  5
306
330
1F
100
AcDbEntity
  8
0
 62
   178
100
AcDbLine
 10
-381.607724787112
 20
77.07090323722316
 30
0.0
 11
-247.8580801233227
 21
77.07090323722299
 31
0.0
  0
LINE
  5
307
330
1F
100
AcDbEntity
  8
0
 62
   178
100
AcDbLine
 10
-381.607724787112
 20
77.07090323722316
 30
0.0
 11
-381.607724787112
 21
72.04538820988618
 31
0.0
  0
LINE
  5
308
330
1F
100
AcDbEntity
  8
0
 62
   178
100
AcDbLine
 10
-72.8580801233296
 20
208.5053682774648
 30
0.0
 11
-72.85808012332669
 21
188.5053682774663
 31
0.0
  0
LINE
  5
309
330
1F
100
AcDbEntity
  8
0
 62
   178
100
AcDbLine
 10
-277.8580801233296
 20
208.5053682774638
 30
0.0
 11
-277.8580801233266
 21
188.5053682774652
 31
0.0
  0
LINE
  5
30A
330
1F
100
AcDbEntity
  8
0
 62
   178
100
AcDbLine
 10
-482.8580801233295
 20
208.5053682774648
 30
0.0
 11
-482.8580801233266
 21
188.5053682774663
 31
0.0
  0
LINE
  5
30B
330
1F
100
AcDbEntity
  8
0
 62
   178
100
AcDbLine
 10
-706.0753126434604
 20
281.7226007975619
 30
0.0
 11
-686.0753126434618
 21
281.7226007975648
 31
0.0
  0
LINE
  5
30C
330
1F
100
AcDbEntity
  8
0
 62
   178
100
AcDbLine
 10
730.1419198766706
 20
213.5053682774649
 30
0.0
 11
730.1419198766735
 21
193.5053682774663
 31
0.0
  0
LINE
  5
30D
330
1F
100
AcDbEntity
  8
0
 62
   178
100
AcDbLine
 10
96.92468735653983
 20
284.7226007975619
 30
0.0
 11
116.9246873565384
 21
284.7226007975648
 31
0.0
  0
LINE
  5
30E
330
1F
100
AcDbEntity
  8
0
 62
   178
100
AcDbLine
 10
525.1419198766706
 20
213.5053682774638
 30
0.0
 11
525.1419198766736
 21
193.5053682774652
 31
0.0
  0
LINE
  5
30F
330
1F
100
AcDbEntity
  8
0
 62
   178
100
AcDbLine
 10
320.1419198766707
 20
213.5053682774649
 30
0.0
 11
320.1419198766736
 21
193.5053682774663
 31
0.0
  0
ENDSEC
  0
SECTION
  2
OBJECTS
  0
DICTIONARY
  5
C
330
0
100
AcDbDictionary
  3
ACAD_GROUP
350
D
  3
ACAD_LAYOUT
350
1A
  3
ACAD_MATERIAL
350
43
  3
ACAD_MLEADERSTYLE
350
6B
  3
ACAD_MLINESTYLE
350
17
  3
ACAD_PLOTSETTINGS
350
19
  3
ACAD_SCALELIST
350
47
  3
ACAD_VISUALSTYLE
350
2A
  3
ACDBHEADERROUNDTRIPXREC
350
310
  3
ACDBVARIABLEDICTIONARY
350
331
  0
DICTIONARY
  5
338
330
8
100
AcDbDictionary
280
     1
  3
ACAD_XREC_ROUNDTRIP
360
339
  0
DICTIONARY
  5
D
102
{ACAD_REACTORS
330
C
102
}
330
C
100
AcDbDictionary
  0
DICTIONARY
  5
1A
102
{ACAD_REACTORS
330
C
102
}
330
C
100
AcDbDictionary
  0
DICTIONARY
  5
43
102
{ACAD_REACTORS
330
C
102
}
330
C
100
AcDbDictionary
  3
BYBLOCK
350
45
  3
BYLAYER
350
44
  3
GLOBAL
350
46
  0
DICTIONARY
  5
6B
102
{ACAD_REACTORS
330
C
102
}
330
C
100
AcDbDictionary
  3
STANDARD
350
6C
  0
DICTIONARY
  5
17
102
{ACAD_REACTORS
330
C
102
}
330
C
100
AcDbDictionary
  3
STANDARD
350
18
  0
DICTIONARY
  5
19
102
{ACAD_REACTORS
330
C
102
}
330
C
100
AcDbDictionary
  0
DICTIONARY
  5
47
102
{ACAD_REACTORS
330
C
102
}
330
C
100
AcDbDictionary
  3
A0
350
48
  3
A1
350
49
  3
A2
350
4A
  3
A3
350
4B
  3
A4
350
4C
  3
A5
350
4D
  3
A6
350
4E
  3
A7
350
4F
  3
A8
350
50
  3
A9
350
51
  3
B0
350
52
  3
B1
350
53
  3
B2
350
54
  3
B3
350
55
  3
B4
350
56
  3
B5
350
57
  3
B6
350
58
  3
B7
350
59
  3
B8
350
5A
  3
B9
350
5B
  3
C0
350
5C
  3
C1
350
5D
  3
C2
350
5E
  3
C3
350
5F
  3
C4
350
60
  3
C5
350
61
  3
C6
350
62
  3
C7
350
63
  3
C8
350
64
  3
C9
350
65
  3
D0
350
66
  3
D1
350
67
  3
D2
350
68
  0
DICTIONARY
  5
2A
102
{ACAD_REACTORS
330
C
102
}
330
C
100
AcDbDictionary
  3
2DWIREFRAME
350
2F
  3
BASIC
350
32
  3
BRIGHTEN
350
36
  3
COLORCHANGE
350
3A
  3
CONCEPTUAL
350
34
  3
DIM
350
35
  3
EDGECOLOROFF
350
3D
  3
FACEPATTERN
350
39
  3
FLAT
350
2B
  3
FLATWITHEDGES
350
2C
  3
GOURAUD
350
2D
  3
GOURAUDWITHEDGES
350
2E
  3
HIDDEN
350
31
  3
JITTEROFF
350
3B
  3
LINEPATTERN
350
38
  3
OVERHANGOFF
350
3C
  3
REALISTIC
350
33
  3
SHADED
350
42
  3
SHADED_WITH_EDGES
350
41
  3
SHADES_OF_GRAY
350
3E
  3
SKETCHY
350
3F
  3
THICKEN
350
37
  3
WIREFRAME
350
30
  3
X-RAY
350
40
  0
DICTIONARY
  5
310
102
{ACAD_REACTORS
330
C
102
}
330
C
100
AcDbDictionary
  3
CEPSNID
350
31A
  3
CEPSNTYPE
350
319
  3
DIMSTYLEDATA
350
330
  3
FINGERPRINTGUID
350
31B
  3
HYPERLINKBASE
350
313
  3
INSUNITS
350
318
  3
LAYOUTDICT
350
315
  3
LWETCUNION
350
317
  3
PLOTSETDICT
350
316
  3
PSVPSCALE
350
31D
  3
PUCSBASE
350
320
  3
PUCSORGBACK
350
326
  3
PUCSORGBOTTOM
350
322
  3
PUCSORGFRONT
350
325
  3
PUCSORGLEFT
350
323
  3
PUCSORGRIGHT
350
324
  3
PUCSORGTOP
350
321
  3
PUCSORTHOREF
350
31E
  3
PUCSORTHOVIEW
350
31F
  3
STYLESHEET
350
314
  3
TSTACKALIGN
350
311
  3
TSTACKSIZE
350
312
  3
UCSBASE
350
329
  3
UCSORGBACK
350
32F
  3
UCSORGBOTTOM
350
32B
  3
UCSORGFRONT
350
32E
  3
UCSORGLEFT
350
32C
  3
UCSORGRIGHT
350
32D
  3
UCSORGTOP
350
32A
  3
UCSORTHOREF
350
327
  3
UCSORTHOVIEW
350
328
  3
VERSIONGUID
350
31C
  0
DICTIONARY
  5
331
102
{ACAD_REACTORS
330
C
102
}
330
C
100
AcDbDictionary
  3
CANNOSCALE
350
33A
  3
CMLEADERSTYLE
350
333
  3
CTABLESTYLE
350
332
  3
DIMASSOC
350
336
  3
HIDETEXT
350
337
  3
MSLTSCALE
350
33B
  0
XRECORD
  5
339
102
{ACAD_REACTORS
330
338
102
}
330
338
100
AcDbXrecord
102
VTR_0.000_0.000_1.000_1.000_VISUALSTYLE
340
2F
102
VTR_0.000_0.000_1.000_1.000_GRIDDISPLAY
 70
     3
102
VTR_0.000_0.000_1.000_1.000_GRIDMAJOR
 70
     5
102
VTR_0.000_0.000_1.000_1.000_DEFAULTLIGHTING
280
     1
102
VTR_0.000_0.000_1.000_1.000_DEFAULTLIGHTINGTYPE
 70
     1
102
VTR_0.000_0.000_1.000_1.000_BRIGHTNESS
141
0.0
102
VTR_0.000_0.000_1.000_1.000_CONTRAST
142
0.0
  0
MATERIAL
  5
45
102
{ACAD_REACTORS
330
43
102
}
102
{ACAD_XDICTIONARY
360
33E
102
}
330
43
100
AcDbMaterial
  1
BYBLOCK
  0
MATERIAL
  5
44
102
{ACAD_REACTORS
330
43
102
}
102
{ACAD_XDICTIONARY
360
33C
102
}
330
43
100
AcDbMaterial
  1
BYLAYER
  0
MATERIAL
  5
46
102
{ACAD_REACTORS
330
43
102
}
102
{ACAD_XDICTIONARY
360
340
102
}
330
43
100
AcDbMaterial
  1
GLOBAL
  0
ACAD_PROXY_OBJECT
  5
6C
102
{ACAD_REACTORS
330
6B
102
}
330
6B
100
AcDbProxyObject
 90
      499
 91
      505
 93
      610
310
40901902A4063FBFFFFFE056BD1B81E855B9FC0AD7A3703D0AD73F4214DD185B99185C9900AD7A3703D0AC73F90141901A02B5E8DC0F42B1CFC02B5E8DC0F42B1CFE5764000000000000300FC0
340
14
340
0
340
11
340
0
 94
        0
1001
ACAD_MLEADERVER
1070
     2
  0
MLINESTYLE
  5
18
102
{ACAD_REACTORS
330
17
102
}
330
17
100
AcDbMlineStyle
  2
Standard
 70
     0
  3

 62
   256
 51
90.0
 52
90.0
 71
     2
 49
0.5
 62
   256
  6
BYLAYER
 49
-0.5
 62
   256
  6
BYLAYER
  0
ACAD_PROXY_OBJECT
  5
48
102
{ACAD_REACTORS
330
47
102
}
330
47
100
AcDbProxyObject
 90
      499
 91
      503
 93
       41
310
903313A31580
  0
ACAD_PROXY_OBJECT
  5
49
102
{ACAD_REACTORS
330
47
102
}
330
47
100
AcDbProxyObject
 90
      499
 91
      503
 93
      105
310
903313A324000000000000004000
  0
ACAD_PROXY_OBJECT
  5
4A
102
{ACAD_REACTORS
330
47
102
}
330
47
100
AcDbProxyObject
 90
      499
 91
      503
 93
      105
310
903313A344000000000000104000
  0
ACAD_PROXY_OBJECT
  5
4B
102
{ACAD_REACTORS
330
47
102
}
330
47
100
AcDbProxyObject
 90
      499
 91
      503
 93
      105
310
903313A354000000000000144000
  0
ACAD_PROXY_OBJECT
  5
4C
102
{ACAD_REACTORS
330
47
102
}
330
47
100
AcDbProxyObject
 90
      499
 91
      503
 93
      105
310
903313A384000000000000204000
  0
ACAD_PROXY_OBJECT
  5
4D
102
{ACAD_REACTORS
330
47
102
}
330
47
100
AcDbProxyObject
 90
      499
 91
      503
 93
      113
310
904313A31304000000000000244000
  0
ACAD_PROXY_OBJECT
  5
4E
102
{ACAD_REACTORS
330
47
102
}
330
47
100
AcDbProxyObject
 90
      499
 91
      503
 93
      113
310
904313A31364000000000000304000
  0
ACAD_PROXY_OBJECT
  5
4F
102
{ACAD_REACTORS
330
47
102
}
330
47
100
AcDbProxyObject
 90
      499
 91
      503
 93
      113
310
904313A32304000000000000344000
  0
ACAD_PROXY_OBJECT
  5
50
102
{ACAD_REACTORS
330
47
102
}
330
47
100
AcDbProxyObject
 90
      499
 91
      503
 93
      113
310
904313A333040000000000003E4000
  0
ACAD_PROXY_OBJECT
  5
51
102
{ACAD_REACTORS
330
47
102
}
330
47
100
AcDbProxyObject
 90
      499
 91
      503
 93
      113
310
904313A34304000000000000444000
  0
ACAD_PROXY_OBJECT
  5
52
102
{ACAD_REACTORS
330
47
102
}
330
47
100
AcDbProxyObject
 90
      499
 91
      503
 93
      113
310
904313A35304000000000000494000
  0
ACAD_PROXY_OBJECT
  5
53
102
{ACAD_REACTORS
330
47
102
}
330
47
100
AcDbProxyObject
 90
      499
 91
      503
 93
      121
310
905313A3130304000000000000594000
  0
ACAD_PROXY_OBJECT
  5
54
102
{ACAD_REACTORS
330
47
102
}
330
47
100
AcDbProxyObject
 90
      499
 91
      503
 93
      105
310
903323A310000000000000010100
  0
ACAD_PROXY_OBJECT
  5
55
102
{ACAD_REACTORS
330
47
102
}
330
47
100
AcDbProxyObject
 90
      499
 91
      503
 93
      105
310
903343A310000000000000410100
  0
ACAD_PROXY_OBJECT
  5
56
102
{ACAD_REACTORS
330
47
102
}
330
47
100
AcDbProxyObject
 90
      499
 91
      503
 93
      105
310
903383A310000000000000810100
  0
ACAD_PROXY_OBJECT
  5
57
102
{ACAD_REACTORS
330
47
102
}
330
47
100
AcDbProxyObject
 90
      499
 91
      503
 93
      113
310
90431303A310000000000000910100
  0
ACAD_PROXY_OBJECT
  5
58
102
{ACAD_REACTORS
330
47
102
}
330
47
100
AcDbProxyObject
 90
      499
 91
      503
 93
      121
310
9053130303A310000000000001650100
  0
ACAD_PROXY_OBJECT
  5
59
102
{ACAD_REACTORS
330
47
102
}
330
47
100
AcDbProxyObject
 90
      499
 91
      503
 93
      257
310
90E312F31323822203D2031272D3022000000000000200FC000000000000284000
  0
ACAD_PROXY_OBJECT
  5
5A
102
{ACAD_REACTORS
330
47
102
}
330
47
100
AcDbProxyObject
 90
      499
 91
      503
 93
      249
310
90D312F363422203D2031272D3022000000000000240FC000000000000284000
  0
ACAD_PROXY_OBJECT
  5
5B
102
{ACAD_REACTORS
330
47
102
}
330
47
100
AcDbProxyObject
 90
      499
 91
      503
 93
      249
310
90D312F333222203D2031272D3022000000000000280FC000000000000284000
  0
ACAD_PROXY_OBJECT
  5
5C
102
{ACAD_REACTORS
330
47
102
}
330
47
100
AcDbProxyObject
 90
      499
 91
      503
 93
      249
310
90D312F313622203D2031272D30220000000000002C0FC000000000000284000
  0
ACAD_PROXY_OBJECT
  5
5D
102
{ACAD_REACTORS
330
47
102
}
330
47
100
AcDbProxyObject
 90
      499
 91
      503
 93
      249
310
90D332F333222203D2031272D30220000000000002E0FC000000000000284000
  0
ACAD_PROXY_OBJECT
  5
5E
102
{ACAD_REACTORS
330
47
102
}
330
47
100
AcDbProxyObject
 90
      499
 91
      503
 93
      241
310
90C312F3822203D2031272D3022000000000000300FC000000000000284000
  0
ACAD_PROXY_OBJECT
  5
5F
102
{ACAD_REACTORS
330
47
102
}
330
47
100
AcDbProxyObject
 90
      499
 91
      503
 93
      249
310
90D332F313622203D2031272D3022000000000000320FC000000000000284000
  0
ACAD_PROXY_OBJECT
  5
60
102
{ACAD_REACTORS
330
47
102
}
330
47
100
AcDbProxyObject
 90
      499
 91
      503
 93
      241
310
90C312F3422203D2031272D3022000000000000340FC000000000000284000
  0
ACAD_PROXY_OBJECT
  5
61
102
{ACAD_REACTORS
330
47
102
}
330
47
100
AcDbProxyObject
 90
      499
 91
      503
 93
      241
310
90C332F3822203D2031272D3022000000000000360FC000000000000284000
  0
ACAD_PROXY_OBJECT
  5
62
102
{ACAD_REACTORS
330
47
102
}
330
47
100
AcDbProxyObject
 90
      499
 91
      503
 93
      241
310
90C312F3222203D2031272D3022000000000000380FC000000000000284000
  0
ACAD_PROXY_OBJECT
  5
63
102
{ACAD_REACTORS
330
47
102
}
330
47
100
AcDbProxyObject
 90
      499
 91
      503
 93
      241
310
90C332F3422203D2031272D30220000000000003A0FC000000000000284000
  0
ACAD_PROXY_OBJECT
  5
64
102
{ACAD_REACTORS
330
47
102
}
330
47
100
AcDbProxyObject
 90
      499
 91
      503
 93
      161
310
90A3122203D2031272D30224000000000000284000
  0
ACAD_PROXY_OBJECT
  5
65
102
{ACAD_REACTORS
330
47
102
}
330
47
100
AcDbProxyObject
 90
      499
 91
      503
 93
      257
310
90E312D312F3222203D2031272D30220000000000003E0FC000000000000284000
  0
ACAD_PROXY_OBJECT
  5
66
102
{ACAD_REACTORS
330
47
102
}
330
47
100
AcDbProxyObject
 90
      499
 91
      503
 93
      225
310
90A3322203D2031272D302200000000000002100000000000000284000
  0
ACAD_PROXY_OBJECT
  5
67
102
{ACAD_REACTORS
330
47
102
}
330
47
100
AcDbProxyObject
 90
      499
 91
      503
 93
      225
310
90A3622203D2031272D302200000000000006100000000000000284000
  0
ACAD_PROXY_OBJECT
  5
68
102
{ACAD_REACTORS
330
47
102
}
330
47
100
AcDbProxyObject
 90
      499
 91
      503
 93
      249
310
90D31272D3022203D2031272D30220000000000000A100000000000000284000
  0
ACAD_PROXY_OBJECT
  5
2F
102
{ACAD_REACTORS
330
2A
102
}
330
2A
100
AcDbProxyObject
 90
      499
 91
      501
 93
      436
310
42CC9915DA5C99599C985B595049028333333333333E33F0000000000000F90107901411070040501600405405064090741402480A0340
1001
ACAD
1000
AcDbSavedByObjectVersion
1070
     0
  0
ACAD_PROXY_OBJECT
  5
32
102
{ACAD_REACTORS
330
2A
102
}
330
2A
100
AcDbProxyObject
 90
      499
 91
      501
 93
      388
310
4150985CDA58D07406404333333333333E33F0000000000000F90107A41107004050150841D405064090741402480A0350
1001
ACAD
1000
AcDbSavedByObjectVersion
1070
     0
  0
ACAD_PROXY_OBJECT
  5
36
102
{ACAD_REACTORS
330
2A
102
}
330
2A
100
AcDbProxyObject
 90
      499
 91
      501
 93
      428
310
42109C9A59DA1D195B90C409028333333333333E33F0000000000000F9010790141107004050150841D405064090741402480A029950
1001
ACAD
1000
AcDbSavedByObjectVersion
1070
     0
  0
ACAD_PROXY_OBJECT
  5
3A
102
{ACAD_REACTORS
330
2A
102
}
330
2A
100
AcDbProxyObject
 90
      499
 91
      501
 93
      452
310
42D0DBDB1BDC90DA185B99D95104090240C333333333333E33F0000000000000F90108901411070040501508421405064090741402480A0350
1001
ACAD
1000
AcDbSavedByObjectVersion
1070
     0
  0
ACAD_PROXY_OBJECT
  5
34
102
{ACAD_REACTORS
330
2A
102
}
330
2A
100
AcDbProxyObject
 90
      499
 91
      501
 93
      500
310
4290DBDB98D95C1D1D585B10940D028333333333333E33F0000000000000F90107902409070040501000000000018199010841D405064090740C02480A0340
1001
ACAD
1000
AcDbSavedByObjectVersion
1070
     0
  0
ACAD_PROXY_OBJECT
  5
35
102
{ACAD_REACTORS
330
2A
102
}
330
2A
100
AcDbProxyObject
 90
      499
 91
      501
 93
      412
310
40D11A5B50B409028333333333333E33F0000000000000F9010790141107004050150841D405064090741402480A02677FFFFFD0
1001
ACAD
1000
AcDbSavedByObjectVersion
1070
     0
  0
ACAD_PROXY_OBJECT
  5
3D
102
{ACAD_REACTORS
330
2A
102
}
330
2A
100
AcDbProxyObject
 90
      499
 91
      501
 93
      452
310
43115919D950DBDB1BDC93D999916409028333333333333E33F0000000000000F9010790141107004050150841D405064090741402480A0350
1001
ACAD
1000
AcDbSavedByObjectVersion
1070
     0
  0
ACAD_PROXY_OBJECT
  5
39
102
{ACAD_REACTORS
330
2A
102
}
330
2A
100
AcDbProxyObject
 90
      499
 91
      501
 93
      444
310
42D19858D95C185D1D195C9B90F409028333333333333E33F0000000000000F9010790141107004050150841D405064090741402480A0350
1001
ACAD
1000
AcDbSavedByObjectVersion
1070
     0
  0
ACAD_PROXY_OBJECT
  5
2B
102
{ACAD_REACTORS
330
2A
102
}
330
2A
100
AcDbProxyObject
 90
      499
 91
      501
 93
      380
310
41119B185D240901404333333333333E33F0000000000000F9010740A907004050150841D405064090741402480A1B50
1001
ACAD
1000
AcDbSavedByObjectVersion
1070
     0
  0
ACAD_PROXY_OBJECT
  5
2C
102
{ACAD_REACTORS
330
2A
102
}
330
2A
100
AcDbProxyObject
 90
      499
 91
      501
 93
      468
310
43519B185D15DA5D1A115919D95CD0140901404333333333333E33F0000000000000F90107409019070040501600405405064090741402480A1B50
1001
ACAD
1000
AcDbSavedByObjectVersion
1070
     0
  0
ACAD_PROXY_OBJECT
  5
2D
102
{ACAD_REACTORS
330
2A
102
}
330
2A
100
AcDbProxyObject
 90
      499
 91
      501
 93
      404
310
41D1DBDD5C985D5910240902404333333333333E33F0000000000000F9010740A9070040501641D405064090741402480A1B50
1001
ACAD
1000
AcDbSavedByObjectVersion
1070
     0
  0
ACAD_PROXY_OBJECT
  5
2E
102
{ACAD_REACTORS
330
2A
102
}
330
2A
100
AcDbProxyObject
 90
      499
 91
      501
 93
      492
310
4411DBDD5C985D5915DA5D1A115919D95CD0340902404333333333333E33F0000000000000F90107409019070040501600405405064090741402480A1B50
1001
ACAD
1000
AcDbSavedByObjectVersion
1070
     0
  0
ACAD_PROXY_OBJECT
  5
31
102
{ACAD_REACTORS
330
2A
102
}
330
2A
100
AcDbProxyObject
 90
      499
 91
      501
 93
      476
310
41921A5919195B90640502408333333333333E33F0000000000000F901079024090700405020000000000001110200405405064090740C02480A0340
1001
ACAD
1000
AcDbSavedByObjectVersion
1070
     0
  0
ACAD_PROXY_OBJECT
  5
3B
102
{ACAD_REACTORS
330
2A
102
}
330
2A
100
AcDbProxyObject
 90
      499
 91
      501
 93
      428
310
42529A5D1D195C93D999914409028333333333333E33F0000000000000F9010790141107004050150A41D405064090741402480A0350
1001
ACAD
1000
AcDbSavedByObjectVersion
1070
     0
  0
ACAD_PROXY_OBJECT
  5
38
102
{ACAD_REACTORS
330
2A
102
}
330
2A
100
AcDbProxyObject
 90
      499
 91
      501
 93
      444
310
42D31A5B995C185D1D195C9B90E409028333333333333E33F0000000000000F9010790141107004050750841D405064090741402483A0350
1001
ACAD
1000
AcDbSavedByObjectVersion
1070
     0
  0
ACAD_PROXY_OBJECT
  5
3C
102
{ACAD_REACTORS
330
2A
102
}
330
2A
100
AcDbProxyObject
 90
      499
 91
      501
 93
      444
310
42D3DD995C9A185B99D3D999915409028333333333333E33F0000000000000F9010790141107004050150941D405064090741402480A0350
1001
ACAD
1000
AcDbSavedByObjectVersion
1070
     0
  0
ACAD_PROXY_OBJECT
  5
33
102
{ACAD_REACTORS
330
2A
102
}
330
2A
100
AcDbProxyObject
 90
      499
 91
      501
 93
      428
310
425499585B1A5CDD1A58D08409038333333333333E33F0000000000000F9010740A907004050150800405405064090740C02480A1B40
1001
ACAD
1000
AcDbSavedByObjectVersion
1070
     0
  0
ACAD_PROXY_OBJECT
  5
42
102
{ACAD_REACTORS
330
2A
102
}
330
2A
100
AcDbProxyObject
 90
      499
 91
      501
 93
      420
310
4194DA1859195911B40902404333333333333E33F0000000000000F9010740A41107004050150800405405064090840C02480A0B40
1001
ACAD
1000
AcDbSavedByObjectVersion
1070
     0
  0
ACAD_PROXY_OBJECT
  5
41
102
{ACAD_REACTORS
330
2A
102
}
330
2A
100
AcDbProxyObject
 90
      499
 91
      501
 93
      516
310
4454DA18591959081DDA5D1A08195919D95CD1A40902404333333333333E33F0000000000000F901074090142907004050250800405405064090740C02480A0B40
1001
ACAD
1000
AcDbSavedByObjectVersion
1070
     0
  0
ACAD_PROXY_OBJECT
  5
3E
102
{ACAD_REACTORS
330
2A
102
}
330
2A
100
AcDbProxyObject
 90
      499
 91
      501
 93
      532
310
4394DA1859195CC81BD98811DC985E5174090240C333333333333E33F0000000000000F901079024090741D01000000000000111010841D405064090740C02480A0340
1001
ACAD
1000
AcDbSavedByObjectVersion
1070
     0
  0
ACAD_PROXY_OBJECT
  5
3F
102
{ACAD_REACTORS
330
2A
102
}
330
2A
100
AcDbProxyObject
 90
      499
 91
      501
 93
      476
310
41D4DAD95D18DA1E51840502408333333333333E33F0000000000000F901079024090741D01000000000000111010B41D405064090741802480A0340
1001
ACAD
1000
AcDbSavedByObjectVersion
1070
     0
  0
ACAD_PROXY_OBJECT
  5
37
102
{ACAD_REACTORS
330
2A
102
}
330
2A
100
AcDbProxyObject
 90
      499
 91
      501
 93
      412
310
41D51A1A58DAD95B90D409028333333333333E33F0000000000000F9010790141107004050150C41D405064090741402480A0350
1001
ACAD
1000
AcDbSavedByObjectVersion
1070
     0
  0
ACAD_PROXY_OBJECT
  5
30
102
{ACAD_REACTORS
330
2A
102
}
330
2A
100
AcDbProxyObject
 90
      499
 91
      501
 93
      420
310
4255DA5C99599C985B595059028333333333333E33F0000000000000F90107901411070040501600405405064090740C02480A0340
1001
ACAD
1000
AcDbSavedByObjectVersion
1070
     0
  0
ACAD_PROXY_OBJECT
  5
40
102
{ACAD_REACTORS
330
2A
102
}
330
2A
100
AcDbProxyObject
 90
      499
 91
      501
 93
      404
310
41560B54985E51940902404000000000000E03F0000000000000F9010740501907004050150841D405064090740C02480A1B40
1001
ACAD
1000
AcDbSavedByObjectVersion
1070
     0
  0
XRECORD
  5
31A
102
{ACAD_REACTORS
330
310
102
}
330
310
100
AcDbXrecord
340
0
  0
XRECORD
  5
319
102
{ACAD_REACTORS
330
310
102
}
330
310
100
AcDbXrecord
 90
        0
  0
XRECORD
  5
330
102
{ACAD_REACTORS
330
310
102
}
330
310
100
AcDbXrecord
1000
DSTYLE
1002
{
1070
   171
 70
     2
1070
   143
 40
25.4
1070
   274
 70
     2
1070
    41
 40
0.18
1070
   141
 40
0.09
1070
   271
 70
     4
1070
    43
 40
0.38
1070
   278
 70
    46
1070
    44
 40
0.18
1070
    42
 40
0.0625
1070
   147
 40
0.09
1070
    77
 70
     0
1070
   272
 70
     4
1070
    73
 70
     1
1070
   172
 70
     0
1070
    74
 70
     1
1070
   283
 70
     1
1070
   340
340
11
1070
   140
 40
0.18
1070
   284
 70
     0
1070
    78
 70
     0
1002
}
  0
XRECORD
  5
31B
102
{ACAD_REACTORS
330
310
102
}
330
310
100
AcDbXrecord
  1
{5BF79EBC-F2F0-4C1B-B574-310660AADE3A}
  0
XRECORD
  5
313
102
{ACAD_REACTORS
330
310
102
}
330
310
100
AcDbXrecord
  1

  0
XRECORD
  5
318
102
{ACAD_REACTORS
330
310
102
}
330
310
100
AcDbXrecord
 90
        4
  0
XRECORD
  5
315
102
{ACAD_REACTORS
330
310
102
}
330
310
100
AcDbXrecord
340
1A
  0
XRECORD
  5
317
102
{ACAD_REACTORS
330
310
102
}
330
310
100
AcDbXrecord
 90
    10781
  0
XRECORD
  5
316
102
{ACAD_REACTORS
330
310
102
}
330
310
100
AcDbXrecord
340
19
  0
XRECORD
  5
31D
102
{ACAD_REACTORS
330
310
102
}
330
310
100
AcDbXrecord
 40
0.0
  0
XRECORD
  5
320
102
{ACAD_REACTORS
330
310
102
}
330
310
100
AcDbXrecord
340
0
  0
XRECORD
  5
326
102
{ACAD_REACTORS
330
310
102
}
330
310
100
AcDbXrecord
 10
0.0
 20
0.0
 30
0.0
  0
XRECORD
  5
322
102
{ACAD_REACTORS
330
310
102
}
330
310
100
AcDbXrecord
 10
0.0
 20
0.0
 30
0.0
  0
XRECORD
  5
325
102
{ACAD_REACTORS
330
310
102
}
330
310
100
AcDbXrecord
 10
0.0
 20
0.0
 30
0.0
  0
XRECORD
  5
323
102
{ACAD_REACTORS
330
310
102
}
330
310
100
AcDbXrecord
 10
0.0
 20
0.0
 30
0.0
  0
XRECORD
  5
324
102
{ACAD_REACTORS
330
310
102
}
330
310
100
AcDbXrecord
 10
0.0
 20
0.0
 30
0.0
  0
XRECORD
  5
321
102
{ACAD_REACTORS
330
310
102
}
330
310
100
AcDbXrecord
 10
0.0
 20
0.0
 30
0.0
  0
XRECORD
  5
31E
102
{ACAD_REACTORS
330
310
102
}
330
310
100
AcDbXrecord
340
0
  0
XRECORD
  5
31F
102
{ACAD_REACTORS
330
310
102
}
330
310
100
AcDbXrecord
 70
     0
  0
XRECORD
  5
314
102
{ACAD_REACTORS
330
310
102
}
330
310
100
AcDbXrecord
  1

  0
XRECORD
  5
311
102
{ACAD_REACTORS
330
310
102
}
330
310
100
AcDbXrecord
 90
        1
  0
XRECORD
  5
312
102
{ACAD_REACTORS
330
310
102
}
330
310
100
AcDbXrecord
 90
       70
  0
XRECORD
  5
329
102
{ACAD_REACTORS
330
310
102
}
330
310
100
AcDbXrecord
340
0
  0
XRECORD
  5
32F
102
{ACAD_REACTORS
330
310
102
}
330
310
100
AcDbXrecord
 10
0.0
 20
0.0
 30
0.0
  0
XRECORD
  5
32B
102
{ACAD_REACTORS
330
310
102
}
330
310
100
AcDbXrecord
 10
0.0
 20
0.0
 30
0.0
  0
XRECORD
  5
32E
102
{ACAD_REACTORS
330
310
102
}
330
310
100
AcDbXrecord
 10
0.0
 20
0.0
 30
0.0
  0
XRECORD
  5
32C
102
{ACAD_REACTORS
330
310
102
}
330
310
100
AcDbXrecord
 10
0.0
 20
0.0
 30
0.0
  0
XRECORD
  5
32D
102
{ACAD_REACTORS
330
310
102
}
330
310
100
AcDbXrecord
 10
0.0
 20
0.0
 30
0.0
  0
XRECORD
  5
32A
102
{ACAD_REACTORS
330
310
102
}
330
310
100
AcDbXrecord
 10
0.0
 20
0.0
 30
0.0
  0
XRECORD
  5
327
102
{ACAD_REACTORS
330
310
102
}
330
310
100
AcDbXrecord
340
0
  0
XRECORD
  5
328
102
{ACAD_REACTORS
330
310
102
}
330
310
100
AcDbXrecord
 70
     0
  0
XRECORD
  5
31C
102
{ACAD_REACTORS
330
310
102
}
330
310
100
AcDbXrecord
  1
{FAEB1C32-E019-11D5-929B-00C0DF256EC4}
  0
DICTIONARYVAR
  5
33A
102
{ACAD_REACTORS
330
331
102
}
330
331
100
DictionaryVariables
280
     0
  1
1:1
  0
DICTIONARYVAR
  5
333
102
{ACAD_REACTORS
330
331
102
}
330
331
100
DictionaryVariables
280
     0
  1
Standard
  0
DICTIONARYVAR
  5
332
102
{ACAD_REACTORS
330
331
102
}
330
331
100
DictionaryVariables
280
     0
  1
Standard
  0
DICTIONARYVAR
  5
336
102
{ACAD_REACTORS
330
331
102
}
330
331
100
DictionaryVariables
280
     0
  1
2
  0
DICTIONARYVAR
  5
337
102
{ACAD_REACTORS
330
331
102
}
330
331
100
DictionaryVariables
280
     0
  1
1
  0
DICTIONARYVAR
  5
33B
102
{ACAD_REACTORS
330
331
102
}
330
331
100
DictionaryVariables
280
     0
  1
1
  0
DICTIONARY
  5
33E
330
45
100
AcDbDictionary
280
     1
  3
ACAD_XREC_ROUNDTRIP
360
33F
  0
DICTIONARY
  5
33C
330
44
100
AcDbDictionary
280
     1
  3
ACAD_XREC_ROUNDTRIP
360
33D
  0
DICTIONARY
  5
340
330
46
100
AcDbDictionary
280
     1
  3
ACAD_XREC_ROUNDTRIP
360
341
  0
XRECORD
  5
33F
102
{ACAD_REACTORS
330
33E
102
}
330
33E
100
AcDbXrecord
102
MATERIAL
148
0.0
149
0.0
149
0.0
 93
        0
 94
      127
282
     0
 72
     1
 77
     1
171
     1
175
     1
179
     1
273
     0
  0
XRECORD
  5
33D
102
{ACAD_REACTORS
330
33C
102
}
330
33C
100
AcDbXrecord
102
MATERIAL
148
0.0
149
0.0
149
0.0
 93
        0
 94
      127
282
     0
 72
     1
 77
     1
171
     1
175
     1
179
     1
273
     0
  0
XRECORD
  5
341
102
{ACAD_REACTORS
330
340
102
}
330
340
100
AcDbXrecord
102
MATERIAL
148
0.0
149
0.0
149
0.0
 93
        0
 94
      127
282
     0
 72
     1
 77
     1
171
     1
175
     1
179
     1
273
     0
  0
ENDSEC
  0
EOF
